{"glyphs":{"0":{"ha":925,"x_min":35,"x_max":890,"o":"m 463 -14 q 136 102 238 -14 q 35 447 35 218 q 136 792 35 676 q 463 908 238 908 q 789 792 688 908 q 890 447 890 676 q 789 102 890 218 q 463 -14 688 -14 m 463 208 q 587 267 550 208 q 624 447 624 325 q 587 628 624 569 q 463 686 550 686 q 338 628 375 686 q 301 447 301 571 q 338 267 301 325 q 463 208 375 208 z "},"1":{"ha":507,"x_min":35,"x_max":444,"o":"m 183 653 l 35 631 l 35 849 l 444 908 l 444 0 l 183 0 l 183 653 z "},"2":{"ha":725,"x_min":35,"x_max":690,"o":"m 35 119 q 119 240 69 185 q 253 371 169 296 l 281 396 q 388 503 361 468 q 415 588 415 539 q 383 661 415 636 q 286 686 350 686 q 64 638 181 686 l 64 860 q 198 895 121 882 q 351 908 275 908 q 598 831 514 908 q 682 619 682 754 q 651 473 682 529 q 543 349 619 417 l 519 328 q 442 258 472 288 q 392 200 411 228 l 690 200 l 690 0 l 35 0 l 35 119 z "},"3":{"ha":742,"x_min":35,"x_max":707,"o":"m 328 -14 q 174 0 264 -14 q 35 35 85 14 l 35 243 q 158 206 90 218 q 286 193 225 193 q 403 213 367 193 q 440 285 440 233 q 318 363 440 363 l 167 363 l 183 538 l 310 538 q 397 557 369 538 q 424 619 424 576 q 389 681 424 661 q 279 701 354 701 q 157 688 219 701 q 49 651 94 674 l 49 858 q 178 894 101 881 q 329 908 254 908 q 524 875 443 908 q 648 783 606 842 q 690 650 690 725 q 665 533 690 586 q 594 450 640 479 q 707 263 707 403 q 603 56 707 125 q 328 -14 500 -14 z "},"4":{"ha":763,"x_min":7,"x_max":756,"o":"m 414 168 l 7 168 l 7 339 l 449 894 l 675 894 l 675 379 l 756 379 l 756 168 l 675 168 l 675 0 l 414 0 l 414 168 m 460 368 l 460 611 l 258 368 l 460 368 z "},"5":{"ha":728,"x_min":35,"x_max":693,"o":"m 321 -14 q 172 -2 253 -14 q 39 33 90 10 l 39 243 q 156 208 85 221 q 279 194 228 194 q 391 218 356 194 q 426 293 426 242 q 400 363 426 342 q 307 385 374 385 l 35 385 l 35 504 l 58 894 l 638 894 l 619 694 l 282 694 l 274 567 l 375 567 q 693 283 693 567 q 598 66 693 146 q 321 -14 503 -14 z "},"6":{"ha":818,"x_min":35,"x_max":783,"o":"m 411 -14 q 35 349 35 -14 l 35 521 q 85 720 35 632 q 232 858 136 808 q 457 908 328 908 q 586 899 531 908 q 694 871 642 890 l 694 668 q 482 707 606 707 q 333 670 386 707 q 279 575 279 633 l 279 550 q 367 585 314 572 q 467 599 419 599 q 706 523 629 599 q 783 300 783 447 q 693 71 783 156 q 411 -14 603 -14 m 413 171 q 515 201 481 171 q 550 290 550 232 q 519 382 550 351 q 415 413 488 413 q 279 371 349 413 l 279 306 q 313 203 279 236 q 413 171 346 171 z "},"7":{"ha":692,"x_min":21,"x_max":671,"o":"m 378 694 l 21 694 l 21 894 l 671 894 l 671 744 l 356 0 l 83 0 l 378 694 z "},"8":{"ha":847,"x_min":35,"x_max":813,"o":"m 422 -14 q 129 54 224 -14 q 35 260 35 122 q 66 381 35 325 q 151 463 97 436 q 81 537 106 492 q 57 635 57 582 q 146 837 57 765 q 422 908 235 908 q 790 635 790 908 q 766 533 790 581 q 693 456 742 485 q 813 260 813 396 q 717 54 813 122 q 422 -14 621 -14 m 457 528 q 522 565 503 543 q 542 629 542 588 q 422 719 542 719 q 333 697 363 719 q 304 629 304 675 q 379 543 304 558 l 457 528 m 422 174 q 530 197 496 174 q 564 265 564 219 q 542 326 564 306 q 468 358 519 347 l 374 378 q 306 342 329 367 q 282 274 282 318 q 316 198 282 222 q 422 174 350 174 z "},"9":{"ha":818,"x_min":35,"x_max":783,"o":"m 361 -14 q 229 -6 283 -14 q 124 21 175 1 l 124 224 q 222 194 171 203 q 336 186 272 186 q 487 224 435 186 q 539 318 539 261 l 539 344 q 451 308 504 322 q 351 294 399 294 q 112 370 189 294 q 35 593 35 446 q 125 824 35 739 q 407 908 215 908 q 692 818 600 908 q 783 546 783 728 l 783 374 q 733 174 783 261 q 586 36 682 86 q 361 -14 490 -14 m 401 481 q 539 524 467 481 l 539 588 q 506 691 539 658 q 404 724 474 724 q 303 692 338 724 q 268 603 268 661 q 299 511 268 542 q 401 481 329 481 z "},"\r":{"ha":556,"x_min":0,"x_max":0,"o":""}," ":{"ha":472,"x_min":0,"x_max":0,"o":""},"A":{"ha":1032,"x_min":35,"x_max":997,"o":"m 378 894 l 654 894 l 997 0 l 725 0 l 650 190 l 381 190 l 307 0 l 35 0 l 378 894 m 615 378 l 515 640 l 415 378 l 615 378 z "},"Á":{"ha":1032,"x_min":35,"x_max":997,"o":"m 538 1242 l 740 1242 l 607 956 l 415 956 l 538 1242 m 378 894 l 654 894 l 997 0 l 725 0 l 650 190 l 381 190 l 307 0 l 35 0 l 378 894 m 615 378 l 515 640 l 415 378 l 615 378 z "},"Ă":{"ha":1032,"x_min":35,"x_max":997,"o":"m 515 957 q 324 1025 396 957 q 253 1217 253 1093 l 422 1217 q 515 1100 422 1100 q 610 1217 610 1100 l 779 1217 q 708 1025 779 1093 q 515 957 636 957 m 378 894 l 654 894 l 997 0 l 725 0 l 650 190 l 381 190 l 307 0 l 35 0 l 378 894 m 615 378 l 515 640 l 415 378 l 615 378 z "},"Ắ":{"ha":1032,"x_min":35,"x_max":997,"o":"m 532 1407 l 706 1407 l 590 1189 l 440 1189 l 532 1407 m 517 956 q 332 1015 400 956 q 264 1194 264 1074 l 410 1194 q 438 1113 410 1143 q 517 1083 465 1083 q 595 1113 568 1083 q 622 1194 622 1143 l 768 1194 q 701 1015 768 1074 q 517 956 633 956 m 378 894 l 654 894 l 997 0 l 725 0 l 650 190 l 381 190 l 307 0 l 35 0 l 378 894 m 615 378 l 515 640 l 415 378 l 615 378 z "},"Ặ":{"ha":1032,"x_min":35,"x_max":997,"o":"m 515 956 q 324 1024 396 956 q 253 1215 253 1092 l 422 1215 q 515 1099 422 1099 q 610 1215 610 1099 l 779 1215 q 708 1024 779 1092 q 515 956 636 956 m 378 894 l 654 894 l 997 0 l 725 0 l 650 190 l 381 190 l 307 0 l 35 0 l 378 894 m 615 378 l 515 640 l 415 378 l 615 378 m 425 -78 l 606 -78 l 606 -244 l 425 -244 l 425 -78 z "},"Ằ":{"ha":1032,"x_min":35,"x_max":997,"o":"m 325 1407 l 499 1407 l 590 1189 l 440 1189 l 325 1407 m 514 956 q 330 1015 397 956 q 263 1194 263 1074 l 408 1194 q 435 1113 408 1143 q 514 1083 463 1083 q 593 1113 565 1083 q 621 1194 621 1143 l 767 1194 q 699 1015 767 1074 q 514 956 631 956 m 378 894 l 654 894 l 997 0 l 725 0 l 650 190 l 381 190 l 307 0 l 35 0 l 378 894 m 615 378 l 515 640 l 415 378 l 615 378 z "},"Ẳ":{"ha":1032,"x_min":35,"x_max":997,"o":"m 429 1282 q 533 1333 533 1286 q 517 1364 533 1356 q 468 1372 501 1372 q 397 1360 429 1372 l 397 1453 q 539 1471 451 1471 q 658 1438 615 1471 q 701 1351 701 1404 q 677 1278 701 1304 q 597 1238 653 1251 l 597 1196 l 429 1196 l 429 1282 m 514 956 q 330 1015 397 956 q 263 1194 263 1074 l 408 1194 q 435 1113 408 1143 q 514 1083 463 1083 q 593 1113 565 1083 q 621 1194 621 1143 l 767 1194 q 699 1015 767 1074 q 514 956 631 956 m 378 894 l 654 894 l 997 0 l 725 0 l 650 190 l 381 190 l 307 0 l 35 0 l 378 894 m 615 378 l 515 640 l 415 378 l 615 378 z "},"Ẵ":{"ha":1032,"x_min":35,"x_max":997,"o":"m 646 1219 q 586 1227 615 1219 q 514 1250 557 1235 q 452 1269 478 1263 q 401 1276 426 1276 q 269 1224 319 1276 l 269 1365 q 324 1397 289 1385 q 397 1410 358 1410 q 455 1403 428 1410 q 525 1381 482 1396 q 588 1360 561 1367 q 642 1353 615 1353 q 716 1367 683 1353 q 765 1407 749 1382 l 765 1264 q 718 1233 751 1246 q 646 1219 685 1219 m 514 956 q 330 1015 397 956 q 263 1194 263 1074 l 408 1194 q 435 1113 408 1143 q 514 1083 463 1083 q 593 1113 565 1083 q 621 1194 621 1143 l 767 1194 q 699 1015 767 1074 q 514 956 631 956 m 378 894 l 654 894 l 997 0 l 725 0 l 650 190 l 381 190 l 307 0 l 35 0 l 378 894 m 615 378 l 515 640 l 415 378 l 615 378 z "},"Ǎ":{"ha":1032,"x_min":35,"x_max":997,"o":"m 221 1233 l 415 1233 l 515 1082 l 621 1233 l 810 1233 l 594 956 l 436 956 l 221 1233 m 378 894 l 654 894 l 997 0 l 725 0 l 650 190 l 381 190 l 307 0 l 35 0 l 378 894 m 615 378 l 515 640 l 415 378 l 615 378 z "},"Â":{"ha":1032,"x_min":35,"x_max":997,"o":"m 436 1233 l 594 1233 l 810 956 l 621 956 l 515 1106 l 415 956 l 221 956 l 436 1233 m 378 894 l 654 894 l 997 0 l 725 0 l 650 190 l 381 190 l 307 0 l 35 0 l 378 894 m 615 378 l 515 640 l 415 378 l 615 378 z "},"Ấ":{"ha":1032,"x_min":35,"x_max":997,"o":"m 782 1346 l 975 1346 l 867 1129 l 683 1129 l 782 1346 m 418 1167 l 610 1167 l 807 956 l 600 956 l 514 1065 l 428 956 l 221 956 l 418 1167 m 378 894 l 654 894 l 997 0 l 725 0 l 650 190 l 381 190 l 307 0 l 35 0 l 378 894 m 615 378 l 515 640 l 415 378 l 615 378 z "},"Ậ":{"ha":1032,"x_min":35,"x_max":997,"o":"m 436 1233 l 594 1233 l 810 956 l 621 956 l 515 1106 l 415 956 l 221 956 l 436 1233 m 378 894 l 654 894 l 997 0 l 725 0 l 650 190 l 381 190 l 307 0 l 35 0 l 378 894 m 615 378 l 515 640 l 415 378 l 615 378 m 425 -78 l 606 -78 l 606 -244 l 425 -244 l 425 -78 z "},"Ầ":{"ha":1032,"x_min":35,"x_max":997,"o":"m 58 1344 l 251 1344 l 350 1128 l 167 1128 l 58 1344 m 424 1165 l 615 1165 l 813 954 l 606 954 l 519 1064 l 433 954 l 226 954 l 424 1165 m 378 894 l 654 894 l 997 0 l 725 0 l 650 190 l 381 190 l 307 0 l 35 0 l 378 894 m 615 378 l 515 640 l 415 378 l 615 378 z "},"Ẩ":{"ha":1032,"x_min":35,"x_max":997,"o":"m 697 1199 q 776 1211 754 1200 q 797 1242 797 1222 q 739 1272 797 1272 q 668 1263 704 1272 l 668 1363 q 806 1379 725 1379 q 930 1348 888 1379 q 972 1260 972 1317 q 947 1181 972 1211 q 871 1143 922 1151 l 871 1097 l 697 1097 l 697 1199 m 418 1167 l 610 1167 l 807 956 l 600 956 l 514 1065 l 428 956 l 221 956 l 418 1167 m 378 894 l 654 894 l 997 0 l 725 0 l 650 190 l 381 190 l 307 0 l 35 0 l 378 894 m 615 378 l 515 640 l 415 378 l 615 378 z "},"Ẫ":{"ha":1032,"x_min":35,"x_max":997,"o":"m 654 1188 q 594 1195 624 1188 q 522 1218 565 1203 q 460 1238 486 1231 q 410 1244 435 1244 q 278 1192 328 1244 l 278 1338 q 332 1369 297 1357 q 406 1382 367 1382 q 463 1375 436 1382 q 533 1353 490 1368 q 597 1332 569 1339 q 650 1325 624 1325 q 724 1340 692 1325 q 774 1379 757 1354 l 774 1232 q 726 1201 760 1214 q 654 1188 693 1188 m 419 1167 l 611 1167 l 808 956 l 601 956 l 515 1065 l 429 956 l 222 956 l 419 1167 m 378 894 l 654 894 l 997 0 l 725 0 l 650 190 l 381 190 l 307 0 l 35 0 l 378 894 m 615 378 l 515 640 l 415 378 l 615 378 z "},"Ä":{"ha":1032,"x_min":35,"x_max":997,"o":"m 275 1158 l 457 1158 l 457 992 l 275 992 l 275 1158 m 575 1158 l 757 1158 l 757 992 l 575 992 l 575 1158 m 378 894 l 654 894 l 997 0 l 725 0 l 650 190 l 381 190 l 307 0 l 35 0 l 378 894 m 615 378 l 515 640 l 415 378 l 615 378 z "},"Ạ":{"ha":1032,"x_min":35,"x_max":997,"o":"m 378 894 l 654 894 l 997 0 l 725 0 l 650 190 l 381 190 l 307 0 l 35 0 l 378 894 m 615 378 l 515 640 l 415 378 l 615 378 m 424 -78 l 604 -78 l 604 -244 l 424 -244 l 424 -78 z "},"À":{"ha":1032,"x_min":35,"x_max":997,"o":"m 283 1242 l 488 1242 l 610 956 l 418 956 l 283 1242 m 378 894 l 654 894 l 997 0 l 725 0 l 650 190 l 381 190 l 307 0 l 35 0 l 378 894 m 615 378 l 515 640 l 415 378 l 615 378 z "},"Ả":{"ha":1032,"x_min":35,"x_max":997,"o":"m 417 1068 q 512 1087 485 1072 q 539 1129 539 1101 q 456 1175 539 1175 q 374 1164 418 1175 l 374 1272 q 533 1292 435 1292 q 678 1253 626 1292 q 729 1151 729 1214 q 701 1062 729 1093 q 613 1013 672 1031 l 613 956 l 417 956 l 417 1068 m 378 894 l 654 894 l 997 0 l 725 0 l 650 190 l 381 190 l 307 0 l 35 0 l 378 894 m 615 378 l 515 640 l 415 378 l 615 378 z "},"Ā":{"ha":1032,"x_min":35,"x_max":997,"o":"m 288 1131 l 743 1131 l 743 975 l 288 975 l 288 1131 m 378 894 l 654 894 l 997 0 l 725 0 l 650 190 l 381 190 l 307 0 l 35 0 l 378 894 m 615 378 l 515 640 l 415 378 l 615 378 z "},"Ą":{"ha":1032,"x_min":35,"x_max":997,"o":"m 853 -124 q 913 -179 853 -179 q 950 -175 931 -179 q 982 -164 969 -171 l 982 -283 q 920 -299 960 -292 q 840 -306 881 -306 q 707 -272 757 -306 q 657 -171 657 -237 q 685 -75 657 -119 q 760 0 713 -31 l 725 0 l 650 190 l 381 190 l 307 0 l 35 0 l 378 894 l 654 894 l 997 0 l 933 0 q 853 -124 853 -61 m 615 378 l 515 640 l 415 378 l 615 378 z "},"Å":{"ha":1032,"x_min":35,"x_max":997,"o":"m 997 0 l 725 0 l 650 190 l 381 190 l 307 0 l 35 0 l 371 875 q 322 1003 322 926 q 374 1134 322 1082 q 515 1186 426 1186 q 657 1134 606 1186 q 708 1003 708 1082 q 661 876 708 926 l 997 0 m 515 1078 q 458 1056 479 1078 q 438 1003 438 1035 q 458 949 438 971 q 515 928 479 928 q 573 949 553 928 q 593 1003 593 969 q 573 1056 593 1035 q 515 1078 553 1078 m 615 378 l 515 640 l 415 378 l 615 378 z "},"Ǻ":{"ha":1032,"x_min":35,"x_max":997,"o":"m 594 1222 l 403 1222 l 525 1479 l 728 1479 l 594 1222 m 997 0 l 725 0 l 650 190 l 381 190 l 307 0 l 35 0 l 371 875 q 322 1003 322 926 q 374 1134 322 1082 q 515 1186 426 1186 q 657 1134 606 1186 q 708 1003 708 1082 q 661 876 708 926 l 997 0 m 515 1078 q 458 1056 479 1078 q 438 1003 438 1035 q 458 949 438 971 q 515 928 479 928 q 573 949 553 928 q 593 1003 593 969 q 573 1056 593 1035 q 515 1078 553 1078 m 615 378 l 515 640 l 415 378 l 615 378 z "},"Ã":{"ha":1032,"x_min":35,"x_max":997,"o":"m 650 960 q 588 967 618 960 q 513 990 557 975 q 448 1011 474 1004 q 399 1018 422 1018 q 263 964 317 1018 l 263 1128 q 319 1160 283 1147 q 394 1174 356 1174 q 453 1167 425 1174 q 524 1144 481 1160 q 589 1123 561 1131 q 646 1115 617 1115 q 720 1131 688 1115 q 771 1171 753 1146 l 771 1006 q 723 973 757 986 q 650 960 689 960 m 378 894 l 654 894 l 997 0 l 725 0 l 650 190 l 381 190 l 307 0 l 35 0 l 378 894 m 615 378 l 515 640 l 415 378 l 615 378 z "},"Æ":{"ha":1193,"x_min":35,"x_max":1158,"o":"m 378 894 l 1158 894 l 1158 694 l 814 694 l 814 549 l 1107 549 l 1107 346 l 814 346 l 814 200 l 1158 200 l 1158 0 l 558 0 l 558 192 l 385 192 l 311 0 l 35 0 l 378 894 m 558 394 l 558 694 l 550 694 l 435 394 l 558 394 z "},"Ǽ":{"ha":1193,"x_min":35,"x_max":1158,"o":"m 701 1242 l 904 1242 l 771 956 l 579 956 l 701 1242 m 378 894 l 1158 894 l 1158 694 l 814 694 l 814 549 l 1107 549 l 1107 346 l 814 346 l 814 200 l 1158 200 l 1158 0 l 558 0 l 558 192 l 385 192 l 311 0 l 35 0 l 378 894 m 558 394 l 558 694 l 550 694 l 435 394 l 558 394 z "},"B":{"ha":899,"x_min":63,"x_max":864,"o":"m 63 894 l 554 894 q 760 831 689 894 q 832 647 832 767 q 807 532 832 581 q 739 456 782 483 q 833 388 801 431 q 864 265 864 344 q 786 69 864 139 q 565 0 708 0 l 63 0 l 63 894 m 483 538 q 579 624 579 538 q 555 690 579 668 q 476 711 531 711 l 314 711 l 314 538 l 483 538 m 494 182 q 572 204 547 182 q 597 278 597 226 q 572 344 597 322 q 489 365 546 365 l 314 365 l 314 182 l 494 182 z "},"C":{"ha":843,"x_min":35,"x_max":808,"o":"m 533 -14 q 163 105 290 -14 q 35 443 35 224 q 160 789 35 669 q 532 908 286 908 q 676 897 611 908 q 806 861 740 885 l 806 633 q 550 686 686 686 q 362 628 422 686 q 301 443 301 569 q 365 265 301 321 q 553 208 428 208 q 808 260 690 208 l 808 31 q 533 -14 679 -14 z "},"Ć":{"ha":843,"x_min":35,"x_max":808,"o":"m 536 1242 l 739 1242 l 606 956 l 414 956 l 536 1242 m 533 -14 q 163 105 290 -14 q 35 443 35 224 q 160 789 35 669 q 532 908 286 908 q 676 897 611 908 q 806 861 740 885 l 806 633 q 550 686 686 686 q 362 628 422 686 q 301 443 301 569 q 365 265 301 321 q 553 208 428 208 q 808 260 690 208 l 808 31 q 533 -14 679 -14 z "},"Č":{"ha":843,"x_min":35,"x_max":808,"o":"m 210 1233 l 404 1233 l 504 1082 l 610 1233 l 799 1233 l 583 956 l 425 956 l 210 1233 m 533 -14 q 163 105 290 -14 q 35 443 35 224 q 160 789 35 669 q 532 908 286 908 q 676 897 611 908 q 806 861 740 885 l 806 633 q 550 686 686 686 q 362 628 422 686 q 301 443 301 569 q 365 265 301 321 q 553 208 428 208 q 808 260 690 208 l 808 31 q 533 -14 679 -14 z "},"Ç":{"ha":843,"x_min":35,"x_max":808,"o":"m 808 31 q 596 -12 704 -6 l 579 -57 q 697 -92 658 -57 q 735 -187 735 -128 q 678 -295 735 -257 q 511 -333 622 -333 q 449 -330 486 -333 q 397 -322 413 -326 l 397 -219 q 479 -231 438 -231 q 556 -220 533 -231 q 579 -183 579 -210 q 560 -149 579 -157 q 504 -140 542 -140 l 417 -140 l 454 -10 q 142 126 250 8 q 35 443 35 243 q 160 789 35 669 q 532 908 286 908 q 676 897 611 908 q 806 861 740 885 l 806 633 q 550 686 686 686 q 362 628 422 686 q 301 443 301 569 q 365 265 301 321 q 553 208 428 208 q 808 260 690 208 l 808 31 z "},"Ĉ":{"ha":843,"x_min":35,"x_max":808,"o":"m 404 1233 l 563 1233 l 778 956 l 589 956 l 483 1106 l 383 956 l 189 956 l 404 1233 m 533 -14 q 163 105 290 -14 q 35 443 35 224 q 160 789 35 669 q 532 908 286 908 q 676 897 611 908 q 806 861 740 885 l 806 633 q 550 686 686 686 q 362 628 422 686 q 301 443 301 569 q 365 265 301 321 q 553 208 428 208 q 808 260 690 208 l 808 31 q 533 -14 679 -14 z "},"Ċ":{"ha":843,"x_min":35,"x_max":808,"o":"m 411 1160 l 592 1160 l 592 993 l 411 993 l 411 1160 m 533 -14 q 163 105 290 -14 q 35 443 35 224 q 160 789 35 669 q 532 908 286 908 q 676 897 611 908 q 806 861 740 885 l 806 633 q 550 686 686 686 q 362 628 422 686 q 301 443 301 569 q 365 265 301 321 q 553 208 428 208 q 808 260 690 208 l 808 31 q 533 -14 679 -14 z "},"D":{"ha":932,"x_min":63,"x_max":897,"o":"m 63 894 l 463 894 q 787 787 676 894 q 897 442 897 679 q 787 108 897 215 q 463 0 676 0 l 63 0 l 63 894 m 429 200 q 542 220 499 200 q 608 292 585 240 q 631 442 631 344 q 610 595 631 540 q 545 672 589 650 q 429 694 501 694 l 324 694 l 324 200 l 429 200 z "},"Ð":{"ha":986,"x_min":7,"x_max":951,"o":"m 517 894 q 841 787 731 894 q 951 442 951 679 q 841 108 951 215 q 517 0 731 0 l 117 0 l 117 349 l 7 349 l 7 528 l 117 528 l 117 894 l 517 894 m 483 200 q 596 220 553 200 q 662 292 639 240 q 685 442 685 344 q 664 595 685 540 q 599 672 643 650 q 483 694 556 694 l 378 694 l 378 528 l 519 528 l 519 349 l 378 349 l 378 200 l 483 200 z "},"Ď":{"ha":932,"x_min":63,"x_max":897,"o":"m 117 1233 l 311 1233 l 411 1082 l 517 1233 l 706 1233 l 490 956 l 332 956 l 117 1233 m 63 894 l 463 894 q 787 787 676 894 q 897 442 897 679 q 787 108 897 215 q 463 0 676 0 l 63 0 l 63 894 m 429 200 q 542 220 499 200 q 608 292 585 240 q 631 442 631 344 q 610 595 631 540 q 545 672 589 650 q 429 694 501 694 l 324 694 l 324 200 l 429 200 z "},"Đ":{"ha":972,"x_min":-7,"x_max":938,"o":"m 503 894 q 827 787 717 894 q 938 442 938 679 q 827 108 938 215 q 503 0 717 0 l 103 0 l 103 349 l -7 349 l -7 528 l 103 528 l 103 894 l 503 894 m 469 200 q 582 220 539 200 q 648 292 625 240 q 671 442 671 344 q 650 595 671 540 q 585 672 629 650 q 469 694 542 694 l 364 694 l 364 528 l 506 528 l 506 349 l 364 349 l 364 200 l 469 200 z "},"Ḍ":{"ha":932,"x_min":63,"x_max":897,"o":"m 63 894 l 463 894 q 787 787 676 894 q 897 442 897 679 q 787 108 897 215 q 463 0 676 0 l 63 0 l 63 894 m 429 200 q 542 220 499 200 q 608 292 585 240 q 631 442 631 344 q 610 595 631 540 q 545 672 589 650 q 429 694 501 694 l 324 694 l 324 200 l 429 200 m 299 -107 l 479 -107 l 479 -274 l 299 -274 l 299 -107 z "},"Ḏ":{"ha":932,"x_min":63,"x_max":897,"o":"m 63 894 l 463 894 q 787 787 676 894 q 897 442 897 679 q 787 108 897 215 q 463 0 676 0 l 63 0 l 63 894 m 429 200 q 542 220 499 200 q 608 292 585 240 q 631 442 631 344 q 610 595 631 540 q 545 672 589 650 q 429 694 501 694 l 324 694 l 324 200 l 429 200 m 226 -89 l 682 -89 l 682 -244 l 226 -244 l 226 -89 z "},"E":{"ha":761,"x_min":63,"x_max":740,"o":"m 63 894 l 740 894 l 740 694 l 324 694 l 324 549 l 689 549 l 689 346 l 324 346 l 324 200 l 740 200 l 740 0 l 63 0 l 63 894 z "},"É":{"ha":761,"x_min":63,"x_max":740,"o":"m 401 1242 l 604 1242 l 471 956 l 279 956 l 401 1242 m 63 894 l 740 894 l 740 694 l 324 694 l 324 549 l 689 549 l 689 346 l 324 346 l 324 200 l 740 200 l 740 0 l 63 0 l 63 894 z "},"Ĕ":{"ha":761,"x_min":63,"x_max":740,"o":"m 406 957 q 215 1025 286 957 q 143 1217 143 1093 l 313 1217 q 406 1100 313 1100 q 500 1217 500 1100 l 669 1217 q 598 1025 669 1093 q 406 957 526 957 m 63 894 l 740 894 l 740 694 l 324 694 l 324 549 l 689 549 l 689 346 l 324 346 l 324 200 l 740 200 l 740 0 l 63 0 l 63 894 z "},"Ě":{"ha":761,"x_min":63,"x_max":740,"o":"m 117 1233 l 311 1233 l 411 1082 l 517 1233 l 706 1233 l 490 956 l 332 956 l 117 1233 m 63 894 l 740 894 l 740 694 l 324 694 l 324 549 l 689 549 l 689 346 l 324 346 l 324 200 l 740 200 l 740 0 l 63 0 l 63 894 z "},"Ê":{"ha":761,"x_min":63,"x_max":740,"o":"m 324 1233 l 482 1233 l 697 956 l 508 956 l 403 1106 l 303 956 l 108 956 l 324 1233 m 63 894 l 740 894 l 740 694 l 324 694 l 324 549 l 689 549 l 689 346 l 324 346 l 324 200 l 740 200 l 740 0 l 63 0 l 63 894 z "},"Ế":{"ha":761,"x_min":63,"x_max":835,"o":"m 642 1346 l 835 1346 l 726 1129 l 543 1129 l 642 1346 m 278 1167 l 469 1167 l 667 956 l 460 956 l 374 1065 l 288 956 l 81 956 l 278 1167 m 63 894 l 740 894 l 740 694 l 324 694 l 324 549 l 689 549 l 689 346 l 324 346 l 324 200 l 740 200 l 740 0 l 63 0 l 63 894 z "},"Ệ":{"ha":761,"x_min":63,"x_max":740,"o":"m 311 1233 l 469 1233 l 685 956 l 496 956 l 390 1106 l 290 956 l 96 956 l 311 1233 m 63 894 l 740 894 l 740 694 l 324 694 l 324 549 l 689 549 l 689 346 l 324 346 l 324 200 l 740 200 l 740 0 l 63 0 l 63 894 m 300 -78 l 481 -78 l 481 -244 l 300 -244 l 300 -78 z "},"Ề":{"ha":761,"x_min":-68,"x_max":740,"o":"m -68 1346 l 125 1346 l 224 1129 l 40 1129 l -68 1346 m 297 1167 l 489 1167 l 686 956 l 479 956 l 393 1065 l 307 956 l 100 956 l 297 1167 m 63 894 l 740 894 l 740 694 l 324 694 l 324 549 l 689 549 l 689 346 l 324 346 l 324 200 l 740 200 l 740 0 l 63 0 l 63 894 z "},"Ể":{"ha":761,"x_min":63,"x_max":842,"o":"m 567 1199 q 645 1211 624 1200 q 667 1242 667 1222 q 608 1272 667 1272 q 538 1263 574 1272 l 538 1363 q 675 1379 594 1379 q 799 1348 757 1379 q 842 1260 842 1317 q 817 1181 842 1211 q 740 1143 792 1151 l 740 1097 l 567 1097 l 567 1199 m 288 1167 l 479 1167 l 676 956 l 469 956 l 383 1065 l 297 956 l 90 956 l 288 1167 m 63 894 l 740 894 l 740 694 l 324 694 l 324 549 l 689 549 l 689 346 l 324 346 l 324 200 l 740 200 l 740 0 l 63 0 l 63 894 z "},"Ễ":{"ha":761,"x_min":63,"x_max":740,"o":"m 536 1188 q 476 1195 506 1188 q 404 1218 447 1203 q 342 1238 368 1231 q 292 1244 317 1244 q 160 1192 210 1244 l 160 1338 q 214 1369 179 1357 q 288 1382 249 1382 q 345 1375 318 1382 q 415 1353 372 1368 q 478 1332 451 1339 q 532 1325 506 1325 q 606 1340 574 1325 q 656 1379 639 1354 l 656 1232 q 608 1201 642 1214 q 536 1188 575 1188 m 301 1167 l 493 1167 l 690 956 l 483 956 l 397 1065 l 311 956 l 104 956 l 301 1167 m 63 894 l 740 894 l 740 694 l 324 694 l 324 549 l 689 549 l 689 346 l 324 346 l 324 200 l 740 200 l 740 0 l 63 0 l 63 894 z "},"Ë":{"ha":761,"x_min":63,"x_max":740,"o":"m 167 1160 l 349 1160 l 349 993 l 167 993 l 167 1160 m 467 1160 l 649 1160 l 649 993 l 467 993 l 467 1160 m 63 894 l 740 894 l 740 694 l 324 694 l 324 549 l 689 549 l 689 346 l 324 346 l 324 200 l 740 200 l 740 0 l 63 0 l 63 894 z "},"Ė":{"ha":761,"x_min":63,"x_max":740,"o":"m 308 1160 l 489 1160 l 489 993 l 308 993 l 308 1160 m 63 894 l 740 894 l 740 694 l 324 694 l 324 549 l 689 549 l 689 346 l 324 346 l 324 200 l 740 200 l 740 0 l 63 0 l 63 894 z "},"Ẹ":{"ha":761,"x_min":63,"x_max":740,"o":"m 63 894 l 740 894 l 740 694 l 324 694 l 324 549 l 689 549 l 689 346 l 324 346 l 324 200 l 740 200 l 740 0 l 63 0 l 63 894 m 297 -78 l 478 -78 l 478 -244 l 297 -244 l 297 -78 z "},"È":{"ha":761,"x_min":63,"x_max":740,"o":"m 196 1242 l 400 1242 l 522 956 l 331 956 l 196 1242 m 63 894 l 740 894 l 740 694 l 324 694 l 324 549 l 689 549 l 689 346 l 324 346 l 324 200 l 740 200 l 740 0 l 63 0 l 63 894 z "},"Ẻ":{"ha":761,"x_min":63,"x_max":740,"o":"m 296 1067 q 391 1085 364 1071 q 418 1128 418 1100 q 335 1174 418 1174 q 253 1163 297 1174 l 253 1271 q 413 1290 314 1290 q 557 1251 506 1290 q 608 1150 608 1213 q 580 1060 608 1092 q 492 1011 551 1029 l 492 954 l 296 954 l 296 1067 m 63 894 l 740 894 l 740 694 l 324 694 l 324 549 l 689 549 l 689 346 l 324 346 l 324 200 l 740 200 l 740 0 l 63 0 l 63 894 z "},"Ē":{"ha":761,"x_min":63,"x_max":740,"o":"m 160 1161 l 615 1161 l 615 1006 l 160 1006 l 160 1161 m 63 894 l 740 894 l 740 694 l 324 694 l 324 549 l 689 549 l 689 346 l 324 346 l 324 200 l 740 200 l 740 0 l 63 0 l 63 894 z "},"Ę":{"ha":761,"x_min":63,"x_max":740,"o":"m 324 694 l 324 549 l 689 549 l 689 346 l 324 346 l 324 200 l 740 200 l 740 0 l 692 0 q 611 -124 611 -61 q 671 -179 611 -179 q 708 -175 689 -179 q 740 -164 728 -171 l 740 -283 q 678 -299 718 -292 q 599 -306 639 -306 q 465 -272 515 -306 q 415 -171 415 -237 q 443 -75 415 -119 q 518 0 471 -31 l 63 0 l 63 894 l 740 894 l 740 694 l 324 694 z "},"Ẽ":{"ha":761,"x_min":63,"x_max":740,"o":"m 542 967 q 479 974 510 967 q 404 997 449 982 q 340 1018 365 1011 q 290 1025 314 1025 q 154 971 208 1025 l 154 1135 q 211 1167 175 1154 q 286 1181 247 1181 q 344 1174 317 1181 q 415 1151 372 1167 q 481 1130 453 1138 q 538 1122 508 1122 q 612 1138 579 1122 q 663 1178 644 1153 l 663 1013 q 615 980 649 993 q 542 967 581 967 m 63 894 l 740 894 l 740 694 l 324 694 l 324 549 l 689 549 l 689 346 l 324 346 l 324 200 l 740 200 l 740 0 l 63 0 l 63 894 z "},"F":{"ha":742,"x_min":63,"x_max":735,"o":"m 63 894 l 735 894 l 735 700 l 324 700 l 324 546 l 682 546 l 682 349 l 324 349 l 324 0 l 63 0 l 63 894 z "},"G":{"ha":904,"x_min":35,"x_max":869,"o":"m 524 -14 q 160 103 286 -14 q 35 439 35 219 q 165 787 35 665 q 542 908 294 908 q 819 869 701 908 l 819 646 q 560 686 711 686 q 365 627 429 686 q 301 439 301 568 q 356 264 301 319 q 524 208 411 208 q 651 226 590 208 l 651 357 l 474 357 l 474 518 l 869 518 l 869 68 q 726 9 813 32 q 524 -14 639 -14 z "},"Ğ":{"ha":904,"x_min":35,"x_max":869,"o":"m 524 957 q 333 1025 404 957 q 261 1217 261 1093 l 431 1217 q 524 1100 431 1100 q 618 1217 618 1100 l 788 1217 q 716 1025 788 1093 q 524 957 644 957 m 524 -14 q 160 103 286 -14 q 35 439 35 219 q 165 787 35 665 q 542 908 294 908 q 819 869 701 908 l 819 646 q 560 686 711 686 q 365 627 429 686 q 301 439 301 568 q 356 264 301 319 q 524 208 411 208 q 651 226 590 208 l 651 357 l 474 357 l 474 518 l 869 518 l 869 68 q 726 9 813 32 q 524 -14 639 -14 z "},"Ǧ":{"ha":904,"x_min":35,"x_max":869,"o":"m 224 1233 l 418 1233 l 518 1082 l 624 1233 l 813 1233 l 597 956 l 439 956 l 224 1233 m 524 -14 q 160 103 286 -14 q 35 439 35 219 q 165 787 35 665 q 542 908 294 908 q 819 869 701 908 l 819 646 q 560 686 711 686 q 365 627 429 686 q 301 439 301 568 q 356 264 301 319 q 524 208 411 208 q 651 226 590 208 l 651 357 l 474 357 l 474 518 l 869 518 l 869 68 q 726 9 813 32 q 524 -14 639 -14 z "},"Ĝ":{"ha":904,"x_min":35,"x_max":869,"o":"m 426 1233 l 585 1233 l 800 956 l 611 956 l 506 1106 l 406 956 l 211 956 l 426 1233 m 524 -14 q 160 103 286 -14 q 35 439 35 219 q 165 787 35 665 q 542 908 294 908 q 819 869 701 908 l 819 646 q 560 686 711 686 q 365 627 429 686 q 301 439 301 568 q 356 264 301 319 q 524 208 411 208 q 651 226 590 208 l 651 357 l 474 357 l 474 518 l 869 518 l 869 68 q 726 9 813 32 q 524 -14 639 -14 z "},"Ģ":{"ha":904,"x_min":35,"x_max":869,"o":"m 524 -14 q 160 103 286 -14 q 35 439 35 219 q 165 787 35 665 q 542 908 294 908 q 819 869 701 908 l 819 646 q 560 686 711 686 q 365 627 429 686 q 301 439 301 568 q 356 264 301 319 q 524 208 411 208 q 651 226 590 208 l 651 357 l 474 357 l 474 518 l 869 518 l 869 68 q 726 9 813 32 q 524 -14 639 -14 m 432 -51 l 644 -51 l 565 -364 l 385 -364 l 432 -51 z "},"Ġ":{"ha":904,"x_min":35,"x_max":869,"o":"m 446 1160 l 626 1160 l 626 993 l 446 993 l 446 1160 m 524 -14 q 160 103 286 -14 q 35 439 35 219 q 165 787 35 665 q 542 908 294 908 q 819 869 701 908 l 819 646 q 560 686 711 686 q 365 627 429 686 q 301 439 301 568 q 356 264 301 319 q 524 208 411 208 q 651 226 590 208 l 651 357 l 474 357 l 474 518 l 869 518 l 869 68 q 726 9 813 32 q 524 -14 639 -14 z "},"Ḡ":{"ha":904,"x_min":35,"x_max":869,"o":"m 296 1151 l 751 1151 l 751 996 l 296 996 l 296 1151 m 524 -14 q 160 103 286 -14 q 35 439 35 219 q 165 787 35 665 q 542 908 294 908 q 819 869 701 908 l 819 646 q 560 686 711 686 q 365 627 429 686 q 301 439 301 568 q 356 264 301 319 q 524 208 411 208 q 651 226 590 208 l 651 357 l 474 357 l 474 518 l 869 518 l 869 68 q 726 9 813 32 q 524 -14 639 -14 z "},"H":{"ha":956,"x_min":63,"x_max":893,"o":"m 63 894 l 324 894 l 324 561 l 632 561 l 632 894 l 893 894 l 893 0 l 632 0 l 632 333 l 324 333 l 324 0 l 63 0 l 63 894 z "},"Ħ":{"ha":956,"x_min":7,"x_max":949,"o":"m 949 636 l 893 636 l 893 0 l 632 0 l 632 333 l 324 333 l 324 0 l 63 0 l 63 636 l 7 636 l 7 810 l 63 810 l 63 894 l 324 894 l 324 810 l 632 810 l 632 894 l 893 894 l 893 810 l 949 810 l 949 636 m 632 636 l 324 636 l 324 561 l 632 561 l 632 636 z "},"Ḫ":{"ha":956,"x_min":63,"x_max":893,"o":"m 63 894 l 324 894 l 324 561 l 632 561 l 632 894 l 893 894 l 893 0 l 632 0 l 632 333 l 324 333 l 324 0 l 63 0 l 63 894 m 479 -329 q 288 -261 360 -329 q 217 -69 217 -193 l 386 -69 q 479 -186 386 -186 q 574 -69 574 -186 l 743 -69 q 672 -261 743 -193 q 479 -329 600 -329 z "},"Ĥ":{"ha":956,"x_min":63,"x_max":893,"o":"m 399 1233 l 557 1233 l 772 956 l 583 956 l 478 1106 l 378 956 l 183 956 l 399 1233 m 63 894 l 324 894 l 324 561 l 632 561 l 632 894 l 893 894 l 893 0 l 632 0 l 632 333 l 324 333 l 324 0 l 63 0 l 63 894 z "},"Ḥ":{"ha":956,"x_min":63,"x_max":893,"o":"m 63 894 l 324 894 l 324 561 l 632 561 l 632 894 l 893 894 l 893 0 l 632 0 l 632 333 l 324 333 l 324 0 l 63 0 l 63 894 m 389 -107 l 569 -107 l 569 -274 l 389 -274 l 389 -107 z "},"I":{"ha":386,"x_min":63,"x_max":324,"o":"m 63 894 l 324 894 l 324 0 l 63 0 l 63 894 z "},"Ĳ":{"ha":999,"x_min":63,"x_max":943,"o":"m 63 894 l 324 894 l 324 0 l 63 0 l 63 894 m 597 -14 q 385 18 476 -14 l 385 235 q 543 207 453 207 q 650 238 618 207 q 682 339 682 268 l 682 894 l 943 894 l 943 297 q 853 68 943 150 q 597 -14 764 -14 z "},"Í":{"ha":386,"x_min":63,"x_max":415,"o":"m 213 1242 l 415 1242 l 282 956 l 90 956 l 213 1242 m 63 894 l 324 894 l 324 0 l 63 0 l 63 894 z "},"Ĭ":{"ha":386,"x_min":-69,"x_max":457,"o":"m 193 985 q 2 1053 74 985 q -69 1244 -69 1121 l 100 1244 q 193 1128 100 1128 q 288 1244 288 1128 l 457 1244 q 385 1053 457 1121 q 193 985 314 985 m 63 894 l 324 894 l 324 0 l 63 0 l 63 894 z "},"Ǐ":{"ha":386,"x_min":-101,"x_max":488,"o":"m -101 1233 l 93 1233 l 193 1082 l 299 1233 l 488 1233 l 272 956 l 114 956 l -101 1233 m 63 894 l 324 894 l 324 0 l 63 0 l 63 894 z "},"Î":{"ha":386,"x_min":-101,"x_max":488,"o":"m 114 1233 l 272 1233 l 488 956 l 299 956 l 193 1106 l 93 956 l -101 956 l 114 1233 m 63 894 l 324 894 l 324 0 l 63 0 l 63 894 z "},"Ï":{"ha":386,"x_min":-47,"x_max":435,"o":"m -47 1169 l 135 1169 l 135 1003 l -47 1003 l -47 1169 m 253 1169 l 435 1169 l 435 1003 l 253 1003 l 253 1169 m 63 894 l 324 894 l 324 0 l 63 0 l 63 894 z "},"İ":{"ha":386,"x_min":63,"x_max":324,"o":"m 103 1169 l 283 1169 l 283 1003 l 103 1003 l 103 1169 m 63 894 l 324 894 l 324 0 l 63 0 l 63 894 z "},"Ị":{"ha":386,"x_min":63,"x_max":324,"o":"m 63 894 l 324 894 l 324 0 l 63 0 l 63 894 m 103 -78 l 283 -78 l 283 -244 l 103 -244 l 103 -78 z "},"Ì":{"ha":386,"x_min":-33,"x_max":324,"o":"m -33 1242 l 171 1242 l 293 956 l 101 956 l -33 1242 m 63 894 l 324 894 l 324 0 l 63 0 l 63 894 z "},"Ỉ":{"ha":386,"x_min":42,"x_max":397,"o":"m 85 1068 q 180 1087 153 1072 q 207 1129 207 1101 q 124 1175 207 1175 q 42 1164 86 1175 l 42 1272 q 201 1292 103 1292 q 346 1253 294 1292 q 397 1151 397 1214 q 369 1062 397 1093 q 281 1013 340 1031 l 281 956 l 85 956 l 85 1068 m 63 894 l 324 894 l 324 0 l 63 0 l 63 894 z "},"Ī":{"ha":386,"x_min":-35,"x_max":421,"o":"m -35 1161 l 421 1161 l 421 1006 l -35 1006 l -35 1161 m 63 894 l 324 894 l 324 0 l 63 0 l 63 894 z "},"Į":{"ha":386,"x_min":4,"x_max":329,"o":"m 260 -179 q 297 -175 278 -179 q 329 -164 317 -171 l 329 -283 q 267 -299 307 -292 q 188 -306 228 -306 q 54 -272 104 -306 q 4 -171 4 -237 q 32 -75 4 -119 q 107 0 60 -31 l 63 0 l 63 894 l 324 894 l 324 0 l 281 0 q 200 -124 200 -61 q 260 -179 200 -179 z "},"Ĩ":{"ha":386,"x_min":-61,"x_max":447,"o":"m 326 988 q 264 995 294 988 q 189 1018 233 1003 q 124 1039 150 1032 q 75 1046 99 1046 q -61 992 -7 1046 l -61 1156 q -4 1188 -40 1175 q 71 1201 32 1201 q 129 1194 101 1201 q 200 1172 157 1188 q 265 1151 238 1158 q 322 1143 293 1143 q 397 1158 364 1143 q 447 1199 429 1174 l 447 1033 q 399 1001 433 1014 q 326 988 365 988 m 63 894 l 324 894 l 324 0 l 63 0 l 63 894 z "},"J":{"ha":621,"x_min":7,"x_max":565,"o":"m 219 -14 q 7 18 99 -14 l 7 235 q 165 207 75 207 q 272 238 240 207 q 304 339 304 268 l 304 894 l 565 894 l 565 297 q 476 68 565 150 q 219 -14 386 -14 z "},"Ĵ":{"ha":621,"x_min":7,"x_max":714,"o":"m 340 1233 l 499 1233 l 714 956 l 525 956 l 419 1106 l 319 956 l 125 956 l 340 1233 m 219 -14 q 7 18 99 -14 l 7 235 q 165 207 75 207 q 272 238 240 207 q 304 339 304 268 l 304 894 l 565 894 l 565 297 q 476 68 565 150 q 219 -14 386 -14 z "},"K":{"ha":949,"x_min":63,"x_max":914,"o":"m 63 894 l 324 894 l 324 579 l 594 894 l 892 894 l 576 528 l 914 0 l 636 0 l 415 361 l 324 258 l 324 0 l 63 0 l 63 894 z "},"Ķ":{"ha":949,"x_min":63,"x_max":914,"o":"m 63 894 l 324 894 l 324 579 l 594 894 l 892 894 l 576 528 l 914 0 l 636 0 l 415 361 l 324 258 l 324 0 l 63 0 l 63 894 m 376 -51 l 589 -51 l 510 -364 l 329 -364 l 376 -51 z "},"L":{"ha":733,"x_min":63,"x_max":726,"o":"m 63 894 l 324 894 l 324 200 l 726 200 l 726 0 l 63 0 l 63 894 z "},"Ĺ":{"ha":733,"x_min":63,"x_max":726,"o":"m 213 1242 l 415 1242 l 282 956 l 90 956 l 213 1242 m 63 894 l 324 894 l 324 200 l 726 200 l 726 0 l 63 0 l 63 894 z "},"Ľ":{"ha":733,"x_min":63,"x_max":726,"o":"m 451 1182 l 664 1182 l 585 869 l 404 869 l 451 1182 m 63 894 l 324 894 l 324 200 l 726 200 l 726 0 l 63 0 l 63 894 z "},"Ļ":{"ha":733,"x_min":63,"x_max":726,"o":"m 63 894 l 324 894 l 324 200 l 726 200 l 726 0 l 63 0 l 63 894 m 311 -51 l 524 -51 l 444 -364 l 264 -364 l 311 -51 z "},"Ŀ":{"ha":733,"x_min":63,"x_max":726,"o":"m 63 894 l 324 894 l 324 200 l 726 200 l 726 0 l 63 0 l 63 894 m 506 572 l 686 572 l 686 406 l 506 406 l 506 572 z "},"Ḷ":{"ha":733,"x_min":63,"x_max":726,"o":"m 63 894 l 324 894 l 324 200 l 726 200 l 726 0 l 63 0 l 63 894 m 294 -78 l 475 -78 l 475 -244 l 294 -244 l 294 -78 z "},"Ḹ":{"ha":733,"x_min":-32,"x_max":726,"o":"m -32 1151 l 424 1151 l 424 996 l -32 996 l -32 1151 m 63 894 l 324 894 l 324 200 l 726 200 l 726 0 l 63 0 l 63 894 m 294 -78 l 475 -78 l 475 -244 l 294 -244 l 294 -78 z "},"Ḻ":{"ha":733,"x_min":63,"x_max":726,"o":"m 63 894 l 324 894 l 324 200 l 726 200 l 726 0 l 63 0 l 63 894 m 164 -89 l 619 -89 l 619 -244 l 164 -244 l 164 -89 z "},"Ł":{"ha":733,"x_min":-49,"x_max":726,"o":"m 726 200 l 726 0 l 63 0 l 63 335 l -49 286 l -49 471 l 63 519 l 63 894 l 324 894 l 324 633 l 443 686 l 443 501 l 324 449 l 324 200 l 726 200 z "},"M":{"ha":1075,"x_min":63,"x_max":1013,"o":"m 63 894 l 317 894 l 539 440 l 760 894 l 1013 894 l 1013 0 l 751 0 l 751 447 l 608 153 l 468 153 l 324 447 l 324 0 l 63 0 l 63 894 z "},"Ṃ":{"ha":1075,"x_min":63,"x_max":1013,"o":"m 63 894 l 317 894 l 539 440 l 760 894 l 1013 894 l 1013 0 l 751 0 l 751 447 l 608 153 l 468 153 l 324 447 l 324 0 l 63 0 l 63 894 m 449 -78 l 629 -78 l 629 -244 l 449 -244 l 449 -78 z "},"N":{"ha":946,"x_min":63,"x_max":883,"o":"m 63 894 l 285 894 l 622 421 l 622 894 l 883 894 l 883 0 l 660 0 l 324 472 l 324 0 l 63 0 l 63 894 z "},"Ń":{"ha":946,"x_min":63,"x_max":883,"o":"m 469 1242 l 672 1242 l 539 956 l 347 956 l 469 1242 m 63 894 l 285 894 l 622 421 l 622 894 l 883 894 l 883 0 l 660 0 l 324 472 l 324 0 l 63 0 l 63 894 z "},"Ň":{"ha":946,"x_min":63,"x_max":883,"o":"m 176 1233 l 371 1233 l 471 1082 l 576 1233 l 765 1233 l 550 956 l 392 956 l 176 1233 m 63 894 l 285 894 l 622 421 l 622 894 l 883 894 l 883 0 l 660 0 l 324 472 l 324 0 l 63 0 l 63 894 z "},"Ņ":{"ha":946,"x_min":63,"x_max":883,"o":"m 63 894 l 285 894 l 622 421 l 622 894 l 883 894 l 883 0 l 660 0 l 324 472 l 324 0 l 63 0 l 63 894 m 382 -51 l 594 -51 l 515 -364 l 335 -364 l 382 -51 z "},"Ṅ":{"ha":946,"x_min":63,"x_max":883,"o":"m 381 1160 l 561 1160 l 561 993 l 381 993 l 381 1160 m 63 894 l 285 894 l 622 421 l 622 894 l 883 894 l 883 0 l 660 0 l 324 472 l 324 0 l 63 0 l 63 894 z "},"Ṇ":{"ha":946,"x_min":63,"x_max":883,"o":"m 63 894 l 285 894 l 622 421 l 622 894 l 883 894 l 883 0 l 660 0 l 324 472 l 324 0 l 63 0 l 63 894 m 383 -78 l 564 -78 l 564 -244 l 383 -244 l 383 -78 z "},"Ŋ":{"ha":946,"x_min":63,"x_max":883,"o":"m 629 -325 q 451 -294 525 -325 l 451 -125 q 535 -139 493 -139 q 600 -120 579 -139 q 621 -64 621 -101 l 621 54 l 324 472 l 324 0 l 63 0 l 63 894 l 285 894 l 621 421 l 621 894 l 883 894 l 883 -83 q 820 -260 883 -194 q 629 -325 757 -325 z "},"Ṉ":{"ha":946,"x_min":63,"x_max":883,"o":"m 63 894 l 285 894 l 622 421 l 622 894 l 883 894 l 883 0 l 660 0 l 324 472 l 324 0 l 63 0 l 63 894 m 254 -87 l 710 -87 l 710 -243 l 254 -243 l 254 -87 z "},"Ñ":{"ha":946,"x_min":63,"x_max":883,"o":"m 621 967 q 558 974 589 967 q 483 997 528 982 q 419 1018 444 1011 q 369 1025 393 1025 q 233 971 288 1025 l 233 1135 q 290 1167 254 1154 q 365 1181 326 1181 q 424 1174 396 1181 q 494 1151 451 1167 q 560 1130 532 1138 q 617 1122 588 1122 q 691 1138 658 1122 q 742 1178 724 1153 l 742 1013 q 694 980 728 993 q 621 967 660 967 m 63 894 l 285 894 l 622 421 l 622 894 l 883 894 l 883 0 l 660 0 l 324 472 l 324 0 l 63 0 l 63 894 z "},"O":{"ha":983,"x_min":35,"x_max":949,"o":"m 492 -14 q 150 97 265 -14 q 35 444 35 207 q 149 799 35 689 q 492 908 264 908 q 834 798 719 908 q 949 444 949 688 q 833 97 949 208 q 492 -14 718 -14 m 492 208 q 637 265 592 208 q 682 444 682 321 q 638 631 682 575 q 492 686 593 686 q 346 631 390 686 q 301 444 301 575 q 347 265 301 321 q 492 208 392 208 z "},"Ó":{"ha":983,"x_min":35,"x_max":949,"o":"m 500 1242 l 703 1242 l 569 956 l 378 956 l 500 1242 m 492 -14 q 150 97 265 -14 q 35 444 35 207 q 149 799 35 689 q 492 908 264 908 q 834 798 719 908 q 949 444 949 688 q 833 97 949 208 q 492 -14 718 -14 m 492 208 q 637 265 592 208 q 682 444 682 321 q 638 631 682 575 q 492 686 593 686 q 346 631 390 686 q 301 444 301 575 q 347 265 301 321 q 492 208 392 208 z "},"Ŏ":{"ha":983,"x_min":35,"x_max":949,"o":"m 492 956 q 301 1024 372 956 q 229 1215 229 1092 l 399 1215 q 492 1099 399 1099 q 586 1215 586 1099 l 756 1215 q 684 1024 756 1092 q 492 956 613 956 m 492 -14 q 150 97 265 -14 q 35 444 35 207 q 149 799 35 689 q 492 908 264 908 q 834 798 719 908 q 949 444 949 688 q 833 97 949 208 q 492 -14 718 -14 m 492 208 q 637 265 592 208 q 682 444 682 321 q 638 631 682 575 q 492 686 593 686 q 346 631 390 686 q 301 444 301 575 q 347 265 301 321 q 492 208 392 208 z "},"Ǒ":{"ha":983,"x_min":35,"x_max":949,"o":"m 197 1233 l 392 1233 l 492 1082 l 597 1233 l 786 1233 l 571 956 l 413 956 l 197 1233 m 492 -14 q 150 97 265 -14 q 35 444 35 207 q 149 799 35 689 q 492 908 264 908 q 834 798 719 908 q 949 444 949 688 q 833 97 949 208 q 492 -14 718 -14 m 492 208 q 637 265 592 208 q 682 444 682 321 q 638 631 682 575 q 492 686 593 686 q 346 631 390 686 q 301 444 301 575 q 347 265 301 321 q 492 208 392 208 z "},"Ô":{"ha":983,"x_min":35,"x_max":949,"o":"m 414 1233 l 572 1233 l 788 956 l 599 956 l 493 1106 l 393 956 l 199 956 l 414 1233 m 492 -14 q 150 97 265 -14 q 35 444 35 207 q 149 799 35 689 q 492 908 264 908 q 834 798 719 908 q 949 444 949 688 q 833 97 949 208 q 492 -14 718 -14 m 492 208 q 637 265 592 208 q 682 444 682 321 q 638 631 682 575 q 492 686 593 686 q 346 631 390 686 q 301 444 301 575 q 347 265 301 321 q 492 208 392 208 z "},"Ố":{"ha":983,"x_min":35,"x_max":949,"o":"m 754 1346 l 947 1346 l 839 1129 l 656 1129 l 754 1346 m 390 1167 l 582 1167 l 779 956 l 572 956 l 486 1065 l 400 956 l 193 956 l 390 1167 m 492 -14 q 150 97 265 -14 q 35 444 35 207 q 149 799 35 689 q 492 908 264 908 q 834 798 719 908 q 949 444 949 688 q 833 97 949 208 q 492 -14 718 -14 m 492 208 q 637 265 592 208 q 682 444 682 321 q 638 631 682 575 q 492 686 593 686 q 346 631 390 686 q 301 444 301 575 q 347 265 301 321 q 492 208 392 208 z "},"Ộ":{"ha":983,"x_min":35,"x_max":949,"o":"m 413 1233 l 571 1233 l 786 956 l 597 956 l 492 1106 l 392 956 l 197 956 l 413 1233 m 492 -14 q 150 97 265 -14 q 35 444 35 207 q 149 799 35 689 q 492 908 264 908 q 834 798 719 908 q 949 444 949 688 q 833 97 949 208 q 492 -14 718 -14 m 492 208 q 637 265 592 208 q 682 444 682 321 q 638 631 682 575 q 492 686 593 686 q 346 631 390 686 q 301 444 301 575 q 347 265 301 321 q 492 208 392 208 m 400 -78 l 581 -78 l 581 -244 l 400 -244 l 400 -78 z "},"Ồ":{"ha":983,"x_min":35,"x_max":949,"o":"m 35 1346 l 228 1346 l 326 1129 l 143 1129 l 35 1346 m 400 1167 l 592 1167 l 789 956 l 582 956 l 496 1065 l 410 956 l 203 956 l 400 1167 m 492 -14 q 150 97 265 -14 q 35 444 35 207 q 149 799 35 689 q 492 908 264 908 q 834 798 719 908 q 949 444 949 688 q 833 97 949 208 q 492 -14 718 -14 m 492 208 q 637 265 592 208 q 682 444 682 321 q 638 631 682 575 q 492 686 593 686 q 346 631 390 686 q 301 444 301 575 q 347 265 301 321 q 492 208 392 208 z "},"Ổ":{"ha":983,"x_min":35,"x_max":951,"o":"m 676 1199 q 755 1211 733 1200 q 776 1242 776 1222 q 718 1272 776 1272 q 647 1263 683 1272 l 647 1363 q 785 1379 704 1379 q 909 1348 867 1379 q 951 1260 951 1317 q 926 1181 951 1211 q 850 1143 901 1151 l 850 1097 l 676 1097 l 676 1199 m 397 1167 l 589 1167 l 786 956 l 579 956 l 493 1065 l 407 956 l 200 956 l 397 1167 m 492 -14 q 150 97 265 -14 q 35 444 35 207 q 149 799 35 689 q 492 908 264 908 q 834 798 719 908 q 949 444 949 688 q 833 97 949 208 q 492 -14 718 -14 m 492 208 q 637 265 592 208 q 682 444 682 321 q 638 631 682 575 q 492 686 593 686 q 346 631 390 686 q 301 444 301 575 q 347 265 301 321 q 492 208 392 208 z "},"Ỗ":{"ha":983,"x_min":35,"x_max":949,"o":"m 624 1219 q 564 1227 593 1219 q 492 1250 535 1235 q 430 1269 456 1263 q 379 1276 404 1276 q 247 1224 297 1276 l 247 1365 q 301 1397 267 1385 q 375 1410 336 1410 q 433 1403 406 1410 q 503 1381 460 1396 q 566 1360 539 1367 q 619 1353 593 1353 q 694 1367 661 1353 q 743 1407 726 1382 l 743 1264 q 696 1233 729 1246 q 624 1219 663 1219 m 492 956 q 308 1015 375 956 q 240 1194 240 1074 l 386 1194 q 413 1113 386 1143 q 492 1083 440 1083 q 571 1113 543 1083 q 599 1194 599 1143 l 744 1194 q 676 1015 744 1074 q 492 956 608 956 m 492 -14 q 150 97 265 -14 q 35 444 35 207 q 149 799 35 689 q 492 908 264 908 q 834 798 719 908 q 949 444 949 688 q 833 97 949 208 q 492 -14 718 -14 m 492 208 q 637 265 592 208 q 682 444 682 321 q 638 631 682 575 q 492 686 593 686 q 346 631 390 686 q 301 444 301 575 q 347 265 301 321 q 492 208 392 208 z "},"Ö":{"ha":983,"x_min":35,"x_max":949,"o":"m 251 1160 l 433 1160 l 433 993 l 251 993 l 251 1160 m 551 1160 l 733 1160 l 733 993 l 551 993 l 551 1160 m 492 -14 q 150 97 265 -14 q 35 444 35 207 q 149 799 35 689 q 492 908 264 908 q 834 798 719 908 q 949 444 949 688 q 833 97 949 208 q 492 -14 718 -14 m 492 208 q 637 265 592 208 q 682 444 682 321 q 638 631 682 575 q 492 686 593 686 q 346 631 390 686 q 301 444 301 575 q 347 265 301 321 q 492 208 392 208 z "},"Ọ":{"ha":983,"x_min":35,"x_max":949,"o":"m 492 -14 q 150 97 265 -14 q 35 444 35 207 q 149 799 35 689 q 492 908 264 908 q 834 798 719 908 q 949 444 949 688 q 833 97 949 208 q 492 -14 718 -14 m 492 208 q 637 265 592 208 q 682 444 682 321 q 638 631 682 575 q 492 686 593 686 q 346 631 390 686 q 301 444 301 575 q 347 265 301 321 q 492 208 392 208 m 401 -78 l 582 -78 l 582 -244 l 401 -244 l 401 -78 z "},"Ò":{"ha":983,"x_min":35,"x_max":949,"o":"m 269 1242 l 474 1242 l 596 956 l 404 956 l 269 1242 m 492 -14 q 150 97 265 -14 q 35 444 35 207 q 149 799 35 689 q 492 908 264 908 q 834 798 719 908 q 949 444 949 688 q 833 97 949 208 q 492 -14 718 -14 m 492 208 q 637 265 592 208 q 682 444 682 321 q 638 631 682 575 q 492 686 593 686 q 346 631 390 686 q 301 444 301 575 q 347 265 301 321 q 492 208 392 208 z "},"Ỏ":{"ha":983,"x_min":35,"x_max":949,"o":"m 385 1068 q 480 1087 453 1072 q 507 1129 507 1101 q 424 1175 507 1175 q 342 1164 386 1175 l 342 1272 q 501 1292 403 1292 q 646 1253 594 1292 q 697 1151 697 1214 q 669 1062 697 1093 q 581 1013 640 1031 l 581 956 l 385 956 l 385 1068 m 492 -14 q 150 97 265 -14 q 35 444 35 207 q 149 799 35 689 q 492 908 264 908 q 834 798 719 908 q 949 444 949 688 q 833 97 949 208 q 492 -14 718 -14 m 492 208 q 637 265 592 208 q 682 444 682 321 q 638 631 682 575 q 492 686 593 686 q 346 631 390 686 q 301 444 301 575 q 347 265 301 321 q 492 208 392 208 z "},"Ơ":{"ha":1097,"x_min":35,"x_max":1104,"o":"m 492 -14 q 150 97 265 -14 q 35 444 35 207 q 149 799 35 689 q 492 908 264 908 q 803 819 693 908 q 893 852 867 822 q 919 956 919 882 l 1104 956 q 1060 751 1104 819 q 915 663 1015 683 q 949 444 949 575 q 833 97 949 208 q 492 -14 718 -14 m 492 208 q 637 265 592 208 q 682 444 682 321 q 638 631 682 575 q 492 686 593 686 q 346 631 390 686 q 301 444 301 575 q 347 265 301 321 q 492 208 392 208 z "},"Ớ":{"ha":1097,"x_min":35,"x_max":1104,"o":"m 510 1242 l 713 1242 l 579 956 l 388 956 l 510 1242 m 492 -14 q 150 97 265 -14 q 35 444 35 207 q 149 799 35 689 q 492 908 264 908 q 803 819 693 908 q 893 852 867 822 q 919 956 919 882 l 1104 956 q 1060 751 1104 819 q 915 663 1015 683 q 949 444 949 575 q 833 97 949 208 q 492 -14 718 -14 m 492 208 q 637 265 592 208 q 682 444 682 321 q 638 631 682 575 q 492 686 593 686 q 346 631 390 686 q 301 444 301 575 q 347 265 301 321 q 492 208 392 208 z "},"Ợ":{"ha":1097,"x_min":35,"x_max":1104,"o":"m 492 -14 q 150 97 265 -14 q 35 444 35 207 q 149 799 35 689 q 492 908 264 908 q 803 819 693 908 q 893 852 867 822 q 919 956 919 882 l 1104 956 q 1060 751 1104 819 q 915 663 1015 683 q 949 444 949 575 q 833 97 949 208 q 492 -14 718 -14 m 492 208 q 637 265 592 208 q 682 444 682 321 q 638 631 682 575 q 492 686 593 686 q 346 631 390 686 q 301 444 301 575 q 347 265 301 321 q 492 208 392 208 m 400 -78 l 581 -78 l 581 -244 l 400 -244 l 400 -78 z "},"Ờ":{"ha":1097,"x_min":35,"x_max":1104,"o":"m 272 1242 l 476 1242 l 599 956 l 407 956 l 272 1242 m 492 -14 q 150 97 265 -14 q 35 444 35 207 q 149 799 35 689 q 492 908 264 908 q 803 819 693 908 q 893 852 867 822 q 919 956 919 882 l 1104 956 q 1060 751 1104 819 q 915 663 1015 683 q 949 444 949 575 q 833 97 949 208 q 492 -14 718 -14 m 492 208 q 637 265 592 208 q 682 444 682 321 q 638 631 682 575 q 492 686 593 686 q 346 631 390 686 q 301 444 301 575 q 347 265 301 321 q 492 208 392 208 z "},"Ở":{"ha":1097,"x_min":35,"x_max":1104,"o":"m 389 1068 q 484 1087 457 1072 q 511 1129 511 1101 q 428 1175 511 1175 q 346 1164 390 1175 l 346 1272 q 506 1292 407 1292 q 650 1253 599 1292 q 701 1151 701 1214 q 673 1062 701 1093 q 585 1013 644 1031 l 585 956 l 389 956 l 389 1068 m 492 -14 q 150 97 265 -14 q 35 444 35 207 q 149 799 35 689 q 492 908 264 908 q 803 819 693 908 q 893 852 867 822 q 919 956 919 882 l 1104 956 q 1060 751 1104 819 q 915 663 1015 683 q 949 444 949 575 q 833 97 949 208 q 492 -14 718 -14 m 492 208 q 637 265 592 208 q 682 444 682 321 q 638 631 682 575 q 492 686 593 686 q 346 631 390 686 q 301 444 301 575 q 347 265 301 321 q 492 208 392 208 z "},"Ỡ":{"ha":1097,"x_min":35,"x_max":1104,"o":"m 628 961 q 565 969 596 961 q 490 992 535 976 q 426 1013 451 1006 q 376 1019 400 1019 q 240 965 294 1019 l 240 1129 q 297 1162 261 1149 q 372 1175 333 1175 q 431 1168 403 1175 q 501 1146 458 1161 q 567 1124 539 1132 q 624 1117 594 1117 q 698 1132 665 1117 q 749 1172 731 1147 l 749 1007 q 701 974 735 988 q 628 961 667 961 m 492 -14 q 150 97 265 -14 q 35 444 35 207 q 149 799 35 689 q 492 908 264 908 q 803 819 693 908 q 893 852 867 822 q 919 956 919 882 l 1104 956 q 1060 751 1104 819 q 915 663 1015 683 q 949 444 949 575 q 833 97 949 208 q 492 -14 718 -14 m 492 208 q 637 265 592 208 q 682 444 682 321 q 638 631 682 575 q 492 686 593 686 q 346 631 390 686 q 301 444 301 575 q 347 265 301 321 q 492 208 392 208 z "},"Ő":{"ha":983,"x_min":35,"x_max":949,"o":"m 318 1211 l 538 1211 l 396 956 l 199 956 l 318 1211 m 643 1211 l 863 1211 l 721 956 l 524 956 l 643 1211 m 492 -14 q 150 97 265 -14 q 35 444 35 207 q 149 799 35 689 q 492 908 264 908 q 834 798 719 908 q 949 444 949 688 q 833 97 949 208 q 492 -14 718 -14 m 492 208 q 637 265 592 208 q 682 444 682 321 q 638 631 682 575 q 492 686 593 686 q 346 631 390 686 q 301 444 301 575 q 347 265 301 321 q 492 208 392 208 z "},"Ō":{"ha":983,"x_min":35,"x_max":949,"o":"m 263 1163 l 718 1163 l 718 1007 l 263 1007 l 263 1163 m 492 -14 q 150 97 265 -14 q 35 444 35 207 q 149 799 35 689 q 492 908 264 908 q 834 798 719 908 q 949 444 949 688 q 833 97 949 208 q 492 -14 718 -14 m 492 208 q 637 265 592 208 q 682 444 682 321 q 638 631 682 575 q 492 686 593 686 q 346 631 390 686 q 301 444 301 575 q 347 265 301 321 q 492 208 392 208 z "},"Ø":{"ha":983,"x_min":35,"x_max":949,"o":"m 250 29 q 35 444 35 125 q 149 799 35 689 q 492 908 264 908 q 594 901 542 908 l 618 963 l 760 963 l 722 869 q 892 719 835 824 q 949 444 949 615 q 833 97 949 208 q 492 -14 718 -14 q 378 -6 431 -14 l 351 -74 l 210 -74 l 250 29 m 508 685 l 492 686 q 346 631 390 686 q 301 444 301 575 q 344 267 301 324 l 508 685 m 492 208 q 637 265 592 208 q 682 444 682 321 q 631 638 682 581 l 463 210 q 492 208 472 208 z "},"Ǿ":{"ha":983,"x_min":35,"x_max":949,"o":"m 464 1242 l 667 1242 l 533 956 l 342 956 l 464 1242 m 250 29 q 35 444 35 125 q 149 799 35 689 q 492 908 264 908 q 594 901 542 908 l 618 963 l 760 963 l 722 869 q 892 719 835 824 q 949 444 949 615 q 833 97 949 208 q 492 -14 718 -14 q 378 -6 431 -14 l 351 -74 l 210 -74 l 250 29 m 508 685 l 492 686 q 346 631 390 686 q 301 444 301 575 q 344 267 301 324 l 508 685 m 492 208 q 637 265 592 208 q 682 444 682 321 q 631 638 682 581 l 463 210 q 492 208 472 208 z "},"Õ":{"ha":983,"x_min":35,"x_max":949,"o":"m 626 988 q 564 995 594 988 q 489 1018 533 1003 q 424 1039 450 1032 q 375 1046 399 1046 q 239 992 293 1046 l 239 1156 q 296 1188 260 1175 q 371 1201 332 1201 q 429 1194 401 1201 q 500 1172 457 1188 q 565 1151 538 1158 q 622 1143 593 1143 q 697 1158 664 1143 q 747 1199 729 1174 l 747 1033 q 699 1001 733 1014 q 626 988 665 988 m 492 -14 q 150 97 265 -14 q 35 444 35 207 q 149 799 35 689 q 492 908 264 908 q 834 798 719 908 q 949 444 949 688 q 833 97 949 208 q 492 -14 718 -14 m 492 208 q 637 265 592 208 q 682 444 682 321 q 638 631 682 575 q 492 686 593 686 q 346 631 390 686 q 301 444 301 575 q 347 265 301 321 q 492 208 392 208 z "},"Œ":{"ha":1394,"x_min":35,"x_max":1360,"o":"m 943 694 l 943 549 l 1308 549 l 1308 346 l 943 346 l 943 200 l 1360 200 l 1360 0 l 682 0 l 682 11 q 492 -14 599 -14 q 150 97 265 -14 q 35 444 35 207 q 149 799 35 689 q 492 908 264 908 q 682 885 596 908 l 682 894 l 1360 894 l 1360 694 l 943 694 m 492 208 q 637 265 592 208 q 682 444 682 321 q 638 631 682 575 q 492 686 593 686 q 346 631 390 686 q 301 444 301 575 q 347 265 301 321 q 492 208 392 208 z "},"P":{"ha":853,"x_min":63,"x_max":846,"o":"m 63 894 l 524 894 q 764 803 682 894 q 846 565 846 711 q 806 397 846 471 q 691 282 765 324 q 518 240 617 240 l 324 240 l 324 0 l 63 0 l 63 894 m 458 440 q 548 474 517 440 q 579 565 579 508 q 551 660 579 626 q 465 694 522 694 l 324 694 l 324 440 l 458 440 z "},"Þ":{"ha":853,"x_min":63,"x_max":846,"o":"m 63 894 l 324 894 l 324 768 l 524 768 q 764 679 682 768 q 846 446 846 590 q 806 278 846 351 q 691 165 765 206 q 518 125 617 125 l 324 125 l 324 0 l 63 0 l 63 894 m 458 325 q 549 357 518 325 q 581 446 581 389 q 465 568 581 568 l 324 568 l 324 325 l 458 325 z "},"Q":{"ha":983,"x_min":35,"x_max":949,"o":"m 656 -239 q 456 -183 517 -239 q 394 -8 396 -126 q 125 124 215 13 q 35 444 35 235 q 149 799 35 689 q 492 908 264 908 q 834 798 719 908 q 949 444 949 688 q 860 127 949 238 q 599 -7 772 17 q 615 -63 599 -49 q 667 -78 631 -78 q 754 -64 708 -78 l 754 -225 q 656 -239 708 -239 m 492 208 q 637 265 592 208 q 682 444 682 321 q 638 631 682 575 q 492 686 593 686 q 346 631 390 686 q 301 444 301 575 q 347 265 301 321 q 492 208 392 208 z "},"R":{"ha":882,"x_min":63,"x_max":847,"o":"m 63 894 l 528 894 q 767 808 686 894 q 847 576 847 722 q 803 419 847 488 q 682 313 758 350 q 708 283 697 300 q 733 235 719 267 l 836 0 l 564 0 l 469 215 q 442 251 458 240 q 397 261 426 261 l 324 261 l 324 0 l 63 0 l 63 894 m 461 461 q 549 491 518 461 q 581 576 581 521 q 469 694 581 694 l 324 694 l 324 461 l 461 461 z "},"Ŕ":{"ha":882,"x_min":63,"x_max":847,"o":"m 376 1242 l 579 1242 l 446 956 l 254 956 l 376 1242 m 63 894 l 528 894 q 767 808 686 894 q 847 576 847 722 q 803 419 847 488 q 682 313 758 350 q 708 283 697 300 q 733 235 719 267 l 836 0 l 564 0 l 469 215 q 442 251 458 240 q 397 261 426 261 l 324 261 l 324 0 l 63 0 l 63 894 m 461 461 q 549 491 518 461 q 581 576 581 521 q 469 694 581 694 l 324 694 l 324 461 l 461 461 z "},"Ř":{"ha":882,"x_min":63,"x_max":847,"o":"m 76 1233 l 271 1233 l 371 1082 l 476 1233 l 665 1233 l 450 956 l 292 956 l 76 1233 m 63 894 l 528 894 q 767 808 686 894 q 847 576 847 722 q 803 419 847 488 q 682 313 758 350 q 708 283 697 300 q 733 235 719 267 l 836 0 l 564 0 l 469 215 q 442 251 458 240 q 397 261 426 261 l 324 261 l 324 0 l 63 0 l 63 894 m 461 461 q 549 491 518 461 q 581 576 581 521 q 469 694 581 694 l 324 694 l 324 461 l 461 461 z "},"Ŗ":{"ha":882,"x_min":63,"x_max":847,"o":"m 63 894 l 528 894 q 767 808 686 894 q 847 576 847 722 q 803 419 847 488 q 682 313 758 350 q 708 283 697 300 q 733 235 719 267 l 836 0 l 564 0 l 469 215 q 442 251 458 240 q 397 261 426 261 l 324 261 l 324 0 l 63 0 l 63 894 m 461 461 q 549 491 518 461 q 581 576 581 521 q 469 694 581 694 l 324 694 l 324 461 l 461 461 m 325 -51 l 538 -51 l 458 -364 l 278 -364 l 325 -51 z "},"Ṛ":{"ha":882,"x_min":63,"x_max":847,"o":"m 63 894 l 528 894 q 767 808 686 894 q 847 576 847 722 q 803 419 847 488 q 682 313 758 350 q 708 283 697 300 q 733 235 719 267 l 836 0 l 564 0 l 469 215 q 442 251 458 240 q 397 261 426 261 l 324 261 l 324 0 l 63 0 l 63 894 m 461 461 q 549 491 518 461 q 581 576 581 521 q 469 694 581 694 l 324 694 l 324 461 l 461 461 m 339 -78 l 519 -78 l 519 -244 l 339 -244 l 339 -78 z "},"Ṝ":{"ha":882,"x_min":63,"x_max":847,"o":"m 178 1151 l 633 1151 l 633 996 l 178 996 l 178 1151 m 63 894 l 528 894 q 767 808 686 894 q 847 576 847 722 q 803 419 847 488 q 682 313 758 350 q 708 283 697 300 q 733 235 719 267 l 836 0 l 564 0 l 469 215 q 442 251 458 240 q 397 261 426 261 l 324 261 l 324 0 l 63 0 l 63 894 m 461 461 q 549 491 518 461 q 581 576 581 521 q 469 694 581 694 l 324 694 l 324 461 l 461 461 m 339 -78 l 519 -78 l 519 -244 l 339 -244 l 339 -78 z "},"Ṟ":{"ha":882,"x_min":63,"x_max":847,"o":"m 63 894 l 528 894 q 767 808 686 894 q 847 576 847 722 q 803 419 847 488 q 682 313 758 350 q 708 283 697 300 q 733 235 719 267 l 836 0 l 564 0 l 469 215 q 442 251 458 240 q 397 261 426 261 l 324 261 l 324 0 l 63 0 l 63 894 m 461 461 q 549 491 518 461 q 581 576 581 521 q 469 694 581 694 l 324 694 l 324 461 l 461 461 m 189 -89 l 644 -89 l 644 -244 l 189 -244 l 189 -89 z "},"S":{"ha":771,"x_min":35,"x_max":736,"o":"m 356 -14 q 183 1 264 -14 q 47 42 103 15 l 47 257 q 188 210 111 228 q 329 192 264 192 q 437 205 404 192 q 469 257 469 218 q 453 298 469 282 q 407 326 438 314 q 310 358 376 338 q 276 368 288 364 q 133 432 185 397 q 58 516 81 467 q 35 639 35 565 q 129 840 35 771 q 407 908 224 908 q 556 897 478 908 q 686 868 635 885 l 686 651 q 449 700 564 700 q 338 689 375 700 q 301 640 301 678 q 317 603 301 617 q 363 578 332 589 q 469 549 394 568 q 634 478 576 519 q 714 385 692 438 q 736 257 736 332 q 640 59 736 132 q 356 -14 543 -14 z "},"Ś":{"ha":771,"x_min":35,"x_max":736,"o":"m 390 1243 l 593 1243 l 460 957 l 268 957 l 390 1243 m 356 -14 q 183 1 264 -14 q 47 42 103 15 l 47 257 q 188 210 111 228 q 329 192 264 192 q 437 205 404 192 q 469 257 469 218 q 453 298 469 282 q 407 326 438 314 q 310 358 376 338 q 276 368 288 364 q 133 432 185 397 q 58 516 81 467 q 35 639 35 565 q 129 840 35 771 q 407 908 224 908 q 556 897 478 908 q 686 868 635 885 l 686 651 q 449 700 564 700 q 338 689 375 700 q 301 640 301 678 q 317 603 301 617 q 363 578 332 589 q 469 549 394 568 q 634 478 576 519 q 714 385 692 438 q 736 257 736 332 q 640 59 736 132 q 356 -14 543 -14 z "},"Š":{"ha":771,"x_min":35,"x_max":736,"o":"m 79 1233 l 274 1233 l 374 1082 l 479 1233 l 668 1233 l 453 956 l 294 956 l 79 1233 m 356 -14 q 183 1 264 -14 q 47 42 103 15 l 47 257 q 188 210 111 228 q 329 192 264 192 q 437 205 404 192 q 469 257 469 218 q 453 298 469 282 q 407 326 438 314 q 310 358 376 338 q 276 368 288 364 q 133 432 185 397 q 58 516 81 467 q 35 639 35 565 q 129 840 35 771 q 407 908 224 908 q 556 897 478 908 q 686 868 635 885 l 686 651 q 449 700 564 700 q 338 689 375 700 q 301 640 301 678 q 317 603 301 617 q 363 578 332 589 q 469 549 394 568 q 634 478 576 519 q 714 385 692 438 q 736 257 736 332 q 640 59 736 132 q 356 -14 543 -14 z "},"Ş":{"ha":771,"x_min":35,"x_max":736,"o":"m 736 257 q 663 78 736 149 q 446 -8 589 8 l 428 -57 q 545 -92 507 -57 q 583 -187 583 -128 q 527 -295 583 -257 q 360 -333 471 -333 q 298 -330 335 -333 q 246 -322 261 -326 l 246 -219 q 328 -231 286 -231 q 405 -220 382 -231 q 428 -183 428 -210 q 409 -149 428 -157 q 353 -140 390 -140 l 265 -140 l 301 -12 q 47 42 147 -6 l 47 257 q 188 210 111 228 q 329 192 264 192 q 437 205 404 192 q 469 257 469 218 q 453 298 469 282 q 407 326 438 314 q 310 358 376 338 q 276 368 288 364 q 133 432 185 397 q 58 516 81 467 q 35 639 35 565 q 129 840 35 771 q 407 908 224 908 q 556 897 478 908 q 686 868 635 885 l 686 651 q 449 700 564 700 q 338 689 375 700 q 301 640 301 678 q 317 603 301 617 q 363 578 332 589 q 469 549 394 568 q 634 478 576 519 q 714 385 692 438 q 736 257 736 332 z "},"Ŝ":{"ha":771,"x_min":35,"x_max":736,"o":"m 288 1233 l 446 1233 l 661 956 l 472 956 l 367 1106 l 267 956 l 72 956 l 288 1233 m 356 -14 q 183 1 264 -14 q 47 42 103 15 l 47 257 q 188 210 111 228 q 329 192 264 192 q 437 205 404 192 q 469 257 469 218 q 453 298 469 282 q 407 326 438 314 q 310 358 376 338 q 276 368 288 364 q 133 432 185 397 q 58 516 81 467 q 35 639 35 565 q 129 840 35 771 q 407 908 224 908 q 556 897 478 908 q 686 868 635 885 l 686 651 q 449 700 564 700 q 338 689 375 700 q 301 640 301 678 q 317 603 301 617 q 363 578 332 589 q 469 549 394 568 q 634 478 576 519 q 714 385 692 438 q 736 257 736 332 q 640 59 736 132 q 356 -14 543 -14 z "},"Ș":{"ha":771,"x_min":35,"x_max":736,"o":"m 356 -14 q 183 1 264 -14 q 47 42 103 15 l 47 257 q 188 210 111 228 q 329 192 264 192 q 437 205 404 192 q 469 257 469 218 q 453 298 469 282 q 407 326 438 314 q 310 358 376 338 q 276 368 288 364 q 133 432 185 397 q 58 516 81 467 q 35 639 35 565 q 129 840 35 771 q 407 908 224 908 q 556 897 478 908 q 686 868 635 885 l 686 651 q 449 700 564 700 q 338 689 375 700 q 301 640 301 678 q 317 603 301 617 q 363 578 332 589 q 469 549 394 568 q 634 478 576 519 q 714 385 692 438 q 736 257 736 332 q 640 59 736 132 q 356 -14 543 -14 m 293 -58 l 500 -58 l 435 -325 l 249 -325 l 293 -58 z "},"Ṡ":{"ha":771,"x_min":35,"x_max":736,"o":"m 288 1160 l 468 1160 l 468 993 l 288 993 l 288 1160 m 356 -14 q 183 1 264 -14 q 47 42 103 15 l 47 257 q 188 210 111 228 q 329 192 264 192 q 437 205 404 192 q 469 257 469 218 q 453 298 469 282 q 407 326 438 314 q 310 358 376 338 q 276 368 288 364 q 133 432 185 397 q 58 516 81 467 q 35 639 35 565 q 129 840 35 771 q 407 908 224 908 q 556 897 478 908 q 686 868 635 885 l 686 651 q 449 700 564 700 q 338 689 375 700 q 301 640 301 678 q 317 603 301 617 q 363 578 332 589 q 469 549 394 568 q 634 478 576 519 q 714 385 692 438 q 736 257 736 332 q 640 59 736 132 q 356 -14 543 -14 z "},"Ṣ":{"ha":771,"x_min":35,"x_max":736,"o":"m 356 -14 q 183 1 264 -14 q 47 42 103 15 l 47 257 q 188 210 111 228 q 329 192 264 192 q 437 205 404 192 q 469 257 469 218 q 453 298 469 282 q 407 326 438 314 q 310 358 376 338 q 276 368 288 364 q 133 432 185 397 q 58 516 81 467 q 35 639 35 565 q 129 840 35 771 q 407 908 224 908 q 556 897 478 908 q 686 868 635 885 l 686 651 q 449 700 564 700 q 338 689 375 700 q 301 640 301 678 q 317 603 301 617 q 363 578 332 589 q 469 549 394 568 q 634 478 576 519 q 714 385 692 438 q 736 257 736 332 q 640 59 736 132 q 356 -14 543 -14 m 286 -78 l 467 -78 l 467 -244 l 286 -244 l 286 -78 z "},"ẞ":{"ha":889,"x_min":56,"x_max":854,"o":"m 560 -14 q 369 17 443 -14 l 369 201 q 428 185 394 192 q 490 179 461 179 q 565 198 542 179 q 588 257 588 217 q 564 310 588 293 q 490 326 540 326 l 390 326 l 390 481 l 579 621 q 443 685 579 685 q 301 557 301 685 l 301 0 l 56 0 l 56 568 q 102 749 56 672 q 235 867 149 825 q 443 908 322 908 q 728 818 633 908 q 824 585 824 728 l 638 447 l 663 447 q 801 392 747 447 q 854 243 854 336 q 776 54 854 122 q 560 -14 697 -14 z "},"Ə":{"ha":957,"x_min":35,"x_max":922,"o":"m 469 -14 q 148 92 261 -14 q 35 385 35 197 l 35 551 l 676 551 q 635 658 668 621 q 542 710 603 696 q 379 725 482 725 q 222 708 313 725 q 82 668 132 690 l 82 846 q 245 890 151 872 q 435 908 339 908 q 697 851 588 908 q 865 688 807 794 q 922 435 922 582 q 810 104 922 222 q 469 -14 697 -14 m 469 158 q 628 211 579 158 q 676 371 676 264 l 267 371 l 267 325 q 318 203 267 247 q 469 158 369 158 z "},"T":{"ha":778,"x_min":7,"x_max":771,"o":"m 258 700 l 7 700 l 7 894 l 771 894 l 771 700 l 519 700 l 519 0 l 258 0 l 258 700 z "},"Ŧ":{"ha":778,"x_min":7,"x_max":771,"o":"m 519 700 l 519 544 l 654 544 l 654 369 l 519 369 l 519 0 l 258 0 l 258 369 l 124 369 l 124 544 l 258 544 l 258 700 l 7 700 l 7 894 l 771 894 l 771 700 l 519 700 z "},"Ť":{"ha":778,"x_min":7,"x_max":771,"o":"m 96 1235 l 290 1235 l 390 1083 l 496 1235 l 685 1235 l 469 957 l 311 957 l 96 1235 m 258 700 l 7 700 l 7 894 l 771 894 l 771 700 l 519 700 l 519 0 l 258 0 l 258 700 z "},"Ţ":{"ha":778,"x_min":7,"x_max":771,"o":"m 463 0 l 442 -57 q 559 -92 521 -57 q 597 -187 597 -128 q 541 -295 597 -257 q 374 -333 485 -333 q 312 -330 349 -333 q 260 -322 275 -326 l 260 -219 q 342 -231 300 -231 q 419 -220 396 -231 q 442 -183 442 -210 q 423 -149 442 -157 q 367 -140 404 -140 l 279 -140 l 319 0 l 258 0 l 258 700 l 7 700 l 7 894 l 771 894 l 771 700 l 519 700 l 519 0 l 463 0 z "},"Ț":{"ha":778,"x_min":7,"x_max":771,"o":"m 258 700 l 7 700 l 7 894 l 771 894 l 771 700 l 519 700 l 519 0 l 258 0 l 258 700 m 290 -58 l 503 -58 l 424 -371 l 243 -371 l 290 -58 z "},"Ṭ":{"ha":778,"x_min":7,"x_max":771,"o":"m 258 700 l 7 700 l 7 894 l 771 894 l 771 700 l 519 700 l 519 0 l 258 0 l 258 700 m 299 -78 l 479 -78 l 479 -244 l 299 -244 l 299 -78 z "},"Ṯ":{"ha":778,"x_min":7,"x_max":771,"o":"m 258 700 l 7 700 l 7 894 l 771 894 l 771 700 l 519 700 l 519 0 l 258 0 l 258 700 m 160 -89 l 615 -89 l 615 -244 l 160 -244 l 160 -89 z "},"U":{"ha":957,"x_min":56,"x_max":901,"o":"m 479 -14 q 172 80 288 -14 q 56 344 56 174 l 56 894 l 317 894 l 317 372 q 479 208 317 208 q 640 372 640 208 l 640 894 l 901 894 l 901 344 q 849 150 901 231 q 700 28 796 69 q 479 -14 604 -14 z "},"Ú":{"ha":957,"x_min":56,"x_max":901,"o":"m 503 1242 l 706 1242 l 572 956 l 381 956 l 503 1242 m 479 -14 q 172 80 288 -14 q 56 344 56 174 l 56 894 l 317 894 l 317 372 q 479 208 317 208 q 640 372 640 208 l 640 894 l 901 894 l 901 344 q 849 150 901 231 q 700 28 796 69 q 479 -14 604 -14 z "},"Ŭ":{"ha":957,"x_min":56,"x_max":901,"o":"m 478 956 q 287 1024 358 956 q 215 1215 215 1092 l 385 1215 q 478 1099 385 1099 q 572 1215 572 1099 l 742 1215 q 670 1024 742 1092 q 478 956 599 956 m 479 -14 q 172 80 288 -14 q 56 344 56 174 l 56 894 l 317 894 l 317 372 q 479 208 317 208 q 640 372 640 208 l 640 894 l 901 894 l 901 344 q 849 150 901 231 q 700 28 796 69 q 479 -14 604 -14 z "},"Ǔ":{"ha":957,"x_min":56,"x_max":901,"o":"m 183 1233 l 378 1233 l 478 1082 l 583 1233 l 772 1233 l 557 956 l 399 956 l 183 1233 m 479 -14 q 172 80 288 -14 q 56 344 56 174 l 56 894 l 317 894 l 317 372 q 479 208 317 208 q 640 372 640 208 l 640 894 l 901 894 l 901 344 q 849 150 901 231 q 700 28 796 69 q 479 -14 604 -14 z "},"Û":{"ha":957,"x_min":56,"x_max":901,"o":"m 400 1233 l 558 1233 l 774 956 l 585 956 l 479 1106 l 379 956 l 185 956 l 400 1233 m 479 -14 q 172 80 288 -14 q 56 344 56 174 l 56 894 l 317 894 l 317 372 q 479 208 317 208 q 640 372 640 208 l 640 894 l 901 894 l 901 344 q 849 150 901 231 q 700 28 796 69 q 479 -14 604 -14 z "},"Ü":{"ha":957,"x_min":56,"x_max":901,"o":"m 238 1160 l 419 1160 l 419 993 l 238 993 l 238 1160 m 538 1160 l 719 1160 l 719 993 l 538 993 l 538 1160 m 479 -14 q 172 80 288 -14 q 56 344 56 174 l 56 894 l 317 894 l 317 372 q 479 208 317 208 q 640 372 640 208 l 640 894 l 901 894 l 901 344 q 849 150 901 231 q 700 28 796 69 q 479 -14 604 -14 z "},"Ǘ":{"ha":957,"x_min":56,"x_max":901,"o":"m 464 1344 l 658 1344 l 561 1154 l 385 1154 l 464 1344 m 240 1118 l 417 1118 l 417 961 l 240 961 l 240 1118 m 539 1118 l 715 1118 l 715 961 l 539 961 l 539 1118 m 479 -14 q 172 80 288 -14 q 56 344 56 174 l 56 894 l 317 894 l 317 372 q 479 208 317 208 q 640 372 640 208 l 640 894 l 901 894 l 901 344 q 849 150 901 231 q 700 28 796 69 q 479 -14 604 -14 z "},"Ǚ":{"ha":957,"x_min":56,"x_max":901,"o":"m 214 1336 l 406 1336 l 479 1235 l 556 1336 l 743 1336 l 568 1151 l 389 1151 l 214 1336 m 238 1118 l 414 1118 l 414 961 l 238 961 l 238 1118 m 536 1118 l 713 1118 l 713 961 l 536 961 l 536 1118 m 479 -14 q 172 80 288 -14 q 56 344 56 174 l 56 894 l 317 894 l 317 372 q 479 208 317 208 q 640 372 640 208 l 640 894 l 901 894 l 901 344 q 849 150 901 231 q 700 28 796 69 q 479 -14 604 -14 z "},"Ǜ":{"ha":957,"x_min":56,"x_max":901,"o":"m 299 1369 l 493 1369 l 572 1179 l 396 1179 l 299 1369 m 242 1143 l 418 1143 l 418 986 l 242 986 l 242 1143 m 540 1143 l 717 1143 l 717 986 l 540 986 l 540 1143 m 479 -14 q 172 80 288 -14 q 56 344 56 174 l 56 894 l 317 894 l 317 372 q 479 208 317 208 q 640 372 640 208 l 640 894 l 901 894 l 901 344 q 849 150 901 231 q 700 28 796 69 q 479 -14 604 -14 z "},"Ǖ":{"ha":957,"x_min":56,"x_max":901,"o":"m 250 1368 l 706 1368 l 706 1213 l 250 1213 l 250 1368 m 238 1138 l 419 1138 l 419 971 l 238 971 l 238 1138 m 538 1138 l 719 1138 l 719 971 l 538 971 l 538 1138 m 479 -14 q 172 80 288 -14 q 56 344 56 174 l 56 894 l 317 894 l 317 372 q 479 208 317 208 q 640 372 640 208 l 640 894 l 901 894 l 901 344 q 849 150 901 231 q 700 28 796 69 q 479 -14 604 -14 z "},"Ụ":{"ha":957,"x_min":56,"x_max":901,"o":"m 479 -14 q 172 80 288 -14 q 56 344 56 174 l 56 894 l 317 894 l 317 372 q 479 208 317 208 q 640 372 640 208 l 640 894 l 901 894 l 901 344 q 849 150 901 231 q 700 28 796 69 q 479 -14 604 -14 m 388 -78 l 568 -78 l 568 -244 l 388 -244 l 388 -78 z "},"Ù":{"ha":957,"x_min":56,"x_max":901,"o":"m 257 1242 l 461 1242 l 583 956 l 392 956 l 257 1242 m 479 -14 q 172 80 288 -14 q 56 344 56 174 l 56 894 l 317 894 l 317 372 q 479 208 317 208 q 640 372 640 208 l 640 894 l 901 894 l 901 344 q 849 150 901 231 q 700 28 796 69 q 479 -14 604 -14 z "},"Ủ":{"ha":957,"x_min":56,"x_max":901,"o":"m 378 1068 q 473 1087 446 1072 q 500 1129 500 1101 q 417 1175 500 1175 q 335 1164 379 1175 l 335 1272 q 494 1292 396 1292 q 639 1253 588 1292 q 690 1151 690 1214 q 662 1062 690 1093 q 574 1013 633 1031 l 574 956 l 378 956 l 378 1068 m 479 -14 q 172 80 288 -14 q 56 344 56 174 l 56 894 l 317 894 l 317 372 q 479 208 317 208 q 640 372 640 208 l 640 894 l 901 894 l 901 344 q 849 150 901 231 q 700 28 796 69 q 479 -14 604 -14 z "},"Ư":{"ha":1196,"x_min":56,"x_max":1203,"o":"m 479 -14 q 172 80 288 -14 q 56 344 56 174 l 56 894 l 317 894 l 317 372 q 479 208 317 208 q 640 372 640 208 l 640 894 l 901 894 l 901 819 q 992 852 965 822 q 1018 956 1018 882 l 1203 956 q 1173 776 1203 842 q 1078 682 1143 711 q 901 650 1013 653 l 901 344 q 849 150 901 231 q 700 28 796 69 q 479 -14 604 -14 z "},"Ứ":{"ha":1196,"x_min":56,"x_max":1203,"o":"m 492 1242 l 694 1242 l 561 956 l 369 956 l 492 1242 m 479 -14 q 172 80 288 -14 q 56 344 56 174 l 56 894 l 317 894 l 317 372 q 479 208 317 208 q 640 372 640 208 l 640 894 l 901 894 l 901 819 q 992 852 965 822 q 1018 956 1018 882 l 1203 956 q 1173 776 1203 842 q 1078 682 1143 711 q 901 650 1013 653 l 901 344 q 849 150 901 231 q 700 28 796 69 q 479 -14 604 -14 z "},"Ự":{"ha":1196,"x_min":56,"x_max":1203,"o":"m 479 -14 q 172 80 288 -14 q 56 344 56 174 l 56 894 l 317 894 l 317 372 q 479 208 317 208 q 640 372 640 208 l 640 894 l 901 894 l 901 819 q 992 852 965 822 q 1018 956 1018 882 l 1203 956 q 1173 776 1203 842 q 1078 682 1143 711 q 901 650 1013 653 l 901 344 q 849 150 901 231 q 700 28 796 69 q 479 -14 604 -14 m 394 -78 l 575 -78 l 575 -244 l 394 -244 l 394 -78 z "},"Ừ":{"ha":1196,"x_min":56,"x_max":1203,"o":"m 256 1242 l 460 1242 l 582 956 l 390 956 l 256 1242 m 479 -14 q 172 80 288 -14 q 56 344 56 174 l 56 894 l 317 894 l 317 372 q 479 208 317 208 q 640 372 640 208 l 640 894 l 901 894 l 901 819 q 992 852 965 822 q 1018 956 1018 882 l 1203 956 q 1173 776 1203 842 q 1078 682 1143 711 q 901 650 1013 653 l 901 344 q 849 150 901 231 q 700 28 796 69 q 479 -14 604 -14 z "},"Ử":{"ha":1196,"x_min":56,"x_max":1203,"o":"m 338 1067 q 433 1085 406 1071 q 460 1128 460 1100 q 376 1174 460 1174 q 294 1163 339 1174 l 294 1271 q 454 1290 356 1290 q 599 1251 547 1290 q 650 1150 650 1213 q 622 1060 650 1092 q 533 1011 593 1029 l 533 954 l 338 954 l 338 1067 m 479 -14 q 172 80 288 -14 q 56 344 56 174 l 56 894 l 317 894 l 317 372 q 479 208 317 208 q 640 372 640 208 l 640 894 l 901 894 l 901 819 q 992 852 965 822 q 1018 956 1018 882 l 1203 956 q 1173 776 1203 842 q 1078 682 1143 711 q 901 650 1013 653 l 901 344 q 849 150 901 231 q 700 28 796 69 q 479 -14 604 -14 z "},"Ữ":{"ha":1196,"x_min":56,"x_max":1203,"o":"m 618 961 q 556 969 586 961 q 481 992 525 976 q 416 1013 442 1006 q 367 1019 390 1019 q 231 965 285 1019 l 231 1129 q 288 1162 251 1149 q 363 1175 324 1175 q 421 1168 393 1175 q 492 1146 449 1161 q 557 1124 529 1132 q 614 1117 585 1117 q 688 1132 656 1117 q 739 1172 721 1147 l 739 1007 q 691 974 725 988 q 618 961 657 961 m 479 -14 q 172 80 288 -14 q 56 344 56 174 l 56 894 l 317 894 l 317 372 q 479 208 317 208 q 640 372 640 208 l 640 894 l 901 894 l 901 819 q 992 852 965 822 q 1018 956 1018 882 l 1203 956 q 1173 776 1203 842 q 1078 682 1143 711 q 901 650 1013 653 l 901 344 q 849 150 901 231 q 700 28 796 69 q 479 -14 604 -14 z "},"Ű":{"ha":957,"x_min":56,"x_max":901,"o":"m 306 1211 l 525 1211 l 383 956 l 186 956 l 306 1211 m 631 1211 l 850 1211 l 708 956 l 511 956 l 631 1211 m 479 -14 q 172 80 288 -14 q 56 344 56 174 l 56 894 l 317 894 l 317 372 q 479 208 317 208 q 640 372 640 208 l 640 894 l 901 894 l 901 344 q 849 150 901 231 q 700 28 796 69 q 479 -14 604 -14 z "},"Ū":{"ha":957,"x_min":56,"x_max":901,"o":"m 250 1161 l 706 1161 l 706 1006 l 250 1006 l 250 1161 m 479 -14 q 172 80 288 -14 q 56 344 56 174 l 56 894 l 317 894 l 317 372 q 479 208 317 208 q 640 372 640 208 l 640 894 l 901 894 l 901 344 q 849 150 901 231 q 700 28 796 69 q 479 -14 604 -14 z "},"Ų":{"ha":957,"x_min":56,"x_max":901,"o":"m 901 894 l 901 344 q 816 108 901 199 q 585 -6 731 18 q 511 -124 511 -65 q 571 -179 511 -179 q 608 -175 589 -179 q 640 -164 628 -171 l 640 -283 q 578 -299 618 -292 q 499 -306 539 -306 q 365 -272 415 -306 q 315 -171 315 -237 q 339 -82 315 -124 q 404 -10 363 -40 q 149 99 243 8 q 56 344 56 190 l 56 894 l 317 894 l 317 372 q 479 208 317 208 q 640 372 640 208 l 640 894 l 901 894 z "},"Ů":{"ha":957,"x_min":56,"x_max":901,"o":"m 478 956 q 337 1007 389 956 q 285 1138 285 1058 q 337 1269 285 1217 q 478 1321 389 1321 q 619 1269 568 1321 q 671 1138 671 1217 q 619 1007 671 1058 q 478 956 568 956 m 478 1063 q 535 1083 515 1063 q 556 1138 556 1104 q 535 1191 556 1169 q 478 1213 515 1213 q 421 1191 442 1213 q 400 1138 400 1169 q 421 1084 400 1106 q 478 1063 442 1063 m 479 -14 q 172 80 288 -14 q 56 344 56 174 l 56 894 l 317 894 l 317 372 q 479 208 317 208 q 640 372 640 208 l 640 894 l 901 894 l 901 344 q 849 150 901 231 q 700 28 796 69 q 479 -14 604 -14 z "},"Ũ":{"ha":957,"x_min":56,"x_max":901,"o":"m 611 967 q 549 974 579 967 q 474 997 518 982 q 409 1018 435 1011 q 360 1025 383 1025 q 224 971 278 1025 l 224 1135 q 281 1167 244 1154 q 356 1181 317 1181 q 414 1174 386 1181 q 485 1151 442 1167 q 550 1130 522 1138 q 607 1122 578 1122 q 681 1138 649 1122 q 732 1178 714 1153 l 732 1013 q 684 980 718 993 q 611 967 650 967 m 479 -14 q 172 80 288 -14 q 56 344 56 174 l 56 894 l 317 894 l 317 372 q 479 208 317 208 q 640 372 640 208 l 640 894 l 901 894 l 901 344 q 849 150 901 231 q 700 28 796 69 q 479 -14 604 -14 z "},"V":{"ha":1032,"x_min":35,"x_max":997,"o":"m 35 894 l 307 894 l 515 303 l 724 894 l 997 894 l 654 0 l 378 0 l 35 894 z "},"W":{"ha":1238,"x_min":35,"x_max":1203,"o":"m 35 894 l 290 894 l 392 421 l 490 760 l 490 894 l 704 894 l 840 419 l 947 894 l 1203 894 l 996 0 l 760 0 l 625 463 l 479 0 l 243 0 l 35 894 z "},"Ẃ":{"ha":1238,"x_min":35,"x_max":1203,"o":"m 617 1242 l 819 1242 l 686 956 l 494 956 l 617 1242 m 35 894 l 290 894 l 392 421 l 490 760 l 490 894 l 704 894 l 840 419 l 947 894 l 1203 894 l 996 0 l 760 0 l 625 463 l 479 0 l 243 0 l 35 894 z "},"Ŵ":{"ha":1238,"x_min":35,"x_max":1203,"o":"m 544 1233 l 703 1233 l 918 956 l 729 956 l 624 1106 l 524 956 l 329 956 l 544 1233 m 35 894 l 290 894 l 392 421 l 490 760 l 490 894 l 704 894 l 840 419 l 947 894 l 1203 894 l 996 0 l 760 0 l 625 463 l 479 0 l 243 0 l 35 894 z "},"Ẅ":{"ha":1238,"x_min":35,"x_max":1203,"o":"m 385 1160 l 567 1160 l 567 993 l 385 993 l 385 1160 m 685 1160 l 867 1160 l 867 993 l 685 993 l 685 1160 m 35 894 l 290 894 l 392 421 l 490 760 l 490 894 l 704 894 l 840 419 l 947 894 l 1203 894 l 996 0 l 760 0 l 625 463 l 479 0 l 243 0 l 35 894 z "},"Ẁ":{"ha":1238,"x_min":35,"x_max":1203,"o":"m 369 1242 l 574 1242 l 696 956 l 504 956 l 369 1242 m 35 894 l 290 894 l 392 421 l 490 760 l 490 894 l 704 894 l 840 419 l 947 894 l 1203 894 l 996 0 l 760 0 l 625 463 l 479 0 l 243 0 l 35 894 z "},"X":{"ha":1046,"x_min":35,"x_max":1011,"o":"m 365 453 l 47 894 l 358 894 l 522 660 l 688 894 l 999 894 l 681 453 l 1011 0 l 696 0 l 522 243 l 350 0 l 35 0 l 365 453 z "},"Y":{"ha":975,"x_min":35,"x_max":940,"o":"m 357 328 l 35 894 l 307 894 l 488 557 l 668 894 l 940 894 l 618 328 l 618 0 l 357 0 l 357 328 z "},"Ý":{"ha":975,"x_min":35,"x_max":940,"o":"m 508 1242 l 711 1242 l 578 956 l 386 956 l 508 1242 m 357 328 l 35 894 l 307 894 l 488 557 l 668 894 l 940 894 l 618 328 l 618 0 l 357 0 l 357 328 z "},"Ŷ":{"ha":975,"x_min":35,"x_max":940,"o":"m 408 1233 l 567 1233 l 782 956 l 593 956 l 488 1106 l 388 956 l 193 956 l 408 1233 m 357 328 l 35 894 l 307 894 l 488 557 l 668 894 l 940 894 l 618 328 l 618 0 l 357 0 l 357 328 z "},"Ÿ":{"ha":975,"x_min":35,"x_max":940,"o":"m 249 1160 l 431 1160 l 431 993 l 249 993 l 249 1160 m 549 1160 l 731 1160 l 731 993 l 549 993 l 549 1160 m 357 328 l 35 894 l 307 894 l 488 557 l 668 894 l 940 894 l 618 328 l 618 0 l 357 0 l 357 328 z "},"Ẏ":{"ha":975,"x_min":35,"x_max":940,"o":"m 397 1160 l 578 1160 l 578 993 l 397 993 l 397 1160 m 357 328 l 35 894 l 307 894 l 488 557 l 668 894 l 940 894 l 618 328 l 618 0 l 357 0 l 357 328 z "},"Ỵ":{"ha":975,"x_min":35,"x_max":940,"o":"m 357 328 l 35 894 l 307 894 l 488 557 l 668 894 l 940 894 l 618 328 l 618 0 l 357 0 l 357 328 m 397 -76 l 578 -76 l 578 -243 l 397 -243 l 397 -76 z "},"Ỳ":{"ha":975,"x_min":35,"x_max":940,"o":"m 247 1242 l 451 1242 l 574 956 l 382 956 l 247 1242 m 357 328 l 35 894 l 307 894 l 488 557 l 668 894 l 940 894 l 618 328 l 618 0 l 357 0 l 357 328 z "},"Ỷ":{"ha":975,"x_min":35,"x_max":940,"o":"m 382 1068 q 477 1087 450 1072 q 504 1129 504 1101 q 421 1175 504 1175 q 339 1164 383 1175 l 339 1272 q 499 1292 400 1292 q 643 1253 592 1292 q 694 1151 694 1214 q 666 1062 694 1093 q 578 1013 638 1031 l 578 956 l 382 956 l 382 1068 m 357 328 l 35 894 l 307 894 l 488 557 l 668 894 l 940 894 l 618 328 l 618 0 l 357 0 l 357 328 z "},"Ỹ":{"ha":975,"x_min":35,"x_max":940,"o":"m 621 967 q 558 974 589 967 q 483 997 528 982 q 419 1018 444 1011 q 369 1025 393 1025 q 233 971 288 1025 l 233 1135 q 290 1167 254 1154 q 365 1181 326 1181 q 424 1174 396 1181 q 494 1151 451 1167 q 560 1130 532 1138 q 617 1122 588 1122 q 691 1138 658 1122 q 742 1178 724 1153 l 742 1013 q 694 980 728 993 q 621 967 660 967 m 357 328 l 35 894 l 307 894 l 488 557 l 668 894 l 940 894 l 618 328 l 618 0 l 357 0 l 357 328 z "},"Z":{"ha":803,"x_min":35,"x_max":775,"o":"m 35 131 l 424 694 l 56 694 l 56 894 l 767 894 l 767 758 l 382 200 l 775 200 l 775 0 l 35 0 l 35 131 z "},"Ź":{"ha":803,"x_min":35,"x_max":775,"o":"m 413 1242 l 615 1242 l 482 956 l 290 956 l 413 1242 m 35 131 l 424 694 l 56 694 l 56 894 l 767 894 l 767 758 l 382 200 l 775 200 l 775 0 l 35 0 l 35 131 z "},"Ž":{"ha":803,"x_min":35,"x_max":775,"o":"m 126 1233 l 321 1233 l 421 1082 l 526 1233 l 715 1233 l 500 956 l 342 956 l 126 1233 m 35 131 l 424 694 l 56 694 l 56 894 l 767 894 l 767 758 l 382 200 l 775 200 l 775 0 l 35 0 l 35 131 z "},"Ż":{"ha":803,"x_min":35,"x_max":775,"o":"m 318 1160 l 499 1160 l 499 993 l 318 993 l 318 1160 m 35 131 l 424 694 l 56 694 l 56 894 l 767 894 l 767 758 l 382 200 l 775 200 l 775 0 l 35 0 l 35 131 z "},"Ẓ":{"ha":803,"x_min":35,"x_max":775,"o":"m 35 131 l 424 694 l 56 694 l 56 894 l 767 894 l 767 758 l 382 200 l 775 200 l 775 0 l 35 0 l 35 131 m 308 -78 l 489 -78 l 489 -244 l 308 -244 l 308 -78 z "},"a":{"ha":789,"x_min":35,"x_max":733,"o":"m 268 -14 q 101 40 167 -14 q 35 197 35 93 q 105 360 35 303 q 314 417 175 417 l 485 417 l 485 429 q 452 486 485 468 q 340 504 419 504 q 115 469 226 504 l 115 626 q 242 660 167 647 q 393 672 317 672 q 644 606 554 672 q 733 406 733 540 l 733 0 l 506 0 l 493 53 q 268 -14 418 -14 m 357 139 q 485 192 436 139 l 485 274 l 358 274 q 293 257 314 274 q 272 206 272 240 q 357 139 272 139 z "},"á":{"ha":789,"x_min":35,"x_max":733,"o":"m 421 1011 l 624 1011 l 490 725 l 299 725 l 421 1011 m 268 -14 q 101 40 167 -14 q 35 197 35 93 q 105 360 35 303 q 314 417 175 417 l 485 417 l 485 429 q 452 486 485 468 q 340 504 419 504 q 115 469 226 504 l 115 626 q 242 660 167 647 q 393 672 317 672 q 644 606 554 672 q 733 406 733 540 l 733 0 l 506 0 l 493 53 q 268 -14 418 -14 m 357 139 q 485 192 436 139 l 485 274 l 358 274 q 293 257 314 274 q 272 206 272 240 q 357 139 272 139 z "},"ă":{"ha":789,"x_min":35,"x_max":733,"o":"m 424 726 q 233 794 304 726 q 161 986 161 863 l 331 986 q 424 869 331 869 q 518 986 518 869 l 688 986 q 616 794 688 863 q 424 726 544 726 m 268 -14 q 101 40 167 -14 q 35 197 35 93 q 105 360 35 303 q 314 417 175 417 l 485 417 l 485 429 q 452 486 485 468 q 340 504 419 504 q 115 469 226 504 l 115 626 q 242 660 167 647 q 393 672 317 672 q 644 606 554 672 q 733 406 733 540 l 733 0 l 506 0 l 493 53 q 268 -14 418 -14 m 357 139 q 485 192 436 139 l 485 274 l 358 274 q 293 257 314 274 q 272 206 272 240 q 357 139 272 139 z "},"ắ":{"ha":789,"x_min":35,"x_max":733,"o":"m 408 1176 l 582 1176 l 467 958 l 317 958 l 408 1176 m 393 725 q 208 784 276 725 q 140 964 140 843 l 286 964 q 314 883 286 913 q 393 853 342 853 q 472 883 444 853 q 499 964 499 913 l 644 964 q 577 784 644 843 q 393 725 510 725 m 268 -14 q 101 40 167 -14 q 35 197 35 93 q 105 360 35 303 q 314 417 175 417 l 485 417 l 485 429 q 452 486 485 468 q 340 504 419 504 q 115 469 226 504 l 115 626 q 242 660 167 647 q 393 672 317 672 q 644 606 554 672 q 733 406 733 540 l 733 0 l 506 0 l 493 53 q 268 -14 418 -14 m 357 139 q 485 192 436 139 l 485 274 l 358 274 q 293 257 314 274 q 272 206 272 240 q 357 139 272 139 z "},"ặ":{"ha":789,"x_min":35,"x_max":733,"o":"m 415 725 q 224 793 296 725 q 153 985 153 861 l 322 985 q 415 868 322 868 q 510 985 510 868 l 679 985 q 608 793 679 861 q 415 725 536 725 m 268 -14 q 101 40 167 -14 q 35 197 35 93 q 105 360 35 303 q 314 417 175 417 l 485 417 l 485 429 q 452 486 485 468 q 340 504 419 504 q 115 469 226 504 l 115 626 q 242 660 167 647 q 393 672 317 672 q 644 606 554 672 q 733 406 733 540 l 733 0 l 506 0 l 493 53 q 268 -14 418 -14 m 357 139 q 485 192 436 139 l 485 274 l 358 274 q 293 257 314 274 q 272 206 272 240 q 357 139 272 139 m 333 -78 l 514 -78 l 514 -244 l 333 -244 l 333 -78 z "},"ằ":{"ha":789,"x_min":35,"x_max":733,"o":"m 215 1176 l 389 1176 l 481 958 l 331 958 l 215 1176 m 404 725 q 220 784 288 725 q 153 964 153 843 l 299 964 q 326 883 299 913 q 404 853 353 853 q 483 883 456 853 q 511 964 511 913 l 657 964 q 589 784 657 843 q 404 725 521 725 m 268 -14 q 101 40 167 -14 q 35 197 35 93 q 105 360 35 303 q 314 417 175 417 l 485 417 l 485 429 q 452 486 485 468 q 340 504 419 504 q 115 469 226 504 l 115 626 q 242 660 167 647 q 393 672 317 672 q 644 606 554 672 q 733 406 733 540 l 733 0 l 506 0 l 493 53 q 268 -14 418 -14 m 357 139 q 485 192 436 139 l 485 274 l 358 274 q 293 257 314 274 q 272 206 272 240 q 357 139 272 139 z "},"ẳ":{"ha":789,"x_min":35,"x_max":733,"o":"m 318 1051 q 422 1103 422 1056 q 406 1133 422 1125 q 357 1142 390 1142 q 286 1129 318 1142 l 286 1222 q 428 1240 340 1240 q 547 1207 504 1240 q 590 1121 590 1174 q 566 1047 590 1074 q 486 1007 542 1021 l 486 965 l 318 965 l 318 1051 m 403 725 q 219 784 286 725 q 151 964 151 843 l 297 964 q 324 883 297 913 q 403 853 351 853 q 482 883 454 853 q 510 964 510 913 l 656 964 q 588 784 656 843 q 403 725 519 725 m 268 -14 q 101 40 167 -14 q 35 197 35 93 q 105 360 35 303 q 314 417 175 417 l 485 417 l 485 429 q 452 486 485 468 q 340 504 419 504 q 115 469 226 504 l 115 626 q 242 660 167 647 q 393 672 317 672 q 644 606 554 672 q 733 406 733 540 l 733 0 l 506 0 l 493 53 q 268 -14 418 -14 m 357 139 q 485 192 436 139 l 485 274 l 358 274 q 293 257 314 274 q 272 206 272 240 q 357 139 272 139 z "},"ẵ":{"ha":789,"x_min":35,"x_max":733,"o":"m 539 989 q 479 997 508 989 q 407 1019 450 1004 q 345 1039 371 1032 q 294 1046 319 1046 q 163 993 213 1046 l 163 1135 q 217 1167 182 1154 q 290 1179 251 1179 q 348 1172 321 1179 q 418 1150 375 1165 q 481 1129 454 1136 q 535 1122 508 1122 q 609 1137 576 1122 q 658 1176 642 1151 l 658 1033 q 611 1002 644 1015 q 539 989 578 989 m 407 725 q 223 784 290 725 q 156 964 156 843 l 301 964 q 328 883 301 913 q 407 853 356 853 q 486 883 458 853 q 514 964 514 913 l 660 964 q 592 784 660 843 q 407 725 524 725 m 268 -14 q 101 40 167 -14 q 35 197 35 93 q 105 360 35 303 q 314 417 175 417 l 485 417 l 485 429 q 452 486 485 468 q 340 504 419 504 q 115 469 226 504 l 115 626 q 242 660 167 647 q 393 672 317 672 q 644 606 554 672 q 733 406 733 540 l 733 0 l 506 0 l 493 53 q 268 -14 418 -14 m 357 139 q 485 192 436 139 l 485 274 l 358 274 q 293 257 314 274 q 272 206 272 240 q 357 139 272 139 z "},"ǎ":{"ha":789,"x_min":35,"x_max":733,"o":"m 107 1003 l 301 1003 l 401 851 l 507 1003 l 696 1003 l 481 725 l 322 725 l 107 1003 m 268 -14 q 101 40 167 -14 q 35 197 35 93 q 105 360 35 303 q 314 417 175 417 l 485 417 l 485 429 q 452 486 485 468 q 340 504 419 504 q 115 469 226 504 l 115 626 q 242 660 167 647 q 393 672 317 672 q 644 606 554 672 q 733 406 733 540 l 733 0 l 506 0 l 493 53 q 268 -14 418 -14 m 357 139 q 485 192 436 139 l 485 274 l 358 274 q 293 257 314 274 q 272 206 272 240 q 357 139 272 139 z "},"â":{"ha":789,"x_min":35,"x_max":733,"o":"m 325 1003 l 483 1003 l 699 725 l 510 725 l 404 875 l 304 725 l 110 725 l 325 1003 m 268 -14 q 101 40 167 -14 q 35 197 35 93 q 105 360 35 303 q 314 417 175 417 l 485 417 l 485 429 q 452 486 485 468 q 340 504 419 504 q 115 469 226 504 l 115 626 q 242 660 167 647 q 393 672 317 672 q 644 606 554 672 q 733 406 733 540 l 733 0 l 506 0 l 493 53 q 268 -14 418 -14 m 357 139 q 485 192 436 139 l 485 274 l 358 274 q 293 257 314 274 q 272 206 272 240 q 357 139 272 139 z "},"ấ":{"ha":789,"x_min":35,"x_max":861,"o":"m 668 1115 l 861 1115 l 753 899 l 569 899 l 668 1115 m 304 936 l 496 936 l 693 725 l 486 725 l 400 835 l 314 725 l 107 725 l 304 936 m 268 -14 q 101 40 167 -14 q 35 197 35 93 q 105 360 35 303 q 314 417 175 417 l 485 417 l 485 429 q 452 486 485 468 q 340 504 419 504 q 115 469 226 504 l 115 626 q 242 660 167 647 q 393 672 317 672 q 644 606 554 672 q 733 406 733 540 l 733 0 l 506 0 l 493 53 q 268 -14 418 -14 m 357 139 q 485 192 436 139 l 485 274 l 358 274 q 293 257 314 274 q 272 206 272 240 q 357 139 272 139 z "},"ậ":{"ha":789,"x_min":35,"x_max":733,"o":"m 332 1003 l 490 1003 l 706 725 l 517 725 l 411 875 l 311 725 l 117 725 l 332 1003 m 268 -14 q 101 40 167 -14 q 35 197 35 93 q 105 360 35 303 q 314 417 175 417 l 485 417 l 485 429 q 452 486 485 468 q 340 504 419 504 q 115 469 226 504 l 115 626 q 242 660 167 647 q 393 672 317 672 q 644 606 554 672 q 733 406 733 540 l 733 0 l 506 0 l 493 53 q 268 -14 418 -14 m 357 139 q 485 192 436 139 l 485 274 l 358 274 q 293 257 314 274 q 272 206 272 240 q 357 139 272 139 m 321 -78 l 501 -78 l 501 -244 l 321 -244 l 321 -78 z "},"ầ":{"ha":789,"x_min":-42,"x_max":733,"o":"m -42 1115 l 151 1115 l 250 899 l 67 899 l -42 1115 m 324 936 l 515 936 l 713 725 l 506 725 l 419 835 l 333 725 l 126 725 l 324 936 m 268 -14 q 101 40 167 -14 q 35 197 35 93 q 105 360 35 303 q 314 417 175 417 l 485 417 l 485 429 q 452 486 485 468 q 340 504 419 504 q 115 469 226 504 l 115 626 q 242 660 167 647 q 393 672 317 672 q 644 606 554 672 q 733 406 733 540 l 733 0 l 506 0 l 493 53 q 268 -14 418 -14 m 357 139 q 485 192 436 139 l 485 274 l 358 274 q 293 257 314 274 q 272 206 272 240 q 357 139 272 139 z "},"ẩ":{"ha":789,"x_min":35,"x_max":860,"o":"m 585 968 q 663 981 642 969 q 685 1011 685 992 q 626 1042 685 1042 q 556 1032 592 1042 l 556 1132 q 693 1149 613 1149 q 817 1117 775 1149 q 860 1029 860 1086 q 835 951 860 981 q 758 913 810 921 l 758 867 l 585 867 l 585 968 m 306 936 l 497 936 l 694 725 l 488 725 l 401 835 l 315 725 l 108 725 l 306 936 m 268 -14 q 101 40 167 -14 q 35 197 35 93 q 105 360 35 303 q 314 417 175 417 l 485 417 l 485 429 q 452 486 485 468 q 340 504 419 504 q 115 469 226 504 l 115 626 q 242 660 167 647 q 393 672 317 672 q 644 606 554 672 q 733 406 733 540 l 733 0 l 506 0 l 493 53 q 268 -14 418 -14 m 357 139 q 485 192 436 139 l 485 274 l 358 274 q 293 257 314 274 q 272 206 272 240 q 357 139 272 139 z "},"ẫ":{"ha":789,"x_min":35,"x_max":733,"o":"m 540 956 q 481 963 510 956 q 408 986 451 971 q 347 1006 372 999 q 296 1013 321 1013 q 164 960 214 1013 l 164 1106 q 218 1138 183 1125 q 292 1150 253 1150 q 349 1143 322 1150 q 419 1121 376 1136 q 483 1100 456 1107 q 536 1093 510 1093 q 610 1108 578 1093 q 660 1147 643 1122 l 660 1000 q 613 969 646 982 q 540 956 579 956 m 306 935 l 497 935 l 694 724 l 488 724 l 401 833 l 315 724 l 108 724 l 306 935 m 268 -14 q 101 40 167 -14 q 35 197 35 93 q 105 360 35 303 q 314 417 175 417 l 485 417 l 485 429 q 452 486 485 468 q 340 504 419 504 q 115 469 226 504 l 115 626 q 242 660 167 647 q 393 672 317 672 q 644 606 554 672 q 733 406 733 540 l 733 0 l 506 0 l 493 53 q 268 -14 418 -14 m 357 139 q 485 192 436 139 l 485 274 l 358 274 q 293 257 314 274 q 272 206 272 240 q 357 139 272 139 z "},"ä":{"ha":789,"x_min":35,"x_max":733,"o":"m 178 929 l 360 929 l 360 763 l 178 763 l 178 929 m 478 929 l 660 929 l 660 763 l 478 763 l 478 929 m 268 -14 q 101 40 167 -14 q 35 197 35 93 q 105 360 35 303 q 314 417 175 417 l 485 417 l 485 429 q 452 486 485 468 q 340 504 419 504 q 115 469 226 504 l 115 626 q 242 660 167 647 q 393 672 317 672 q 644 606 554 672 q 733 406 733 540 l 733 0 l 506 0 l 493 53 q 268 -14 418 -14 m 357 139 q 485 192 436 139 l 485 274 l 358 274 q 293 257 314 274 q 272 206 272 240 q 357 139 272 139 z "},"ạ":{"ha":789,"x_min":35,"x_max":733,"o":"m 268 -14 q 101 40 167 -14 q 35 197 35 93 q 105 360 35 303 q 314 417 175 417 l 485 417 l 485 429 q 452 486 485 468 q 340 504 419 504 q 115 469 226 504 l 115 626 q 242 660 167 647 q 393 672 317 672 q 644 606 554 672 q 733 406 733 540 l 733 0 l 506 0 l 493 53 q 268 -14 418 -14 m 357 139 q 485 192 436 139 l 485 274 l 358 274 q 293 257 314 274 q 272 206 272 240 q 357 139 272 139 m 304 -78 l 485 -78 l 485 -244 l 304 -244 l 304 -78 z "},"à":{"ha":789,"x_min":35,"x_max":733,"o":"m 181 1011 l 385 1011 l 507 725 l 315 725 l 181 1011 m 268 -14 q 101 40 167 -14 q 35 197 35 93 q 105 360 35 303 q 314 417 175 417 l 485 417 l 485 429 q 452 486 485 468 q 340 504 419 504 q 115 469 226 504 l 115 626 q 242 660 167 647 q 393 672 317 672 q 644 606 554 672 q 733 406 733 540 l 733 0 l 506 0 l 493 53 q 268 -14 418 -14 m 357 139 q 485 192 436 139 l 485 274 l 358 274 q 293 257 314 274 q 272 206 272 240 q 357 139 272 139 z "},"ả":{"ha":789,"x_min":35,"x_max":733,"o":"m 297 836 q 392 855 365 840 q 419 897 419 869 q 336 943 419 943 q 254 932 299 943 l 254 1040 q 414 1060 315 1060 q 558 1021 507 1060 q 610 919 610 982 q 581 830 610 861 q 493 781 553 799 l 493 724 l 297 724 l 297 836 m 268 -14 q 101 40 167 -14 q 35 197 35 93 q 105 360 35 303 q 314 417 175 417 l 485 417 l 485 429 q 452 486 485 468 q 340 504 419 504 q 115 469 226 504 l 115 626 q 242 660 167 647 q 393 672 317 672 q 644 606 554 672 q 733 406 733 540 l 733 0 l 506 0 l 493 53 q 268 -14 418 -14 m 357 139 q 485 192 436 139 l 485 274 l 358 274 q 293 257 314 274 q 272 206 272 240 q 357 139 272 139 z "},"ɑ":{"ha":843,"x_min":35,"x_max":781,"o":"m 342 -14 q 113 63 190 -14 q 35 306 35 140 q 76 499 35 415 q 192 627 118 582 q 357 672 265 672 q 519 626 453 672 l 519 658 l 781 658 l 781 0 l 554 0 l 542 51 q 452 3 500 19 q 342 -14 404 -14 m 417 175 q 474 185 447 175 q 519 215 501 196 l 519 449 q 476 475 499 467 q 424 483 454 483 q 301 304 301 483 q 328 203 301 232 q 417 175 354 175 z "},"ā":{"ha":789,"x_min":35,"x_max":733,"o":"m 204 900 l 660 900 l 660 744 l 204 744 l 204 900 m 268 -14 q 101 40 167 -14 q 35 197 35 93 q 105 360 35 303 q 314 417 175 417 l 485 417 l 485 429 q 452 486 485 468 q 340 504 419 504 q 115 469 226 504 l 115 626 q 242 660 167 647 q 393 672 317 672 q 644 606 554 672 q 733 406 733 540 l 733 0 l 506 0 l 493 53 q 268 -14 418 -14 m 357 139 q 485 192 436 139 l 485 274 l 358 274 q 293 257 314 274 q 272 206 272 240 q 357 139 272 139 z "},"ą":{"ha":789,"x_min":35,"x_max":733,"o":"m 679 0 q 599 -124 599 -61 q 658 -179 599 -179 q 696 -175 676 -179 q 728 -164 715 -171 l 728 -283 q 666 -299 706 -292 q 586 -306 626 -306 q 453 -272 503 -306 q 403 -171 403 -237 q 431 -75 403 -119 q 506 0 458 -31 l 493 53 q 268 -14 418 -14 q 101 40 167 -14 q 35 197 35 93 q 105 360 35 303 q 314 417 175 417 l 485 417 l 485 429 q 452 486 485 468 q 340 504 419 504 q 115 469 226 504 l 115 626 q 242 660 167 647 q 393 672 317 672 q 644 606 554 672 q 733 406 733 540 l 733 0 l 679 0 m 485 274 l 358 274 q 293 257 314 274 q 272 206 272 240 q 357 139 272 139 q 485 192 436 139 l 485 274 z "},"å":{"ha":789,"x_min":35,"x_max":733,"o":"m 417 725 q 276 776 328 725 q 224 907 224 828 q 276 1038 224 986 q 417 1090 328 1090 q 558 1038 507 1090 q 610 907 610 986 q 558 776 610 828 q 417 725 507 725 m 417 832 q 474 853 454 832 q 494 907 494 874 q 474 960 494 939 q 417 982 454 982 q 360 960 381 982 q 339 907 339 939 q 360 853 339 875 q 417 832 381 832 m 268 -14 q 101 40 167 -14 q 35 197 35 93 q 105 360 35 303 q 314 417 175 417 l 485 417 l 485 429 q 452 486 485 468 q 340 504 419 504 q 115 469 226 504 l 115 626 q 242 660 167 647 q 393 672 317 672 q 644 606 554 672 q 733 406 733 540 l 733 0 l 506 0 l 493 53 q 268 -14 418 -14 m 357 139 q 485 192 436 139 l 485 274 l 358 274 q 293 257 314 274 q 272 206 272 240 q 357 139 272 139 z "},"ǻ":{"ha":789,"x_min":35,"x_max":733,"o":"m 424 1344 l 626 1344 l 493 1117 l 301 1117 l 424 1344 m 417 725 q 276 776 328 725 q 224 907 224 828 q 276 1038 224 986 q 417 1090 328 1090 q 558 1038 507 1090 q 610 907 610 986 q 558 776 610 828 q 417 725 507 725 m 417 832 q 474 853 454 832 q 494 907 494 874 q 474 960 494 939 q 417 982 454 982 q 360 960 381 982 q 339 907 339 939 q 360 853 339 875 q 417 832 381 832 m 268 -14 q 101 40 167 -14 q 35 197 35 93 q 105 360 35 303 q 314 417 175 417 l 485 417 l 485 429 q 452 486 485 468 q 340 504 419 504 q 115 469 226 504 l 115 626 q 242 660 167 647 q 393 672 317 672 q 644 606 554 672 q 733 406 733 540 l 733 0 l 506 0 l 493 53 q 268 -14 418 -14 m 357 139 q 485 192 436 139 l 485 274 l 358 274 q 293 257 314 274 q 272 206 272 240 q 357 139 272 139 z "},"ã":{"ha":789,"x_min":35,"x_max":733,"o":"m 553 736 q 490 744 521 736 q 415 767 460 751 q 351 788 376 781 q 301 794 325 794 q 165 740 219 794 l 165 904 q 222 937 186 924 q 297 950 258 950 q 356 943 328 950 q 426 921 383 936 q 492 899 464 907 q 549 892 519 892 q 623 907 590 892 q 674 947 656 922 l 674 782 q 626 749 660 763 q 553 736 592 736 m 268 -14 q 101 40 167 -14 q 35 197 35 93 q 105 360 35 303 q 314 417 175 417 l 485 417 l 485 429 q 452 486 485 468 q 340 504 419 504 q 115 469 226 504 l 115 626 q 242 660 167 647 q 393 672 317 672 q 644 606 554 672 q 733 406 733 540 l 733 0 l 506 0 l 493 53 q 268 -14 418 -14 m 357 139 q 485 192 436 139 l 485 274 l 358 274 q 293 257 314 274 q 272 206 272 240 q 357 139 272 139 z "},"æ":{"ha":1225,"x_min":35,"x_max":1190,"o":"m 288 -14 q 103 39 172 -14 q 35 197 35 92 q 105 360 35 303 q 314 417 175 417 l 485 417 l 485 429 q 452 486 485 468 q 340 504 419 504 q 115 469 226 504 l 115 626 q 242 660 167 647 q 393 672 317 672 q 519 658 465 672 q 618 617 574 644 q 719 658 660 643 q 847 672 779 672 q 1099 590 1007 672 q 1190 367 1190 508 l 1190 251 l 733 251 q 802 177 750 200 q 947 154 854 154 q 1060 164 1003 154 q 1154 189 1118 174 l 1154 32 q 883 -14 1057 -14 q 732 12 801 -14 q 618 83 663 38 q 288 -14 483 -14 m 965 393 l 965 417 q 856 506 965 506 q 765 481 793 506 q 733 404 736 456 l 733 393 l 965 393 m 357 139 q 485 188 436 139 l 485 274 l 358 274 q 293 257 314 274 q 272 206 272 240 q 357 139 272 139 z "},"ǽ":{"ha":1225,"x_min":35,"x_max":1190,"o":"m 624 1011 l 826 1011 l 693 725 l 501 725 l 624 1011 m 288 -14 q 103 39 172 -14 q 35 197 35 92 q 105 360 35 303 q 314 417 175 417 l 485 417 l 485 429 q 452 486 485 468 q 340 504 419 504 q 115 469 226 504 l 115 626 q 242 660 167 647 q 393 672 317 672 q 519 658 465 672 q 618 617 574 644 q 719 658 660 643 q 847 672 779 672 q 1099 590 1007 672 q 1190 367 1190 508 l 1190 251 l 733 251 q 802 177 750 200 q 947 154 854 154 q 1060 164 1003 154 q 1154 189 1118 174 l 1154 32 q 883 -14 1057 -14 q 732 12 801 -14 q 618 83 663 38 q 288 -14 483 -14 m 965 393 l 965 417 q 856 506 965 506 q 765 481 793 506 q 733 404 736 456 l 733 393 l 965 393 m 357 139 q 485 188 436 139 l 485 274 l 358 274 q 293 257 314 274 q 272 206 272 240 q 357 139 272 139 z "},"b":{"ha":843,"x_min":63,"x_max":808,"o":"m 501 -14 q 391 3 439 -14 q 301 51 343 19 l 289 0 l 63 0 l 63 936 l 324 936 l 324 635 q 402 663 357 653 q 493 672 447 672 q 808 335 808 672 q 726 74 808 163 q 501 -14 644 -14 m 426 175 q 515 212 488 175 q 542 332 542 249 q 514 449 542 414 q 426 483 486 483 q 324 449 363 483 l 324 215 q 426 175 367 175 z "},"c":{"ha":703,"x_min":35,"x_max":668,"o":"m 422 -14 q 137 73 239 -14 q 35 329 35 160 q 139 585 35 499 q 424 672 243 672 q 556 662 499 672 q 667 626 614 651 l 667 443 q 481 482 585 482 q 345 447 389 482 q 301 329 301 413 q 344 213 301 249 q 481 176 388 176 q 668 222 579 176 l 668 31 q 422 -14 569 -14 z "},"ć":{"ha":703,"x_min":35,"x_max":668,"o":"m 422 1011 l 625 1011 l 492 725 l 300 725 l 422 1011 m 422 -14 q 137 73 239 -14 q 35 329 35 160 q 139 585 35 499 q 424 672 243 672 q 556 662 499 672 q 667 626 614 651 l 667 443 q 481 482 585 482 q 345 447 389 482 q 301 329 301 413 q 344 213 301 249 q 481 176 388 176 q 668 222 579 176 l 668 31 q 422 -14 569 -14 z "},"č":{"ha":703,"x_min":35,"x_max":671,"o":"m 82 1003 l 276 1003 l 376 851 l 482 1003 l 671 1003 l 456 725 l 297 725 l 82 1003 m 422 -14 q 137 73 239 -14 q 35 329 35 160 q 139 585 35 499 q 424 672 243 672 q 556 662 499 672 q 667 626 614 651 l 667 443 q 481 482 585 482 q 345 447 389 482 q 301 329 301 413 q 344 213 301 249 q 481 176 388 176 q 668 222 579 176 l 668 31 q 422 -14 569 -14 z "},"ç":{"ha":703,"x_min":35,"x_max":668,"o":"m 668 31 q 478 -12 585 -6 l 461 -57 q 578 -92 540 -57 q 617 -187 617 -128 q 560 -295 617 -257 q 393 -333 504 -333 q 331 -330 368 -333 q 279 -322 294 -326 l 279 -219 q 361 -231 319 -231 q 438 -220 415 -231 q 461 -183 461 -210 q 442 -149 461 -157 q 386 -140 424 -140 l 299 -140 l 336 -8 q 113 96 192 11 q 35 329 35 181 q 139 585 35 499 q 424 672 243 672 q 556 662 499 672 q 667 626 614 651 l 667 443 q 481 482 585 482 q 345 447 389 482 q 301 329 301 413 q 344 213 301 249 q 481 176 388 176 q 668 222 579 176 l 668 31 z "},"ĉ":{"ha":703,"x_min":35,"x_max":693,"o":"m 319 1003 l 478 1003 l 693 725 l 504 725 l 399 875 l 299 725 l 104 725 l 319 1003 m 422 -14 q 137 73 239 -14 q 35 329 35 160 q 139 585 35 499 q 424 672 243 672 q 556 662 499 672 q 667 626 614 651 l 667 443 q 481 482 585 482 q 345 447 389 482 q 301 329 301 413 q 344 213 301 249 q 481 176 388 176 q 668 222 579 176 l 668 31 q 422 -14 569 -14 z "},"ċ":{"ha":703,"x_min":35,"x_max":668,"o":"m 339 929 l 519 929 l 519 763 l 339 763 l 339 929 m 422 -14 q 137 73 239 -14 q 35 329 35 160 q 139 585 35 499 q 424 672 243 672 q 556 662 499 672 q 667 626 614 651 l 667 443 q 481 482 585 482 q 345 447 389 482 q 301 329 301 413 q 344 213 301 249 q 481 176 388 176 q 668 222 579 176 l 668 31 q 422 -14 569 -14 z "},"d":{"ha":843,"x_min":35,"x_max":781,"o":"m 342 -14 q 115 63 194 -14 q 35 308 35 139 q 77 507 35 425 q 191 631 119 589 q 350 672 263 672 q 441 663 396 672 q 519 635 486 653 l 519 936 l 781 936 l 781 0 l 554 0 l 542 51 q 452 3 500 19 q 342 -14 404 -14 m 417 175 q 519 215 476 175 l 519 449 q 417 483 481 483 q 333 437 364 483 q 301 307 301 390 q 313 224 301 253 q 349 185 325 196 q 417 175 374 175 z "},"ð":{"ha":793,"x_min":35,"x_max":793,"o":"m 407 -14 q 124 62 214 -14 q 35 281 35 138 q 117 493 35 422 q 353 564 200 564 q 452 551 400 564 q 539 515 504 538 l 539 549 q 519 667 539 626 l 372 604 l 372 683 l 465 724 q 357 744 425 744 q 154 701 253 744 l 154 869 q 400 908 257 908 q 671 813 571 908 l 793 865 l 793 785 l 719 753 q 783 508 783 654 l 783 349 q 407 -14 783 -14 m 404 157 q 506 190 472 157 q 539 296 539 224 l 539 363 q 403 404 469 404 q 299 373 331 404 q 268 281 268 342 q 302 188 268 219 q 404 157 336 157 z "},"ď":{"ha":1113,"x_min":35,"x_max":1161,"o":"m 946 992 l 1161 992 l 1017 683 l 814 683 l 946 992 m 342 -14 q 115 63 194 -14 q 35 308 35 139 q 77 507 35 425 q 191 631 119 589 q 350 672 263 672 q 441 663 396 672 q 519 635 486 653 l 519 936 l 781 936 l 781 0 l 554 0 l 542 51 q 452 3 500 19 q 342 -14 404 -14 m 417 175 q 519 215 476 175 l 519 449 q 417 483 481 483 q 333 437 364 483 q 301 307 301 390 q 313 224 301 253 q 349 185 325 196 q 417 175 374 175 z "},"đ":{"ha":843,"x_min":35,"x_max":824,"o":"m 824 717 l 781 717 l 781 0 l 554 0 l 542 51 q 452 3 500 19 q 342 -14 404 -14 q 115 63 194 -14 q 35 308 35 139 q 77 507 35 425 q 191 631 119 589 q 350 672 263 672 q 441 663 396 672 q 519 635 486 653 l 519 717 l 329 717 l 329 874 l 519 874 l 519 936 l 781 936 l 781 874 l 824 874 l 824 717 m 519 449 q 417 483 481 483 q 333 437 364 483 q 301 307 301 390 q 313 224 301 253 q 349 185 325 196 q 417 175 374 175 q 519 215 476 175 l 519 449 z "},"ḍ":{"ha":843,"x_min":35,"x_max":781,"o":"m 342 -14 q 115 63 194 -14 q 35 308 35 139 q 77 507 35 425 q 191 631 119 589 q 350 672 263 672 q 441 663 396 672 q 519 635 486 653 l 519 936 l 781 936 l 781 0 l 554 0 l 542 51 q 452 3 500 19 q 342 -14 404 -14 m 417 175 q 519 215 476 175 l 519 449 q 417 483 481 483 q 333 437 364 483 q 301 307 301 390 q 313 224 301 253 q 349 185 325 196 q 417 175 374 175 m 379 -107 l 560 -107 l 560 -274 l 379 -274 l 379 -107 z "},"ḏ":{"ha":843,"x_min":35,"x_max":781,"o":"m 342 -14 q 115 63 194 -14 q 35 308 35 139 q 77 507 35 425 q 191 631 119 589 q 350 672 263 672 q 441 663 396 672 q 519 635 486 653 l 519 936 l 781 936 l 781 0 l 554 0 l 542 51 q 452 3 500 19 q 342 -14 404 -14 m 417 175 q 519 215 476 175 l 519 449 q 417 483 481 483 q 333 437 364 483 q 301 307 301 390 q 313 224 301 253 q 349 185 325 196 q 417 175 374 175 m 201 -87 l 657 -87 l 657 -243 l 201 -243 l 201 -87 z "},"e":{"ha":767,"x_min":35,"x_max":732,"o":"m 425 -14 q 141 74 247 -14 q 35 328 35 163 q 125 581 35 489 q 389 672 215 672 q 640 590 549 672 q 732 367 732 508 l 732 251 l 275 251 q 344 177 292 200 q 489 154 396 154 q 602 164 544 154 q 696 189 660 174 l 696 32 q 425 -14 599 -14 m 507 393 l 507 417 q 397 506 507 506 q 303 478 332 506 q 275 393 275 450 l 507 393 z "},"é":{"ha":767,"x_min":35,"x_max":732,"o":"m 424 1011 l 626 1011 l 493 725 l 301 725 l 424 1011 m 425 -14 q 141 74 247 -14 q 35 328 35 163 q 125 581 35 489 q 389 672 215 672 q 640 590 549 672 q 732 367 732 508 l 732 251 l 275 251 q 344 177 292 200 q 489 154 396 154 q 602 164 544 154 q 696 189 660 174 l 696 32 q 425 -14 599 -14 m 507 393 l 507 417 q 397 506 507 506 q 303 478 332 506 q 275 393 275 450 l 507 393 z "},"ĕ":{"ha":767,"x_min":35,"x_max":732,"o":"m 399 726 q 208 794 279 726 q 136 986 136 863 l 306 986 q 399 869 306 869 q 493 986 493 869 l 663 986 q 591 794 663 863 q 399 726 519 726 m 425 -14 q 141 74 247 -14 q 35 328 35 163 q 125 581 35 489 q 389 672 215 672 q 640 590 549 672 q 732 367 732 508 l 732 251 l 275 251 q 344 177 292 200 q 489 154 396 154 q 602 164 544 154 q 696 189 660 174 l 696 32 q 425 -14 599 -14 m 507 393 l 507 417 q 397 506 507 506 q 303 478 332 506 q 275 393 275 450 l 507 393 z "},"ě":{"ha":767,"x_min":35,"x_max":732,"o":"m 110 1003 l 304 1003 l 404 851 l 510 1003 l 699 1003 l 483 725 l 325 725 l 110 1003 m 425 -14 q 141 74 247 -14 q 35 328 35 163 q 125 581 35 489 q 389 672 215 672 q 640 590 549 672 q 732 367 732 508 l 732 251 l 275 251 q 344 177 292 200 q 489 154 396 154 q 602 164 544 154 q 696 189 660 174 l 696 32 q 425 -14 599 -14 m 507 393 l 507 417 q 397 506 507 506 q 303 478 332 506 q 275 393 275 450 l 507 393 z "},"ê":{"ha":767,"x_min":35,"x_max":732,"o":"m 315 1003 l 474 1003 l 689 725 l 500 725 l 394 875 l 294 725 l 100 725 l 315 1003 m 425 -14 q 141 74 247 -14 q 35 328 35 163 q 125 581 35 489 q 389 672 215 672 q 640 590 549 672 q 732 367 732 508 l 732 251 l 275 251 q 344 177 292 200 q 489 154 396 154 q 602 164 544 154 q 696 189 660 174 l 696 32 q 425 -14 599 -14 m 507 393 l 507 417 q 397 506 507 506 q 303 478 332 506 q 275 393 275 450 l 507 393 z "},"ế":{"ha":767,"x_min":35,"x_max":846,"o":"m 653 1115 l 846 1115 l 738 899 l 554 899 l 653 1115 m 289 936 l 481 936 l 678 725 l 471 725 l 385 835 l 299 725 l 92 725 l 289 936 m 425 -14 q 141 74 247 -14 q 35 328 35 163 q 125 581 35 489 q 389 672 215 672 q 640 590 549 672 q 732 367 732 508 l 732 251 l 275 251 q 344 177 292 200 q 489 154 396 154 q 602 164 544 154 q 696 189 660 174 l 696 32 q 425 -14 599 -14 m 507 393 l 507 417 q 397 506 507 506 q 303 478 332 506 q 275 393 275 450 l 507 393 z "},"ệ":{"ha":767,"x_min":35,"x_max":732,"o":"m 317 1003 l 475 1003 l 690 725 l 501 725 l 396 875 l 296 725 l 101 725 l 317 1003 m 425 -14 q 141 74 247 -14 q 35 328 35 163 q 125 581 35 489 q 389 672 215 672 q 640 590 549 672 q 732 367 732 508 l 732 251 l 275 251 q 344 177 292 200 q 489 154 396 154 q 602 164 544 154 q 696 189 660 174 l 696 32 q 425 -14 599 -14 m 507 393 l 507 417 q 397 506 507 506 q 303 478 332 506 q 275 393 275 450 l 507 393 m 306 -78 l 486 -78 l 486 -244 l 306 -244 l 306 -78 z "},"ề":{"ha":767,"x_min":-76,"x_max":732,"o":"m -76 1115 l 117 1115 l 215 899 l 32 899 l -76 1115 m 289 936 l 481 936 l 678 725 l 471 725 l 385 835 l 299 725 l 92 725 l 289 936 m 425 -14 q 141 74 247 -14 q 35 328 35 163 q 125 581 35 489 q 389 672 215 672 q 640 590 549 672 q 732 367 732 508 l 732 251 l 275 251 q 344 177 292 200 q 489 154 396 154 q 602 164 544 154 q 696 189 660 174 l 696 32 q 425 -14 599 -14 m 507 393 l 507 417 q 397 506 507 506 q 303 478 332 506 q 275 393 275 450 l 507 393 z "},"ể":{"ha":767,"x_min":35,"x_max":849,"o":"m 574 968 q 652 981 631 969 q 674 1011 674 992 q 615 1042 674 1042 q 544 1032 581 1042 l 544 1132 q 682 1149 601 1149 q 806 1117 764 1149 q 849 1029 849 1086 q 824 951 849 981 q 747 913 799 921 l 747 867 l 574 867 l 574 968 m 294 936 l 486 936 l 683 725 l 476 725 l 390 835 l 304 725 l 97 725 l 294 936 m 425 -14 q 141 74 247 -14 q 35 328 35 163 q 125 581 35 489 q 389 672 215 672 q 640 590 549 672 q 732 367 732 508 l 732 251 l 275 251 q 344 177 292 200 q 489 154 396 154 q 602 164 544 154 q 696 189 660 174 l 696 32 q 425 -14 599 -14 m 507 393 l 507 417 q 397 506 507 506 q 303 478 332 506 q 275 393 275 450 l 507 393 z "},"ễ":{"ha":767,"x_min":35,"x_max":732,"o":"m 531 957 q 471 965 500 957 q 399 988 442 972 q 337 1007 363 1000 q 286 1014 311 1014 q 154 961 204 1014 l 154 1107 q 208 1139 174 1126 q 282 1151 243 1151 q 340 1144 313 1151 q 410 1122 367 1138 q 473 1101 446 1108 q 526 1094 500 1094 q 601 1109 568 1094 q 650 1149 633 1124 l 650 1001 q 603 970 636 983 q 531 957 569 957 m 296 936 l 488 936 l 685 725 l 478 725 l 392 835 l 306 725 l 99 725 l 296 936 m 425 -14 q 141 74 247 -14 q 35 328 35 163 q 125 581 35 489 q 389 672 215 672 q 640 590 549 672 q 732 367 732 508 l 732 251 l 275 251 q 344 177 292 200 q 489 154 396 154 q 602 164 544 154 q 696 189 660 174 l 696 32 q 425 -14 599 -14 m 507 393 l 507 417 q 397 506 507 506 q 303 478 332 506 q 275 393 275 450 l 507 393 z "},"ë":{"ha":767,"x_min":35,"x_max":732,"o":"m 153 929 l 335 929 l 335 763 l 153 763 l 153 929 m 453 929 l 635 929 l 635 763 l 453 763 l 453 929 m 425 -14 q 141 74 247 -14 q 35 328 35 163 q 125 581 35 489 q 389 672 215 672 q 640 590 549 672 q 732 367 732 508 l 732 251 l 275 251 q 344 177 292 200 q 489 154 396 154 q 602 164 544 154 q 696 189 660 174 l 696 32 q 425 -14 599 -14 m 507 393 l 507 417 q 397 506 507 506 q 303 478 332 506 q 275 393 275 450 l 507 393 z "},"ė":{"ha":767,"x_min":35,"x_max":732,"o":"m 306 929 l 486 929 l 486 763 l 306 763 l 306 929 m 425 -14 q 141 74 247 -14 q 35 328 35 163 q 125 581 35 489 q 389 672 215 672 q 640 590 549 672 q 732 367 732 508 l 732 251 l 275 251 q 344 177 292 200 q 489 154 396 154 q 602 164 544 154 q 696 189 660 174 l 696 32 q 425 -14 599 -14 m 507 393 l 507 417 q 397 506 507 506 q 303 478 332 506 q 275 393 275 450 l 507 393 z "},"ẹ":{"ha":767,"x_min":35,"x_max":732,"o":"m 425 -14 q 141 74 247 -14 q 35 328 35 163 q 125 581 35 489 q 389 672 215 672 q 640 590 549 672 q 732 367 732 508 l 732 251 l 275 251 q 344 177 292 200 q 489 154 396 154 q 602 164 544 154 q 696 189 660 174 l 696 32 q 425 -14 599 -14 m 507 393 l 507 417 q 397 506 507 506 q 303 478 332 506 q 275 393 275 450 l 507 393 m 308 -78 l 489 -78 l 489 -244 l 308 -244 l 308 -78 z "},"è":{"ha":767,"x_min":35,"x_max":732,"o":"m 164 1011 l 368 1011 l 490 725 l 299 725 l 164 1011 m 425 -14 q 141 74 247 -14 q 35 328 35 163 q 125 581 35 489 q 389 672 215 672 q 640 590 549 672 q 732 367 732 508 l 732 251 l 275 251 q 344 177 292 200 q 489 154 396 154 q 602 164 544 154 q 696 189 660 174 l 696 32 q 425 -14 599 -14 m 507 393 l 507 417 q 397 506 507 506 q 303 478 332 506 q 275 393 275 450 l 507 393 z "},"ẻ":{"ha":767,"x_min":35,"x_max":732,"o":"m 293 838 q 388 856 361 842 q 415 899 415 871 q 332 944 415 944 q 250 933 294 944 l 250 1042 q 410 1061 311 1061 q 554 1022 503 1061 q 606 921 606 983 q 577 831 606 863 q 489 782 549 800 l 489 725 l 293 725 l 293 838 m 425 -14 q 141 74 247 -14 q 35 328 35 163 q 125 581 35 489 q 389 672 215 672 q 640 590 549 672 q 732 367 732 508 l 732 251 l 275 251 q 344 177 292 200 q 489 154 396 154 q 602 164 544 154 q 696 189 660 174 l 696 32 q 425 -14 599 -14 m 507 393 l 507 417 q 397 506 507 506 q 303 478 332 506 q 275 393 275 450 l 507 393 z "},"ē":{"ha":767,"x_min":35,"x_max":732,"o":"m 167 931 l 622 931 l 622 775 l 167 775 l 167 931 m 425 -14 q 141 74 247 -14 q 35 328 35 163 q 125 581 35 489 q 389 672 215 672 q 640 590 549 672 q 732 367 732 508 l 732 251 l 275 251 q 344 177 292 200 q 489 154 396 154 q 602 164 544 154 q 696 189 660 174 l 696 32 q 425 -14 599 -14 m 507 393 l 507 417 q 397 506 507 506 q 303 478 332 506 q 275 393 275 450 l 507 393 z "},"ę":{"ha":767,"x_min":35,"x_max":732,"o":"m 732 251 l 275 251 q 344 177 292 200 q 489 154 396 154 q 602 164 544 154 q 696 189 660 174 l 696 32 q 586 -1 651 11 q 507 -124 507 -62 q 567 -179 507 -179 q 604 -175 585 -179 q 636 -164 624 -171 l 636 -283 q 574 -299 614 -292 q 494 -306 535 -306 q 361 -272 411 -306 q 311 -171 311 -237 q 333 -83 311 -124 q 394 -14 356 -43 q 132 81 229 -7 q 35 328 35 169 q 125 581 35 489 q 389 672 215 672 q 640 590 549 672 q 732 367 732 508 l 732 251 m 507 417 q 397 506 507 506 q 303 478 332 506 q 275 393 275 450 l 507 393 l 507 417 z "},"ẽ":{"ha":767,"x_min":35,"x_max":732,"o":"m 542 736 q 479 744 510 736 q 404 767 449 751 q 340 788 365 781 q 290 794 314 794 q 154 740 208 794 l 154 904 q 211 937 175 924 q 286 950 247 950 q 344 943 317 950 q 415 921 372 936 q 481 899 453 907 q 538 892 508 892 q 612 907 579 892 q 663 947 644 922 l 663 782 q 615 749 649 763 q 542 736 581 736 m 425 -14 q 141 74 247 -14 q 35 328 35 163 q 125 581 35 489 q 389 672 215 672 q 640 590 549 672 q 732 367 732 508 l 732 251 l 275 251 q 344 177 292 200 q 489 154 396 154 q 602 164 544 154 q 696 189 660 174 l 696 32 q 425 -14 599 -14 m 507 393 l 507 417 q 397 506 507 506 q 303 478 332 506 q 275 393 275 450 l 507 393 z "},"f":{"ha":503,"x_min":7,"x_max":524,"o":"m 92 465 l 7 465 l 7 658 l 92 658 l 92 701 q 158 888 92 817 q 347 958 224 958 q 524 926 447 958 l 524 757 q 440 772 481 772 q 372 754 392 772 q 353 696 353 736 l 353 658 l 508 658 l 497 465 l 353 465 l 353 0 l 92 0 l 92 465 z "},"g":{"ha":785,"x_min":35,"x_max":771,"o":"m 351 -244 q 186 -235 271 -244 q 54 -210 101 -226 l 54 -43 q 186 -71 107 -61 q 336 -81 265 -81 q 454 -73 414 -81 q 494 -46 494 -65 q 481 -24 494 -29 q 428 -19 467 -19 l 254 -19 q 97 13 151 -19 q 43 111 43 46 q 69 188 43 156 q 144 239 94 221 q 61 313 88 268 q 35 425 35 357 q 372 672 35 672 q 447 667 404 672 q 513 658 490 663 l 771 658 l 765 500 l 678 500 q 703 422 703 468 q 642 260 703 318 q 458 203 581 203 q 381 208 428 203 q 306 169 306 200 q 317 151 306 156 q 353 146 328 146 l 504 146 q 665 98 607 146 q 722 -40 722 50 q 630 -192 722 -139 q 351 -244 538 -244 m 374 346 q 458 366 435 346 q 482 436 482 386 q 458 508 482 486 q 374 529 433 529 q 291 508 317 529 q 265 436 265 486 q 290 367 265 389 q 374 346 314 346 z "},"ğ":{"ha":785,"x_min":35,"x_max":771,"o":"m 396 726 q 205 794 276 726 q 133 986 133 863 l 303 986 q 396 869 303 869 q 490 986 490 869 l 660 986 q 588 794 660 863 q 396 726 517 726 m 351 -244 q 186 -235 271 -244 q 54 -210 101 -226 l 54 -43 q 186 -71 107 -61 q 336 -81 265 -81 q 454 -73 414 -81 q 494 -46 494 -65 q 481 -24 494 -29 q 428 -19 467 -19 l 254 -19 q 97 13 151 -19 q 43 111 43 46 q 69 188 43 156 q 144 239 94 221 q 61 313 88 268 q 35 425 35 357 q 372 672 35 672 q 447 667 404 672 q 513 658 490 663 l 771 658 l 765 500 l 678 500 q 703 422 703 468 q 642 260 703 318 q 458 203 581 203 q 381 208 428 203 q 306 169 306 200 q 317 151 306 156 q 353 146 328 146 l 504 146 q 665 98 607 146 q 722 -40 722 50 q 630 -192 722 -139 q 351 -244 538 -244 m 374 346 q 458 366 435 346 q 482 436 482 386 q 458 508 482 486 q 374 529 433 529 q 291 508 317 529 q 265 436 265 486 q 290 367 265 389 q 374 346 314 346 z "},"ǧ":{"ha":785,"x_min":35,"x_max":771,"o":"m 113 1003 l 307 1003 l 407 851 l 513 1003 l 701 1003 l 486 725 l 328 725 l 113 1003 m 351 -244 q 186 -235 271 -244 q 54 -210 101 -226 l 54 -43 q 186 -71 107 -61 q 336 -81 265 -81 q 454 -73 414 -81 q 494 -46 494 -65 q 481 -24 494 -29 q 428 -19 467 -19 l 254 -19 q 97 13 151 -19 q 43 111 43 46 q 69 188 43 156 q 144 239 94 221 q 61 313 88 268 q 35 425 35 357 q 372 672 35 672 q 447 667 404 672 q 513 658 490 663 l 771 658 l 765 500 l 678 500 q 703 422 703 468 q 642 260 703 318 q 458 203 581 203 q 381 208 428 203 q 306 169 306 200 q 317 151 306 156 q 353 146 328 146 l 504 146 q 665 98 607 146 q 722 -40 722 50 q 630 -192 722 -139 q 351 -244 538 -244 m 374 346 q 458 366 435 346 q 482 436 482 386 q 458 508 482 486 q 374 529 433 529 q 291 508 317 529 q 265 436 265 486 q 290 367 265 389 q 374 346 314 346 z "},"ĝ":{"ha":785,"x_min":35,"x_max":771,"o":"m 321 1003 l 479 1003 l 694 725 l 506 725 l 400 875 l 300 725 l 106 725 l 321 1003 m 351 -244 q 186 -235 271 -244 q 54 -210 101 -226 l 54 -43 q 186 -71 107 -61 q 336 -81 265 -81 q 454 -73 414 -81 q 494 -46 494 -65 q 481 -24 494 -29 q 428 -19 467 -19 l 254 -19 q 97 13 151 -19 q 43 111 43 46 q 69 188 43 156 q 144 239 94 221 q 61 313 88 268 q 35 425 35 357 q 372 672 35 672 q 447 667 404 672 q 513 658 490 663 l 771 658 l 765 500 l 678 500 q 703 422 703 468 q 642 260 703 318 q 458 203 581 203 q 381 208 428 203 q 306 169 306 200 q 317 151 306 156 q 353 146 328 146 l 504 146 q 665 98 607 146 q 722 -40 722 50 q 630 -192 722 -139 q 351 -244 538 -244 m 374 346 q 458 366 435 346 q 482 436 482 386 q 458 508 482 486 q 374 529 433 529 q 291 508 317 529 q 265 436 265 486 q 290 367 265 389 q 374 346 314 346 z "},"ģ":{"ha":785,"x_min":35,"x_max":771,"o":"m 360 1038 l 540 1038 l 493 725 l 281 725 l 360 1038 m 351 -244 q 186 -235 271 -244 q 54 -210 101 -226 l 54 -43 q 186 -71 107 -61 q 336 -81 265 -81 q 454 -73 414 -81 q 494 -46 494 -65 q 481 -24 494 -29 q 428 -19 467 -19 l 254 -19 q 97 13 151 -19 q 43 111 43 46 q 69 188 43 156 q 144 239 94 221 q 61 313 88 268 q 35 425 35 357 q 372 672 35 672 q 447 667 404 672 q 513 658 490 663 l 771 658 l 765 500 l 678 500 q 703 422 703 468 q 642 260 703 318 q 458 203 581 203 q 381 208 428 203 q 306 169 306 200 q 317 151 306 156 q 353 146 328 146 l 504 146 q 665 98 607 146 q 722 -40 722 50 q 630 -192 722 -139 q 351 -244 538 -244 m 374 346 q 458 366 435 346 q 482 436 482 386 q 458 508 482 486 q 374 529 433 529 q 291 508 317 529 q 265 436 265 486 q 290 367 265 389 q 374 346 314 346 z "},"ġ":{"ha":785,"x_min":35,"x_max":771,"o":"m 294 908 l 475 908 l 475 742 l 294 742 l 294 908 m 351 -244 q 186 -235 271 -244 q 54 -210 101 -226 l 54 -43 q 186 -71 107 -61 q 336 -81 265 -81 q 454 -73 414 -81 q 494 -46 494 -65 q 481 -24 494 -29 q 428 -19 467 -19 l 254 -19 q 97 13 151 -19 q 43 111 43 46 q 69 188 43 156 q 144 239 94 221 q 61 313 88 268 q 35 425 35 357 q 372 672 35 672 q 447 667 404 672 q 513 658 490 663 l 771 658 l 765 500 l 678 500 q 703 422 703 468 q 642 260 703 318 q 458 203 581 203 q 381 208 428 203 q 306 169 306 200 q 317 151 306 156 q 353 146 328 146 l 504 146 q 665 98 607 146 q 722 -40 722 50 q 630 -192 722 -139 q 351 -244 538 -244 m 374 346 q 458 366 435 346 q 482 436 482 386 q 458 508 482 486 q 374 529 433 529 q 291 508 317 529 q 265 436 265 486 q 290 367 265 389 q 374 346 314 346 z "},"ḡ":{"ha":785,"x_min":35,"x_max":771,"o":"m 160 921 l 615 921 l 615 765 l 160 765 l 160 921 m 351 -244 q 186 -235 271 -244 q 54 -210 101 -226 l 54 -43 q 186 -71 107 -61 q 336 -81 265 -81 q 454 -73 414 -81 q 494 -46 494 -65 q 481 -24 494 -29 q 428 -19 467 -19 l 254 -19 q 97 13 151 -19 q 43 111 43 46 q 69 188 43 156 q 144 239 94 221 q 61 313 88 268 q 35 425 35 357 q 372 672 35 672 q 447 667 404 672 q 513 658 490 663 l 771 658 l 765 500 l 678 500 q 703 422 703 468 q 642 260 703 318 q 458 203 581 203 q 381 208 428 203 q 306 169 306 200 q 317 151 306 156 q 353 146 328 146 l 504 146 q 665 98 607 146 q 722 -40 722 50 q 630 -192 722 -139 q 351 -244 538 -244 m 374 346 q 458 366 435 346 q 482 436 482 386 q 458 508 482 486 q 374 529 433 529 q 291 508 317 529 q 265 436 265 486 q 290 367 265 389 q 374 346 314 346 z "},"h":{"ha":839,"x_min":63,"x_max":783,"o":"m 63 936 l 324 936 l 324 618 q 413 657 360 642 q 522 672 465 672 q 720 609 657 672 q 783 414 783 546 l 783 0 l 521 0 l 521 394 q 501 460 521 440 q 435 479 482 479 q 375 466 406 479 q 324 432 344 453 l 324 0 l 63 0 l 63 936 z "},"ħ":{"ha":839,"x_min":7,"x_max":783,"o":"m 522 672 q 720 609 657 672 q 783 414 783 546 l 783 0 l 521 0 l 521 394 q 501 460 521 440 q 435 479 482 479 q 375 466 406 479 q 324 432 344 453 l 324 0 l 63 0 l 63 718 l 7 718 l 7 871 l 63 871 l 63 936 l 324 936 l 324 871 l 478 871 l 478 718 l 324 718 l 324 618 q 413 657 360 642 q 522 672 465 672 z "},"ḫ":{"ha":839,"x_min":63,"x_max":783,"o":"m 63 936 l 324 936 l 324 618 q 413 657 360 642 q 522 672 465 672 q 720 609 657 672 q 783 414 783 546 l 783 0 l 521 0 l 521 394 q 501 460 521 440 q 435 479 482 479 q 375 466 406 479 q 324 432 344 453 l 324 0 l 63 0 l 63 936 m 421 -329 q 230 -261 301 -329 q 158 -69 158 -193 l 328 -69 q 421 -186 328 -186 q 515 -69 515 -186 l 685 -69 q 613 -261 685 -193 q 421 -329 542 -329 z "},"ĥ":{"ha":839,"x_min":63,"x_max":783,"o":"m 282 1261 l 440 1261 l 656 983 l 467 983 l 361 1133 l 261 983 l 67 983 l 282 1261 m 63 936 l 324 936 l 324 618 q 413 657 360 642 q 522 672 465 672 q 720 609 657 672 q 783 414 783 546 l 783 0 l 521 0 l 521 394 q 501 460 521 440 q 435 479 482 479 q 375 466 406 479 q 324 432 344 453 l 324 0 l 63 0 l 63 936 z "},"ḥ":{"ha":839,"x_min":63,"x_max":783,"o":"m 63 936 l 324 936 l 324 618 q 413 657 360 642 q 522 672 465 672 q 720 609 657 672 q 783 414 783 546 l 783 0 l 521 0 l 521 394 q 501 460 521 440 q 435 479 482 479 q 375 466 406 479 q 324 432 344 453 l 324 0 l 63 0 l 63 936 m 335 -107 l 515 -107 l 515 -274 l 335 -274 l 335 -107 z "},"i":{"ha":482,"x_min":63,"x_max":419,"o":"m 138 935 l 419 935 l 419 746 l 138 746 l 138 935 m 158 468 l 63 468 l 85 658 l 419 658 l 419 0 l 158 0 l 158 468 z "},"ı":{"ha":482,"x_min":63,"x_max":419,"o":"m 158 468 l 63 468 l 85 658 l 419 658 l 419 0 l 158 0 l 158 468 z "},"í":{"ha":482,"x_min":63,"x_max":483,"o":"m 281 1011 l 483 1011 l 350 725 l 158 725 l 281 1011 m 158 468 l 63 468 l 85 658 l 419 658 l 419 0 l 158 0 l 158 468 z "},"ĭ":{"ha":482,"x_min":-21,"x_max":506,"o":"m 242 726 q 51 794 122 726 q -21 986 -21 863 l 149 986 q 242 869 149 869 q 336 986 336 869 l 506 986 q 434 794 506 863 q 242 726 363 726 m 158 468 l 63 468 l 85 658 l 419 658 l 419 0 l 158 0 l 158 468 z "},"ǐ":{"ha":482,"x_min":-56,"x_max":533,"o":"m -56 1003 l 139 1003 l 239 851 l 344 1003 l 533 1003 l 318 725 l 160 725 l -56 1003 m 158 468 l 63 468 l 85 658 l 419 658 l 419 0 l 158 0 l 158 468 z "},"î":{"ha":482,"x_min":-50,"x_max":539,"o":"m 165 1003 l 324 1003 l 539 725 l 350 725 l 244 875 l 144 725 l -50 725 l 165 1003 m 158 468 l 63 468 l 85 658 l 419 658 l 419 0 l 158 0 l 158 468 z "},"ï":{"ha":482,"x_min":3,"x_max":485,"o":"m 3 929 l 185 929 l 185 763 l 3 763 l 3 929 m 303 929 l 485 929 l 485 763 l 303 763 l 303 929 m 158 468 l 63 468 l 85 658 l 419 658 l 419 0 l 158 0 l 158 468 z "},"ị":{"ha":482,"x_min":63,"x_max":419,"o":"m 138 935 l 419 935 l 419 746 l 138 746 l 138 935 m 158 468 l 63 468 l 85 658 l 419 658 l 419 0 l 158 0 l 158 468 m 192 -78 l 372 -78 l 372 -244 l 192 -244 l 192 -78 z "},"ì":{"ha":482,"x_min":49,"x_max":419,"o":"m 49 1011 l 253 1011 l 375 725 l 183 725 l 49 1011 m 158 468 l 63 468 l 85 658 l 419 658 l 419 0 l 158 0 l 158 468 z "},"ỉ":{"ha":482,"x_min":63,"x_max":446,"o":"m 133 838 q 228 856 201 842 q 256 899 256 871 q 172 944 256 944 q 90 933 135 944 l 90 1042 q 250 1061 151 1061 q 394 1022 343 1061 q 446 921 446 983 q 417 831 446 863 q 329 782 389 800 l 329 725 l 133 725 l 133 838 m 158 468 l 63 468 l 85 658 l 419 658 l 419 0 l 158 0 l 158 468 z "},"ĳ":{"ha":868,"x_min":63,"x_max":806,"o":"m 138 935 l 419 935 l 419 746 l 138 746 l 138 935 m 524 935 l 806 935 l 806 746 l 524 746 l 524 935 m 158 468 l 63 468 l 85 658 l 419 658 l 419 0 l 158 0 l 158 468 m 551 -325 q 374 -294 447 -325 l 374 -121 q 457 -135 415 -135 q 524 -118 503 -135 q 544 -64 544 -101 l 544 468 l 449 468 l 471 658 l 806 658 l 806 -83 q 742 -260 806 -194 q 551 -325 679 -325 z "},"ī":{"ha":482,"x_min":14,"x_max":469,"o":"m 14 960 l 469 960 l 469 804 l 14 804 l 14 960 m 158 468 l 63 468 l 85 658 l 419 658 l 419 0 l 158 0 l 158 468 z "},"į":{"ha":482,"x_min":63,"x_max":422,"o":"m 419 746 l 138 746 l 138 935 l 419 935 l 419 746 m 353 -179 q 390 -175 371 -179 q 422 -164 410 -171 l 422 -283 q 360 -299 400 -292 q 281 -306 321 -306 q 147 -272 197 -306 q 97 -171 97 -237 q 125 -75 97 -119 q 200 0 153 -31 l 158 0 l 158 468 l 63 468 l 85 658 l 419 658 l 419 0 l 374 0 q 293 -124 293 -61 q 353 -179 293 -179 z "},"ĩ":{"ha":482,"x_min":-14,"x_max":494,"o":"m 374 756 q 311 763 342 756 q 236 786 281 771 q 172 807 197 800 q 122 814 146 814 q -14 760 40 814 l -14 924 q 43 956 7 943 q 118 969 79 969 q 176 963 149 969 q 247 940 204 956 q 313 919 285 926 q 369 911 340 911 q 444 926 411 911 q 494 967 476 942 l 494 801 q 447 769 481 782 q 374 756 413 756 m 158 468 l 63 468 l 85 658 l 419 658 l 419 0 l 158 0 l 158 468 z "},"j":{"ha":485,"x_min":-10,"x_max":422,"o":"m 140 935 l 422 935 l 422 746 l 140 746 l 140 935 m 168 -325 q -10 -294 64 -325 l -10 -121 q 74 -135 32 -135 q 140 -118 119 -135 q 161 -64 161 -101 l 161 468 l 65 468 l 88 658 l 422 658 l 422 -83 q 359 -260 422 -194 q 168 -325 296 -325 z "},"ȷ":{"ha":485,"x_min":-10,"x_max":422,"o":"m 168 -325 q -10 -294 64 -325 l -10 -121 q 74 -135 32 -135 q 140 -118 119 -135 q 161 -64 161 -101 l 161 468 l 65 468 l 88 658 l 422 658 l 422 -83 q 359 -260 422 -194 q 168 -325 296 -325 z "},"ĵ":{"ha":485,"x_min":-24,"x_max":565,"o":"m 192 1003 l 350 1003 l 565 725 l 376 725 l 271 875 l 171 725 l -24 725 l 192 1003 m 165 -325 q -12 -294 61 -325 l -12 -121 q 71 -135 29 -135 q 138 -118 117 -135 q 158 -64 158 -101 l 158 468 l 63 468 l 85 658 l 419 658 l 419 -83 q 356 -260 419 -194 q 165 -325 293 -325 z "},"k":{"ha":853,"x_min":63,"x_max":818,"o":"m 63 936 l 324 936 l 324 474 l 507 658 l 803 658 l 540 381 l 818 0 l 540 0 l 378 244 l 324 190 l 324 0 l 63 0 l 63 936 z "},"ķ":{"ha":853,"x_min":63,"x_max":818,"o":"m 63 936 l 324 936 l 324 474 l 507 658 l 803 658 l 540 381 l 818 0 l 540 0 l 378 244 l 324 190 l 324 0 l 63 0 l 63 936 m 301 -51 l 514 -51 l 435 -364 l 254 -364 l 301 -51 z "},"ĸ":{"ha":853,"x_min":63,"x_max":818,"o":"m 63 658 l 324 658 l 324 456 l 507 658 l 803 658 l 540 365 l 818 0 l 540 0 l 378 228 l 324 171 l 324 0 l 63 0 l 63 658 z "},"l":{"ha":443,"x_min":63,"x_max":443,"o":"m 286 -14 q 115 37 167 -14 q 63 199 63 88 l 63 936 l 324 936 l 324 228 q 335 188 324 199 q 375 176 347 176 q 443 188 415 176 l 443 14 q 372 -8 406 -1 q 286 -14 338 -14 z "},"ĺ":{"ha":443,"x_min":63,"x_max":443,"o":"m 215 1322 l 418 1322 l 285 1036 l 93 1036 l 215 1322 m 286 -14 q 115 37 167 -14 q 63 199 63 88 l 63 936 l 324 936 l 324 228 q 335 188 324 199 q 375 176 347 176 q 443 188 415 176 l 443 14 q 372 -8 406 -1 q 286 -14 338 -14 z "},"ľ":{"ha":443,"x_min":63,"x_max":622,"o":"m 410 1257 l 622 1257 l 543 944 l 363 944 l 410 1257 m 286 -14 q 115 37 167 -14 q 63 199 63 88 l 63 936 l 324 936 l 324 228 q 335 188 324 199 q 375 176 347 176 q 443 188 415 176 l 443 14 q 372 -8 406 -1 q 286 -14 338 -14 z "},"ļ":{"ha":443,"x_min":63,"x_max":443,"o":"m 286 -14 q 115 37 167 -14 q 63 199 63 88 l 63 936 l 324 936 l 324 228 q 335 188 324 199 q 375 176 347 176 q 443 188 415 176 l 443 14 q 372 -8 406 -1 q 286 -14 338 -14 m 172 -51 l 385 -51 l 306 -364 l 125 -364 l 172 -51 z "},"ŀ":{"ha":606,"x_min":63,"x_max":635,"o":"m 286 -14 q 115 37 167 -14 q 63 199 63 88 l 63 936 l 324 936 l 324 228 q 335 188 324 199 q 375 176 347 176 q 443 188 415 176 l 443 14 q 372 -8 406 -1 q 286 -14 338 -14 m 454 576 l 635 576 l 635 410 l 454 410 l 454 576 z "},"ḷ":{"ha":443,"x_min":63,"x_max":443,"o":"m 286 -14 q 115 37 167 -14 q 63 199 63 88 l 63 936 l 324 936 l 324 228 q 335 188 324 199 q 375 176 347 176 q 443 188 415 176 l 443 14 q 372 -8 406 -1 q 286 -14 338 -14 m 176 -78 l 357 -78 l 357 -244 l 176 -244 l 176 -78 z "},"ḹ":{"ha":443,"x_min":-29,"x_max":443,"o":"m -29 1164 l 426 1164 l 426 1008 l -29 1008 l -29 1164 m 286 -14 q 115 37 167 -14 q 63 199 63 88 l 63 936 l 324 936 l 324 228 q 335 188 324 199 q 375 176 347 176 q 443 188 415 176 l 443 14 q 372 -8 406 -1 q 286 -14 338 -14 m 176 -78 l 357 -78 l 357 -244 l 176 -244 l 176 -78 z "},"ḻ":{"ha":443,"x_min":22,"x_max":478,"o":"m 286 -14 q 115 37 167 -14 q 63 199 63 88 l 63 936 l 324 936 l 324 228 q 335 188 324 199 q 375 176 347 176 q 443 188 415 176 l 443 14 q 372 -8 406 -1 q 286 -14 338 -14 m 22 -89 l 478 -89 l 478 -244 l 22 -244 l 22 -89 z "},"ł":{"ha":443,"x_min":-46,"x_max":443,"o":"m 375 176 q 443 188 415 176 l 443 14 q 372 -8 406 -1 q 286 -14 338 -14 q 115 37 167 -14 q 63 199 63 88 l 63 344 l -46 297 l -46 482 l 63 529 l 63 936 l 324 936 l 324 644 l 429 690 l 429 506 l 324 460 l 324 228 q 335 188 324 199 q 375 176 347 176 z "},"m":{"ha":1196,"x_min":63,"x_max":1140,"o":"m 63 658 l 304 658 l 311 606 q 525 672 408 672 q 624 655 586 672 q 683 601 661 638 q 917 672 785 672 q 1086 612 1032 672 q 1140 428 1140 551 l 1140 0 l 883 0 l 883 397 q 865 460 883 442 q 806 479 847 479 q 757 469 781 479 q 717 440 733 458 q 719 371 719 417 l 719 0 l 478 0 l 478 401 q 463 461 478 443 q 411 479 449 479 q 315 432 363 479 l 315 0 l 63 0 l 63 658 z "},"ṃ":{"ha":1196,"x_min":63,"x_max":1140,"o":"m 63 658 l 304 658 l 311 606 q 525 672 408 672 q 624 655 586 672 q 683 601 661 638 q 917 672 785 672 q 1086 612 1032 672 q 1140 428 1140 551 l 1140 0 l 883 0 l 883 397 q 865 460 883 442 q 806 479 847 479 q 757 469 781 479 q 717 440 733 458 q 719 371 719 417 l 719 0 l 478 0 l 478 401 q 463 461 478 443 q 411 479 449 479 q 315 432 363 479 l 315 0 l 63 0 l 63 658 m 508 -78 l 689 -78 l 689 -244 l 508 -244 l 508 -78 z "},"n":{"ha":839,"x_min":63,"x_max":783,"o":"m 63 658 l 307 658 l 314 608 q 417 654 354 636 q 546 672 479 672 q 726 611 669 672 q 783 422 783 550 l 783 0 l 522 0 l 522 396 q 502 460 522 440 q 435 479 482 479 q 375 466 406 479 q 324 432 344 453 l 324 0 l 63 0 l 63 658 z "},"ń":{"ha":839,"x_min":63,"x_max":783,"o":"m 407 1011 l 610 1011 l 476 725 l 285 725 l 407 1011 m 63 658 l 307 658 l 314 608 q 417 654 354 636 q 546 672 479 672 q 726 611 669 672 q 783 422 783 550 l 783 0 l 522 0 l 522 396 q 502 460 522 440 q 435 479 482 479 q 375 466 406 479 q 324 432 344 453 l 324 0 l 63 0 l 63 658 z "},"ŉ":{"ha":1071,"x_min":39,"x_max":1015,"o":"m 86 893 l 299 893 l 219 581 l 39 581 l 86 893 m 294 658 l 539 658 l 546 608 q 649 654 586 636 q 778 672 711 672 q 958 611 901 672 q 1015 422 1015 550 l 1015 0 l 754 0 l 754 396 q 734 460 754 440 q 667 479 714 479 q 607 466 638 479 q 556 432 576 453 l 556 0 l 294 0 l 294 658 z "},"ň":{"ha":839,"x_min":63,"x_max":783,"o":"m 106 1003 l 300 1003 l 400 851 l 506 1003 l 694 1003 l 479 725 l 321 725 l 106 1003 m 63 658 l 307 658 l 314 608 q 417 654 354 636 q 546 672 479 672 q 726 611 669 672 q 783 422 783 550 l 783 0 l 522 0 l 522 396 q 502 460 522 440 q 435 479 482 479 q 375 466 406 479 q 324 432 344 453 l 324 0 l 63 0 l 63 658 z "},"ņ":{"ha":839,"x_min":63,"x_max":783,"o":"m 63 658 l 307 658 l 314 608 q 417 654 354 636 q 546 672 479 672 q 726 611 669 672 q 783 422 783 550 l 783 0 l 522 0 l 522 396 q 502 460 522 440 q 435 479 482 479 q 375 466 406 479 q 324 432 344 453 l 324 0 l 63 0 l 63 658 m 331 -51 l 543 -51 l 464 -364 l 283 -364 l 331 -51 z "},"ṅ":{"ha":839,"x_min":63,"x_max":783,"o":"m 335 931 l 515 931 l 515 764 l 335 764 l 335 931 m 63 658 l 307 658 l 314 608 q 417 654 354 636 q 546 672 479 672 q 726 611 669 672 q 783 422 783 550 l 783 0 l 522 0 l 522 396 q 502 460 522 440 q 435 479 482 479 q 375 466 406 479 q 324 432 344 453 l 324 0 l 63 0 l 63 658 z "},"ṇ":{"ha":839,"x_min":63,"x_max":783,"o":"m 63 658 l 307 658 l 314 608 q 417 654 354 636 q 546 672 479 672 q 726 611 669 672 q 783 422 783 550 l 783 0 l 522 0 l 522 396 q 502 460 522 440 q 435 479 482 479 q 375 466 406 479 q 324 432 344 453 l 324 0 l 63 0 l 63 658 m 343 -78 l 524 -78 l 524 -244 l 343 -244 l 343 -78 z "},"ŋ":{"ha":839,"x_min":63,"x_max":783,"o":"m 529 -325 q 351 -294 425 -325 l 351 -125 q 435 -139 393 -139 q 500 -120 479 -139 q 521 -64 521 -101 l 521 396 q 501 460 521 442 q 435 479 482 479 q 375 466 406 479 q 324 432 344 453 l 324 0 l 63 0 l 63 658 l 307 658 l 314 608 q 417 654 354 636 q 546 672 479 672 q 726 611 669 672 q 783 422 783 550 l 783 -83 q 720 -260 783 -194 q 529 -325 657 -325 z "},"ṉ":{"ha":839,"x_min":63,"x_max":783,"o":"m 63 658 l 307 658 l 314 608 q 417 654 354 636 q 546 672 479 672 q 726 611 669 672 q 783 422 783 550 l 783 0 l 522 0 l 522 396 q 502 460 522 440 q 435 479 482 479 q 375 466 406 479 q 324 432 344 453 l 324 0 l 63 0 l 63 658 m 199 -87 l 654 -87 l 654 -243 l 199 -243 l 199 -87 z "},"ñ":{"ha":839,"x_min":63,"x_max":783,"o":"m 556 736 q 493 744 524 736 q 418 767 463 751 q 353 788 379 781 q 304 794 328 794 q 168 740 222 794 l 168 904 q 225 937 189 924 q 300 950 261 950 q 358 943 331 950 q 429 921 386 936 q 494 899 467 907 q 551 892 522 892 q 626 907 593 892 q 676 947 658 922 l 676 782 q 628 749 663 763 q 556 736 594 736 m 63 658 l 307 658 l 314 608 q 417 654 354 636 q 546 672 479 672 q 726 611 669 672 q 783 422 783 550 l 783 0 l 522 0 l 522 396 q 502 460 522 440 q 435 479 482 479 q 375 466 406 479 q 324 432 344 453 l 324 0 l 63 0 l 63 658 z "},"o":{"ha":842,"x_min":35,"x_max":807,"o":"m 419 -14 q 35 329 35 -14 q 131 585 35 497 q 419 672 226 672 q 710 585 614 672 q 807 329 807 497 q 419 -14 807 -14 m 419 176 q 512 213 483 176 q 540 329 540 249 q 512 445 540 408 q 419 482 483 482 q 329 445 357 482 q 301 329 301 408 q 329 213 301 249 q 419 176 357 176 z "},"ó":{"ha":842,"x_min":35,"x_max":807,"o":"m 428 1011 l 631 1011 l 497 725 l 306 725 l 428 1011 m 419 -14 q 35 329 35 -14 q 131 585 35 497 q 419 672 226 672 q 710 585 614 672 q 807 329 807 497 q 419 -14 807 -14 m 419 176 q 512 213 483 176 q 540 329 540 249 q 512 445 540 408 q 419 482 483 482 q 329 445 357 482 q 301 329 301 408 q 329 213 301 249 q 419 176 357 176 z "},"ŏ":{"ha":842,"x_min":35,"x_max":807,"o":"m 421 726 q 230 794 301 726 q 158 986 158 863 l 328 986 q 421 869 328 869 q 515 986 515 869 l 685 986 q 613 794 685 863 q 421 726 542 726 m 419 -14 q 35 329 35 -14 q 131 585 35 497 q 419 672 226 672 q 710 585 614 672 q 807 329 807 497 q 419 -14 807 -14 m 419 176 q 512 213 483 176 q 540 329 540 249 q 512 445 540 408 q 419 482 483 482 q 329 445 357 482 q 301 329 301 408 q 329 213 301 249 q 419 176 357 176 z "},"ǒ":{"ha":842,"x_min":35,"x_max":807,"o":"m 126 1003 l 321 1003 l 421 851 l 526 1003 l 715 1003 l 500 725 l 342 725 l 126 1003 m 419 -14 q 35 329 35 -14 q 131 585 35 497 q 419 672 226 672 q 710 585 614 672 q 807 329 807 497 q 419 -14 807 -14 m 419 176 q 512 213 483 176 q 540 329 540 249 q 512 445 540 408 q 419 482 483 482 q 329 445 357 482 q 301 329 301 408 q 329 213 301 249 q 419 176 357 176 z "},"ô":{"ha":842,"x_min":35,"x_max":807,"o":"m 342 1003 l 500 1003 l 715 725 l 526 725 l 421 875 l 321 725 l 126 725 l 342 1003 m 419 -14 q 35 329 35 -14 q 131 585 35 497 q 419 672 226 672 q 710 585 614 672 q 807 329 807 497 q 419 -14 807 -14 m 419 176 q 512 213 483 176 q 540 329 540 249 q 512 445 540 408 q 419 482 483 482 q 329 445 357 482 q 301 329 301 408 q 329 213 301 249 q 419 176 357 176 z "},"ố":{"ha":842,"x_min":35,"x_max":874,"o":"m 681 1115 l 874 1115 l 765 899 l 582 899 l 681 1115 m 317 936 l 508 936 l 706 725 l 499 725 l 413 835 l 326 725 l 119 725 l 317 936 m 419 -14 q 35 329 35 -14 q 131 585 35 497 q 419 672 226 672 q 710 585 614 672 q 807 329 807 497 q 419 -14 807 -14 m 419 176 q 512 213 483 176 q 540 329 540 249 q 512 445 540 408 q 419 482 483 482 q 329 445 357 482 q 301 329 301 408 q 329 213 301 249 q 419 176 357 176 z "},"ộ":{"ha":842,"x_min":35,"x_max":807,"o":"m 342 1003 l 500 1003 l 715 725 l 526 725 l 421 875 l 321 725 l 126 725 l 342 1003 m 419 -14 q 35 329 35 -14 q 131 585 35 497 q 419 672 226 672 q 710 585 614 672 q 807 329 807 497 q 419 -14 807 -14 m 419 176 q 512 213 483 176 q 540 329 540 249 q 512 445 540 408 q 419 482 483 482 q 329 445 357 482 q 301 329 301 408 q 329 213 301 249 q 419 176 357 176 m 331 -78 l 511 -78 l 511 -244 l 331 -244 l 331 -78 z "},"ồ":{"ha":842,"x_min":-40,"x_max":807,"o":"m -40 1115 l 153 1115 l 251 899 l 68 899 l -40 1115 m 325 936 l 517 936 l 714 725 l 507 725 l 421 835 l 335 725 l 128 725 l 325 936 m 419 -14 q 35 329 35 -14 q 131 585 35 497 q 419 672 226 672 q 710 585 614 672 q 807 329 807 497 q 419 -14 807 -14 m 419 176 q 512 213 483 176 q 540 329 540 249 q 512 445 540 408 q 419 482 483 482 q 329 445 357 482 q 301 329 301 408 q 329 213 301 249 q 419 176 357 176 z "},"ổ":{"ha":842,"x_min":35,"x_max":876,"o":"m 601 968 q 680 981 658 969 q 701 1011 701 992 q 643 1042 701 1042 q 572 1032 608 1042 l 572 1132 q 710 1149 629 1149 q 834 1117 792 1149 q 876 1029 876 1086 q 851 951 876 981 q 775 913 826 921 l 775 867 l 601 867 l 601 968 m 322 936 l 514 936 l 711 725 l 504 725 l 418 835 l 332 725 l 125 725 l 322 936 m 419 -14 q 35 329 35 -14 q 131 585 35 497 q 419 672 226 672 q 710 585 614 672 q 807 329 807 497 q 419 -14 807 -14 m 419 176 q 512 213 483 176 q 540 329 540 249 q 512 445 540 408 q 419 482 483 482 q 329 445 357 482 q 301 329 301 408 q 329 213 301 249 q 419 176 357 176 z "},"ỗ":{"ha":842,"x_min":35,"x_max":807,"o":"m 553 989 q 493 997 522 989 q 421 1019 464 1004 q 359 1039 385 1032 q 308 1046 333 1046 q 176 993 226 1046 l 176 1135 q 231 1167 196 1154 q 304 1179 265 1179 q 362 1172 335 1179 q 432 1150 389 1165 q 495 1129 468 1136 q 549 1122 522 1122 q 623 1137 590 1122 q 672 1176 656 1151 l 672 1033 q 625 1002 658 1015 q 553 989 592 989 m 421 725 q 237 784 304 725 q 169 964 169 843 l 315 964 q 342 883 315 913 q 421 853 369 853 q 500 883 472 853 q 528 964 528 913 l 674 964 q 606 784 674 843 q 421 725 538 725 m 419 -14 q 35 329 35 -14 q 131 585 35 497 q 419 672 226 672 q 710 585 614 672 q 807 329 807 497 q 419 -14 807 -14 m 419 176 q 512 213 483 176 q 540 329 540 249 q 512 445 540 408 q 419 482 483 482 q 329 445 357 482 q 301 329 301 408 q 329 213 301 249 q 419 176 357 176 z "},"ö":{"ha":842,"x_min":35,"x_max":807,"o":"m 181 929 l 363 929 l 363 763 l 181 763 l 181 929 m 481 929 l 663 929 l 663 763 l 481 763 l 481 929 m 419 -14 q 35 329 35 -14 q 131 585 35 497 q 419 672 226 672 q 710 585 614 672 q 807 329 807 497 q 419 -14 807 -14 m 419 176 q 512 213 483 176 q 540 329 540 249 q 512 445 540 408 q 419 482 483 482 q 329 445 357 482 q 301 329 301 408 q 329 213 301 249 q 419 176 357 176 z "},"ọ":{"ha":842,"x_min":35,"x_max":807,"o":"m 419 -14 q 35 329 35 -14 q 131 585 35 497 q 419 672 226 672 q 710 585 614 672 q 807 329 807 497 q 419 -14 807 -14 m 419 176 q 512 213 483 176 q 540 329 540 249 q 512 445 540 408 q 419 482 483 482 q 329 445 357 482 q 301 329 301 408 q 329 213 301 249 q 419 176 357 176 m 331 -78 l 511 -78 l 511 -244 l 331 -244 l 331 -78 z "},"ò":{"ha":842,"x_min":35,"x_max":807,"o":"m 190 1011 l 394 1011 l 517 725 l 325 725 l 190 1011 m 419 -14 q 35 329 35 -14 q 131 585 35 497 q 419 672 226 672 q 710 585 614 672 q 807 329 807 497 q 419 -14 807 -14 m 419 176 q 512 213 483 176 q 540 329 540 249 q 512 445 540 408 q 419 482 483 482 q 329 445 357 482 q 301 329 301 408 q 329 213 301 249 q 419 176 357 176 z "},"ỏ":{"ha":842,"x_min":35,"x_max":807,"o":"m 306 838 q 401 856 374 842 q 428 899 428 871 q 344 944 428 944 q 263 933 307 944 l 263 1042 q 422 1061 324 1061 q 567 1022 515 1061 q 618 921 618 983 q 590 831 618 863 q 501 782 561 800 l 501 725 l 306 725 l 306 838 m 419 -14 q 35 329 35 -14 q 131 585 35 497 q 419 672 226 672 q 710 585 614 672 q 807 329 807 497 q 419 -14 807 -14 m 419 176 q 512 213 483 176 q 540 329 540 249 q 512 445 540 408 q 419 482 483 482 q 329 445 357 482 q 301 329 301 408 q 329 213 301 249 q 419 176 357 176 z "},"ơ":{"ha":1000,"x_min":35,"x_max":1007,"o":"m 419 -14 q 35 329 35 -14 q 131 585 35 497 q 419 672 226 672 q 692 599 594 672 q 795 631 768 599 q 822 744 822 664 l 1007 744 q 957 528 1007 600 q 794 436 907 456 q 807 329 807 389 q 419 -14 807 -14 m 419 176 q 512 213 483 176 q 540 329 540 249 q 512 445 540 408 q 419 482 483 482 q 329 445 357 482 q 301 329 301 408 q 329 213 301 249 q 419 176 357 176 z "},"ớ":{"ha":1000,"x_min":35,"x_max":1007,"o":"m 429 1011 l 632 1011 l 499 725 l 307 725 l 429 1011 m 419 -14 q 35 329 35 -14 q 131 585 35 497 q 419 672 226 672 q 692 599 594 672 q 795 631 768 599 q 822 744 822 664 l 1007 744 q 957 528 1007 600 q 794 436 907 456 q 807 329 807 389 q 419 -14 807 -14 m 419 176 q 512 213 483 176 q 540 329 540 249 q 512 445 540 408 q 419 482 483 482 q 329 445 357 482 q 301 329 301 408 q 329 213 301 249 q 419 176 357 176 z "},"ợ":{"ha":1000,"x_min":35,"x_max":1007,"o":"m 419 -14 q 35 329 35 -14 q 131 585 35 497 q 419 672 226 672 q 692 599 594 672 q 795 631 768 599 q 822 744 822 664 l 1007 744 q 957 528 1007 600 q 794 436 907 456 q 807 329 807 389 q 419 -14 807 -14 m 419 176 q 512 213 483 176 q 540 329 540 249 q 512 445 540 408 q 419 482 483 482 q 329 445 357 482 q 301 329 301 408 q 329 213 301 249 q 419 176 357 176 m 331 -78 l 511 -78 l 511 -244 l 331 -244 l 331 -78 z "},"ờ":{"ha":1000,"x_min":35,"x_max":1007,"o":"m 189 1011 l 393 1011 l 515 725 l 324 725 l 189 1011 m 419 -14 q 35 329 35 -14 q 131 585 35 497 q 419 672 226 672 q 692 599 594 672 q 795 631 768 599 q 822 744 822 664 l 1007 744 q 957 528 1007 600 q 794 436 907 456 q 807 329 807 389 q 419 -14 807 -14 m 419 176 q 512 213 483 176 q 540 329 540 249 q 512 445 540 408 q 419 482 483 482 q 329 445 357 482 q 301 329 301 408 q 329 213 301 249 q 419 176 357 176 z "},"ở":{"ha":1000,"x_min":35,"x_max":1007,"o":"m 313 838 q 408 856 381 842 q 435 899 435 871 q 351 944 435 944 q 269 933 314 944 l 269 1042 q 429 1061 331 1061 q 574 1022 522 1061 q 625 921 625 983 q 597 831 625 863 q 508 782 568 800 l 508 725 l 313 725 l 313 838 m 419 -14 q 35 329 35 -14 q 131 585 35 497 q 419 672 226 672 q 692 599 594 672 q 795 631 768 599 q 822 744 822 664 l 1007 744 q 957 528 1007 600 q 794 436 907 456 q 807 329 807 389 q 419 -14 807 -14 m 419 176 q 512 213 483 176 q 540 329 540 249 q 512 445 540 408 q 419 482 483 482 q 329 445 357 482 q 301 329 301 408 q 329 213 301 249 q 419 176 357 176 z "},"ỡ":{"ha":1000,"x_min":35,"x_max":1007,"o":"m 557 731 q 494 738 525 731 q 419 761 464 746 q 355 782 381 775 q 306 789 329 789 q 169 735 224 789 l 169 899 q 226 931 190 918 q 301 944 263 944 q 360 938 332 944 q 431 915 388 931 q 496 894 468 901 q 553 886 524 886 q 627 901 594 886 q 678 942 660 917 l 678 776 q 630 744 664 757 q 557 731 596 731 m 419 -14 q 35 329 35 -14 q 131 585 35 497 q 419 672 226 672 q 692 599 594 672 q 795 631 768 599 q 822 744 822 664 l 1007 744 q 957 528 1007 600 q 794 436 907 456 q 807 329 807 389 q 419 -14 807 -14 m 419 176 q 512 213 483 176 q 540 329 540 249 q 512 445 540 408 q 419 482 483 482 q 329 445 357 482 q 301 329 301 408 q 329 213 301 249 q 419 176 357 176 z "},"ő":{"ha":842,"x_min":35,"x_max":807,"o":"m 239 981 l 458 981 l 317 725 l 119 725 l 239 981 m 564 981 l 783 981 l 642 725 l 444 725 l 564 981 m 419 -14 q 35 329 35 -14 q 131 585 35 497 q 419 672 226 672 q 710 585 614 672 q 807 329 807 497 q 419 -14 807 -14 m 419 176 q 512 213 483 176 q 540 329 540 249 q 512 445 540 408 q 419 482 483 482 q 329 445 357 482 q 301 329 301 408 q 329 213 301 249 q 419 176 357 176 z "},"ō":{"ha":842,"x_min":35,"x_max":807,"o":"m 193 931 l 649 931 l 649 775 l 193 775 l 193 931 m 419 -14 q 35 329 35 -14 q 131 585 35 497 q 419 672 226 672 q 710 585 614 672 q 807 329 807 497 q 419 -14 807 -14 m 419 176 q 512 213 483 176 q 540 329 540 249 q 512 445 540 408 q 419 482 483 482 q 329 445 357 482 q 301 329 301 408 q 329 213 301 249 q 419 176 357 176 z "},"ø":{"ha":842,"x_min":35,"x_max":807,"o":"m 229 15 q 35 329 35 85 q 131 585 35 497 q 419 672 226 672 q 486 669 442 672 l 511 733 l 644 733 l 608 643 q 807 329 807 572 q 419 -14 807 -14 q 351 -11 396 -14 l 328 -74 l 194 -74 l 229 15 m 415 490 q 286 329 286 488 q 310 221 286 257 l 415 490 m 422 168 q 556 329 556 171 q 529 440 556 399 l 422 168 z "},"ǿ":{"ha":842,"x_min":35,"x_max":807,"o":"m 368 1011 l 571 1011 l 438 725 l 246 725 l 368 1011 m 229 15 q 35 329 35 85 q 131 585 35 497 q 419 672 226 672 q 486 669 442 672 l 511 733 l 644 733 l 608 643 q 807 329 807 572 q 419 -14 807 -14 q 351 -11 396 -14 l 328 -74 l 194 -74 l 229 15 m 415 490 q 286 329 286 488 q 310 221 286 257 l 415 490 m 422 168 q 556 329 556 171 q 529 440 556 399 l 422 168 z "},"õ":{"ha":842,"x_min":35,"x_max":807,"o":"m 554 757 q 492 765 522 757 q 417 788 461 772 q 352 808 378 801 q 303 815 326 815 q 167 761 221 815 l 167 925 q 224 958 188 944 q 299 971 260 971 q 357 964 329 971 q 428 942 385 957 q 493 920 465 928 q 550 913 521 913 q 624 928 592 913 q 675 968 657 943 l 675 803 q 627 770 661 783 q 554 757 593 757 m 419 -14 q 35 329 35 -14 q 131 585 35 497 q 419 672 226 672 q 710 585 614 672 q 807 329 807 497 q 419 -14 807 -14 m 419 176 q 512 213 483 176 q 540 329 540 249 q 512 445 540 408 q 419 482 483 482 q 329 445 357 482 q 301 329 301 408 q 329 213 301 249 q 419 176 357 176 z "},"œ":{"ha":1294,"x_min":35,"x_max":1260,"o":"m 1260 251 l 803 251 q 872 177 819 200 q 1017 154 924 154 q 1130 164 1072 154 q 1224 189 1188 174 l 1224 32 q 953 -14 1126 -14 q 692 57 792 -14 q 419 -14 596 -14 q 35 329 35 -14 q 131 585 35 497 q 419 672 226 672 q 683 607 586 672 q 917 672 772 672 q 1168 590 1076 672 q 1260 367 1260 508 l 1260 251 m 1035 417 q 925 506 1035 506 q 832 478 860 506 q 803 396 804 451 l 803 393 l 1035 393 l 1035 417 m 419 176 q 512 213 483 176 q 540 329 540 249 q 512 445 540 408 q 419 482 483 482 q 329 445 357 482 q 301 329 301 408 q 329 213 301 249 q 419 176 357 176 z "},"p":{"ha":843,"x_min":63,"x_max":808,"o":"m 63 658 l 289 658 l 301 606 q 391 656 343 639 q 501 672 439 672 q 731 595 653 672 q 808 346 808 518 q 724 78 808 171 q 490 -14 640 -14 q 399 -4 443 -14 q 324 24 356 6 l 324 -300 l 63 -300 l 63 658 m 424 176 q 542 342 542 176 q 515 451 542 421 q 426 482 488 482 q 372 472 396 482 q 324 443 347 463 l 324 210 q 369 184 347 192 q 424 176 392 176 z "},"þ":{"ha":843,"x_min":63,"x_max":808,"o":"m 63 972 l 324 972 l 324 635 q 399 663 356 653 q 490 672 443 672 q 725 587 642 672 q 808 329 808 501 q 725 72 808 157 q 490 -14 642 -14 q 399 -4 443 -14 q 324 24 356 6 l 324 -300 l 63 -300 l 63 972 m 424 176 q 513 213 483 176 q 542 333 542 250 q 514 448 542 414 q 426 482 486 482 q 372 472 396 482 q 324 443 347 463 l 324 210 q 369 184 347 192 q 424 176 392 176 z "},"q":{"ha":878,"x_min":35,"x_max":899,"o":"m 743 -336 q 574 -283 628 -336 q 519 -119 519 -231 l 519 24 q 443 -4 488 6 q 353 -14 399 -14 q 117 67 200 -14 q 35 321 35 149 q 117 583 35 494 q 344 672 199 672 q 452 656 406 672 q 540 606 499 639 l 554 658 l 781 658 l 781 -89 q 792 -135 781 -122 q 836 -147 804 -147 q 899 -136 868 -147 l 899 -308 q 828 -330 861 -324 q 743 -336 796 -336 m 418 176 q 474 185 450 176 q 519 210 499 193 l 519 443 q 474 473 497 464 q 419 482 450 482 q 331 444 360 482 q 301 325 301 406 q 330 210 301 243 q 418 176 358 176 z "},"r":{"ha":557,"x_min":63,"x_max":550,"o":"m 63 658 l 314 658 l 321 606 q 426 649 364 631 q 550 672 488 668 l 550 478 q 426 460 492 474 q 324 428 361 446 l 324 0 l 63 0 l 63 658 z "},"ŕ":{"ha":557,"x_min":63,"x_max":550,"o":"m 203 1011 l 406 1011 l 272 725 l 81 725 l 203 1011 m 63 658 l 314 658 l 321 606 q 426 649 364 631 q 550 672 488 668 l 550 478 q 426 460 492 474 q 324 428 361 446 l 324 0 l 63 0 l 63 658 z "},"ř":{"ha":557,"x_min":-99,"x_max":550,"o":"m -99 1003 l 96 1003 l 196 851 l 301 1003 l 490 1003 l 275 725 l 117 725 l -99 1003 m 63 658 l 314 658 l 321 606 q 426 649 364 631 q 550 672 488 668 l 550 478 q 426 460 492 474 q 324 428 361 446 l 324 0 l 63 0 l 63 658 z "},"ŗ":{"ha":557,"x_min":43,"x_max":550,"o":"m 63 658 l 314 658 l 321 606 q 426 649 364 631 q 550 672 488 668 l 550 478 q 426 460 492 474 q 324 428 361 446 l 324 0 l 63 0 l 63 658 m 90 -51 l 303 -51 l 224 -364 l 43 -364 l 90 -51 z "},"ṛ":{"ha":557,"x_min":63,"x_max":550,"o":"m 63 658 l 314 658 l 321 606 q 426 649 364 631 q 550 672 488 668 l 550 478 q 426 460 492 474 q 324 428 361 446 l 324 0 l 63 0 l 63 658 m 97 -78 l 278 -78 l 278 -244 l 97 -244 l 97 -78 z "},"ṝ":{"ha":557,"x_min":-6,"x_max":550,"o":"m -6 921 l 450 921 l 450 765 l -6 765 l -6 921 m 63 658 l 314 658 l 321 606 q 426 649 364 631 q 550 672 488 668 l 550 478 q 426 460 492 474 q 324 428 361 446 l 324 0 l 63 0 l 63 658 m 97 -78 l 278 -78 l 278 -244 l 97 -244 l 97 -78 z "},"ṟ":{"ha":557,"x_min":-25,"x_max":550,"o":"m 63 658 l 314 658 l 321 606 q 426 649 364 631 q 550 672 488 668 l 550 478 q 426 460 492 474 q 324 428 361 446 l 324 0 l 63 0 l 63 658 m -25 -89 l 431 -89 l 431 -244 l -25 -244 l -25 -89 z "},"s":{"ha":676,"x_min":35,"x_max":642,"o":"m 319 -14 q 163 -2 238 -14 q 43 28 88 10 l 43 215 q 156 181 89 193 q 274 168 222 168 q 355 172 335 168 q 375 194 375 175 q 353 221 375 211 q 283 244 332 231 l 214 267 q 76 344 118 301 q 35 467 35 388 q 357 672 35 672 q 486 663 418 672 q 596 640 554 653 l 596 457 q 506 483 556 474 q 415 492 457 492 q 330 487 358 492 q 301 464 301 482 q 320 440 301 449 q 386 419 339 432 l 447 401 q 565 353 522 379 q 624 290 607 326 q 642 196 642 253 q 560 40 642 94 q 319 -14 478 -14 z "},"ś":{"ha":676,"x_min":35,"x_max":642,"o":"m 336 1011 l 539 1011 l 406 725 l 214 725 l 336 1011 m 319 -14 q 163 -2 238 -14 q 43 28 88 10 l 43 215 q 156 181 89 193 q 274 168 222 168 q 355 172 335 168 q 375 194 375 175 q 353 221 375 211 q 283 244 332 231 l 214 267 q 76 344 118 301 q 35 467 35 388 q 357 672 35 672 q 486 663 418 672 q 596 640 554 653 l 596 457 q 506 483 556 474 q 415 492 457 492 q 330 487 358 492 q 301 464 301 482 q 320 440 301 449 q 386 419 339 432 l 447 401 q 565 353 522 379 q 624 290 607 326 q 642 196 642 253 q 560 40 642 94 q 319 -14 478 -14 z "},"š":{"ha":676,"x_min":35,"x_max":642,"o":"m 39 1003 l 233 1003 l 333 851 l 439 1003 l 628 1003 l 413 725 l 254 725 l 39 1003 m 319 -14 q 163 -2 238 -14 q 43 28 88 10 l 43 215 q 156 181 89 193 q 274 168 222 168 q 355 172 335 168 q 375 194 375 175 q 353 221 375 211 q 283 244 332 231 l 214 267 q 76 344 118 301 q 35 467 35 388 q 357 672 35 672 q 486 663 418 672 q 596 640 554 653 l 596 457 q 506 483 556 474 q 415 492 457 492 q 330 487 358 492 q 301 464 301 482 q 320 440 301 449 q 386 419 339 432 l 447 401 q 565 353 522 379 q 624 290 607 326 q 642 196 642 253 q 560 40 642 94 q 319 -14 478 -14 z "},"ş":{"ha":676,"x_min":35,"x_max":642,"o":"m 642 196 q 578 55 642 108 q 393 -11 515 1 l 376 -57 q 494 -92 456 -57 q 532 -187 532 -128 q 476 -295 532 -257 q 308 -333 419 -333 q 247 -330 283 -333 q 194 -322 210 -326 l 194 -219 q 276 -231 235 -231 q 353 -220 331 -231 q 376 -183 376 -210 q 358 -149 376 -157 q 301 -140 339 -140 l 214 -140 l 251 -11 q 43 28 121 -3 l 43 215 q 156 181 89 193 q 274 168 222 168 q 355 172 335 168 q 375 194 375 175 q 353 221 375 211 q 283 244 332 231 l 214 267 q 76 344 118 301 q 35 467 35 388 q 357 672 35 672 q 486 663 418 672 q 596 640 554 653 l 596 457 q 506 483 556 474 q 415 492 457 492 q 330 487 358 492 q 301 464 301 482 q 320 440 301 449 q 386 419 339 432 l 447 401 q 565 353 522 379 q 624 290 607 326 q 642 196 642 253 z "},"ŝ":{"ha":676,"x_min":35,"x_max":642,"o":"m 250 1003 l 408 1003 l 624 725 l 435 725 l 329 875 l 229 725 l 35 725 l 250 1003 m 319 -14 q 163 -2 238 -14 q 43 28 88 10 l 43 215 q 156 181 89 193 q 274 168 222 168 q 355 172 335 168 q 375 194 375 175 q 353 221 375 211 q 283 244 332 231 l 214 267 q 76 344 118 301 q 35 467 35 388 q 357 672 35 672 q 486 663 418 672 q 596 640 554 653 l 596 457 q 506 483 556 474 q 415 492 457 492 q 330 487 358 492 q 301 464 301 482 q 320 440 301 449 q 386 419 339 432 l 447 401 q 565 353 522 379 q 624 290 607 326 q 642 196 642 253 q 560 40 642 94 q 319 -14 478 -14 z "},"ș":{"ha":676,"x_min":35,"x_max":642,"o":"m 319 -14 q 163 -2 238 -14 q 43 28 88 10 l 43 215 q 156 181 89 193 q 274 168 222 168 q 355 172 335 168 q 375 194 375 175 q 353 221 375 211 q 283 244 332 231 l 214 267 q 76 344 118 301 q 35 467 35 388 q 357 672 35 672 q 486 663 418 672 q 596 640 554 653 l 596 457 q 506 483 556 474 q 415 492 457 492 q 330 487 358 492 q 301 464 301 482 q 320 440 301 449 q 386 419 339 432 l 447 401 q 565 353 522 379 q 624 290 607 326 q 642 196 642 253 q 560 40 642 94 q 319 -14 478 -14 m 244 -58 l 451 -58 l 386 -325 l 200 -325 l 244 -58 z "},"ṡ":{"ha":676,"x_min":35,"x_max":642,"o":"m 232 929 l 413 929 l 413 763 l 232 763 l 232 929 m 319 -14 q 163 -2 238 -14 q 43 28 88 10 l 43 215 q 156 181 89 193 q 274 168 222 168 q 355 172 335 168 q 375 194 375 175 q 353 221 375 211 q 283 244 332 231 l 214 267 q 76 344 118 301 q 35 467 35 388 q 357 672 35 672 q 486 663 418 672 q 596 640 554 653 l 596 457 q 506 483 556 474 q 415 492 457 492 q 330 487 358 492 q 301 464 301 482 q 320 440 301 449 q 386 419 339 432 l 447 401 q 565 353 522 379 q 624 290 607 326 q 642 196 642 253 q 560 40 642 94 q 319 -14 478 -14 z "},"ṣ":{"ha":676,"x_min":35,"x_max":642,"o":"m 319 -14 q 163 -2 238 -14 q 43 28 88 10 l 43 215 q 156 181 89 193 q 274 168 222 168 q 355 172 335 168 q 375 194 375 175 q 353 221 375 211 q 283 244 332 231 l 214 267 q 76 344 118 301 q 35 467 35 388 q 357 672 35 672 q 486 663 418 672 q 596 640 554 653 l 596 457 q 506 483 556 474 q 415 492 457 492 q 330 487 358 492 q 301 464 301 482 q 320 440 301 449 q 386 419 339 432 l 447 401 q 565 353 522 379 q 624 290 607 326 q 642 196 642 253 q 560 40 642 94 q 319 -14 478 -14 m 254 -78 l 435 -78 l 435 -244 l 254 -244 l 254 -78 z "},"ß":{"ha":899,"x_min":56,"x_max":864,"o":"m 563 -14 q 372 17 446 -14 l 372 215 q 430 200 396 206 q 496 194 464 194 q 597 282 597 194 q 571 350 597 331 q 485 369 544 369 l 396 369 l 396 551 l 469 551 q 565 649 565 551 q 450 750 565 750 q 342 717 378 750 q 307 608 307 683 l 307 0 l 56 0 l 56 622 q 103 803 56 724 q 238 928 150 883 q 442 972 325 972 q 655 928 567 972 q 788 814 743 885 q 832 661 832 743 q 807 542 832 593 q 738 464 782 490 q 864 265 864 413 q 785 61 864 136 q 563 -14 706 -14 z "},"ə":{"ha":767,"x_min":35,"x_max":732,"o":"m 378 -14 q 126 68 218 -14 q 35 292 35 150 l 35 407 l 492 407 q 423 481 475 458 q 278 504 371 504 q 165 494 222 504 q 71 469 107 485 l 71 626 q 342 672 168 672 q 626 584 519 672 q 732 331 732 496 q 642 78 732 169 q 378 -14 551 -14 m 369 153 q 463 181 435 153 q 492 265 492 208 l 260 265 l 260 242 q 369 153 260 153 z "},"t":{"ha":528,"x_min":7,"x_max":521,"o":"m 344 -14 q 154 51 215 -14 q 93 233 93 115 l 93 465 l 7 465 l 7 658 l 93 658 l 93 793 l 354 856 l 354 658 l 506 658 l 496 465 l 354 465 l 354 253 q 374 194 354 211 q 439 176 394 176 q 521 190 479 176 l 521 17 q 344 -14 447 -14 z "},"ŧ":{"ha":528,"x_min":7,"x_max":521,"o":"m 439 176 q 521 190 479 176 l 521 17 q 344 -14 447 -14 q 154 51 215 -14 q 93 233 93 115 l 93 261 l 7 261 l 7 408 l 93 408 l 93 465 l 7 465 l 7 658 l 93 658 l 93 793 l 354 856 l 354 658 l 506 658 l 496 465 l 354 465 l 354 408 l 506 408 l 506 261 l 354 261 l 354 253 q 374 194 354 211 q 439 176 394 176 z "},"ť":{"ha":726,"x_min":7,"x_max":724,"o":"m 511 1088 l 724 1088 l 644 775 l 464 775 l 511 1088 m 344 -14 q 154 51 215 -14 q 93 233 93 115 l 93 465 l 7 465 l 7 658 l 93 658 l 93 793 l 354 856 l 354 658 l 506 658 l 496 465 l 354 465 l 354 253 q 374 194 354 211 q 439 176 394 176 q 521 190 479 176 l 521 17 q 344 -14 447 -14 z "},"ţ":{"ha":538,"x_min":7,"x_max":553,"o":"m 397 -57 q 515 -92 476 -57 q 553 -187 553 -128 q 497 -295 553 -257 q 329 -333 440 -333 q 267 -330 304 -333 q 215 -322 231 -326 l 215 -219 q 297 -231 256 -231 q 374 -220 351 -231 q 397 -183 397 -210 q 378 -149 397 -157 q 322 -140 360 -140 l 235 -140 l 272 -8 q 93 233 93 25 l 93 465 l 7 465 l 7 658 l 93 658 l 93 793 l 354 856 l 354 658 l 506 658 l 496 465 l 354 465 l 354 253 q 374 194 354 211 q 439 176 394 176 q 521 190 479 176 l 521 17 q 414 -10 475 -3 l 397 -57 z "},"ț":{"ha":528,"x_min":7,"x_max":521,"o":"m 344 -14 q 154 51 215 -14 q 93 233 93 115 l 93 465 l 7 465 l 7 658 l 93 658 l 93 793 l 354 856 l 354 658 l 506 658 l 496 465 l 354 465 l 354 253 q 374 194 354 211 q 439 176 394 176 q 521 190 479 176 l 521 17 q 344 -14 447 -14 m 224 -58 l 436 -58 l 357 -371 l 176 -371 l 224 -58 z "},"ẗ":{"ha":528,"x_min":7,"x_max":521,"o":"m 21 1060 l 203 1060 l 203 893 l 21 893 l 21 1060 m 321 1060 l 503 1060 l 503 893 l 321 893 l 321 1060 m 344 -14 q 154 51 215 -14 q 93 233 93 115 l 93 465 l 7 465 l 7 658 l 93 658 l 93 793 l 354 856 l 354 658 l 506 658 l 496 465 l 354 465 l 354 253 q 374 194 354 211 q 439 176 394 176 q 521 190 479 176 l 521 17 q 344 -14 447 -14 z "},"ṭ":{"ha":528,"x_min":7,"x_max":521,"o":"m 344 -14 q 154 51 215 -14 q 93 233 93 115 l 93 465 l 7 465 l 7 658 l 93 658 l 93 793 l 354 856 l 354 658 l 506 658 l 496 465 l 354 465 l 354 253 q 374 194 354 211 q 439 176 394 176 q 521 190 479 176 l 521 17 q 344 -14 447 -14 m 192 -78 l 372 -78 l 372 -244 l 192 -244 l 192 -78 z "},"ṯ":{"ha":528,"x_min":7,"x_max":521,"o":"m 344 -14 q 154 51 215 -14 q 93 233 93 115 l 93 465 l 7 465 l 7 658 l 93 658 l 93 793 l 354 856 l 354 658 l 506 658 l 496 465 l 354 465 l 354 253 q 374 194 354 211 q 439 176 394 176 q 521 190 479 176 l 521 17 q 344 -14 447 -14 m 32 -89 l 488 -89 l 488 -244 l 32 -244 l 32 -89 z "},"u":{"ha":839,"x_min":56,"x_max":776,"o":"m 301 -14 q 120 52 185 -14 q 56 243 56 118 l 56 658 l 317 658 l 317 264 q 338 199 317 219 q 404 178 360 178 q 465 192 435 178 q 515 226 496 206 l 515 658 l 776 658 l 776 0 l 532 0 l 525 50 q 301 -14 435 -14 z "},"ú":{"ha":839,"x_min":56,"x_max":776,"o":"m 417 1011 l 619 1011 l 486 725 l 294 725 l 417 1011 m 301 -14 q 120 52 185 -14 q 56 243 56 118 l 56 658 l 317 658 l 317 264 q 338 199 317 219 q 404 178 360 178 q 465 192 435 178 q 515 226 496 206 l 515 658 l 776 658 l 776 0 l 532 0 l 525 50 q 301 -14 435 -14 z "},"ŭ":{"ha":839,"x_min":56,"x_max":776,"o":"m 418 725 q 227 793 299 725 q 156 985 156 861 l 325 985 q 418 868 325 868 q 513 985 513 868 l 682 985 q 610 793 682 861 q 418 725 539 725 m 301 -14 q 120 52 185 -14 q 56 243 56 118 l 56 658 l 317 658 l 317 264 q 338 199 317 219 q 404 178 360 178 q 465 192 435 178 q 515 226 496 206 l 515 658 l 776 658 l 776 0 l 532 0 l 525 50 q 301 -14 435 -14 z "},"ǔ":{"ha":839,"x_min":56,"x_max":776,"o":"m 126 1003 l 321 1003 l 421 851 l 526 1003 l 715 1003 l 500 725 l 342 725 l 126 1003 m 301 -14 q 120 52 185 -14 q 56 243 56 118 l 56 658 l 317 658 l 317 264 q 338 199 317 219 q 404 178 360 178 q 465 192 435 178 q 515 226 496 206 l 515 658 l 776 658 l 776 0 l 532 0 l 525 50 q 301 -14 435 -14 z "},"û":{"ha":839,"x_min":56,"x_max":776,"o":"m 336 1003 l 494 1003 l 710 725 l 521 725 l 415 875 l 315 725 l 121 725 l 336 1003 m 301 -14 q 120 52 185 -14 q 56 243 56 118 l 56 658 l 317 658 l 317 264 q 338 199 317 219 q 404 178 360 178 q 465 192 435 178 q 515 226 496 206 l 515 658 l 776 658 l 776 0 l 532 0 l 525 50 q 301 -14 435 -14 z "},"ü":{"ha":839,"x_min":56,"x_max":776,"o":"m 176 929 l 358 929 l 358 763 l 176 763 l 176 929 m 476 929 l 658 929 l 658 763 l 476 763 l 476 929 m 301 -14 q 120 52 185 -14 q 56 243 56 118 l 56 658 l 317 658 l 317 264 q 338 199 317 219 q 404 178 360 178 q 465 192 435 178 q 515 226 496 206 l 515 658 l 776 658 l 776 0 l 532 0 l 525 50 q 301 -14 435 -14 z "},"ǘ":{"ha":839,"x_min":56,"x_max":776,"o":"m 393 1133 l 588 1133 l 490 943 l 314 943 l 393 1133 m 169 907 l 346 907 l 346 750 l 169 750 l 169 907 m 468 907 l 644 907 l 644 750 l 468 750 l 468 907 m 301 -14 q 120 52 185 -14 q 56 243 56 118 l 56 658 l 317 658 l 317 264 q 338 199 317 219 q 404 178 360 178 q 465 192 435 178 q 515 226 496 206 l 515 658 l 776 658 l 776 0 l 532 0 l 525 50 q 301 -14 435 -14 z "},"ǚ":{"ha":839,"x_min":56,"x_max":776,"o":"m 154 1106 l 346 1106 l 419 1004 l 496 1106 l 683 1106 l 508 921 l 329 921 l 154 1106 m 178 888 l 354 888 l 354 731 l 178 731 l 178 888 m 476 888 l 653 888 l 653 731 l 476 731 l 476 888 m 301 -14 q 120 52 185 -14 q 56 243 56 118 l 56 658 l 317 658 l 317 264 q 338 199 317 219 q 404 178 360 178 q 465 192 435 178 q 515 226 496 206 l 515 658 l 776 658 l 776 0 l 532 0 l 525 50 q 301 -14 435 -14 z "},"ǜ":{"ha":839,"x_min":56,"x_max":776,"o":"m 236 1133 l 431 1133 l 510 943 l 333 943 l 236 1133 m 179 907 l 356 907 l 356 750 l 179 750 l 179 907 m 478 907 l 654 907 l 654 750 l 478 750 l 478 907 m 301 -14 q 120 52 185 -14 q 56 243 56 118 l 56 658 l 317 658 l 317 264 q 338 199 317 219 q 404 178 360 178 q 465 192 435 178 q 515 226 496 206 l 515 658 l 776 658 l 776 0 l 532 0 l 525 50 q 301 -14 435 -14 z "},"ǖ":{"ha":839,"x_min":56,"x_max":776,"o":"m 189 1144 l 644 1144 l 644 989 l 189 989 l 189 1144 m 176 908 l 358 908 l 358 742 l 176 742 l 176 908 m 476 908 l 658 908 l 658 742 l 476 742 l 476 908 m 301 -14 q 120 52 185 -14 q 56 243 56 118 l 56 658 l 317 658 l 317 264 q 338 199 317 219 q 404 178 360 178 q 465 192 435 178 q 515 226 496 206 l 515 658 l 776 658 l 776 0 l 532 0 l 525 50 q 301 -14 435 -14 z "},"ụ":{"ha":839,"x_min":56,"x_max":776,"o":"m 301 -14 q 120 52 185 -14 q 56 243 56 118 l 56 658 l 317 658 l 317 264 q 338 199 317 219 q 404 178 360 178 q 465 192 435 178 q 515 226 496 206 l 515 658 l 776 658 l 776 0 l 532 0 l 525 50 q 301 -14 435 -14 m 324 -78 l 504 -78 l 504 -244 l 324 -244 l 324 -78 z "},"ù":{"ha":839,"x_min":56,"x_max":776,"o":"m 211 1011 l 415 1011 l 538 725 l 346 725 l 211 1011 m 301 -14 q 120 52 185 -14 q 56 243 56 118 l 56 658 l 317 658 l 317 264 q 338 199 317 219 q 404 178 360 178 q 465 192 435 178 q 515 226 496 206 l 515 658 l 776 658 l 776 0 l 532 0 l 525 50 q 301 -14 435 -14 z "},"ủ":{"ha":839,"x_min":56,"x_max":776,"o":"m 318 838 q 413 856 386 842 q 440 899 440 871 q 357 944 440 944 q 275 933 319 944 l 275 1042 q 435 1061 336 1061 q 579 1022 528 1061 q 631 921 631 983 q 602 831 631 863 q 514 782 574 800 l 514 725 l 318 725 l 318 838 m 301 -14 q 120 52 185 -14 q 56 243 56 118 l 56 658 l 317 658 l 317 264 q 338 199 317 219 q 404 178 360 178 q 465 192 435 178 q 515 226 496 206 l 515 658 l 776 658 l 776 0 l 532 0 l 525 50 q 301 -14 435 -14 z "},"ư":{"ha":1061,"x_min":56,"x_max":1061,"o":"m 301 -14 q 120 52 185 -14 q 56 243 56 118 l 56 658 l 317 658 l 317 264 q 338 199 317 219 q 404 178 360 178 q 465 192 435 178 q 515 226 496 206 l 515 658 l 776 658 l 776 600 q 855 639 833 606 q 876 744 876 672 l 1061 744 q 1033 566 1061 633 q 942 467 1004 499 q 776 429 881 435 l 776 0 l 532 0 l 525 50 q 301 -14 435 -14 z "},"ứ":{"ha":1061,"x_min":56,"x_max":1061,"o":"m 421 1011 l 624 1011 l 490 725 l 299 725 l 421 1011 m 301 -14 q 120 52 185 -14 q 56 243 56 118 l 56 658 l 317 658 l 317 264 q 338 199 317 219 q 404 178 360 178 q 465 192 435 178 q 515 226 496 206 l 515 658 l 776 658 l 776 600 q 855 639 833 606 q 876 744 876 672 l 1061 744 q 1033 566 1061 633 q 942 467 1004 499 q 776 429 881 435 l 776 0 l 532 0 l 525 50 q 301 -14 435 -14 z "},"ự":{"ha":1061,"x_min":56,"x_max":1061,"o":"m 301 -14 q 120 52 185 -14 q 56 243 56 118 l 56 658 l 317 658 l 317 264 q 338 199 317 219 q 404 178 360 178 q 465 192 435 178 q 515 226 496 206 l 515 658 l 776 658 l 776 600 q 855 639 833 606 q 876 744 876 672 l 1061 744 q 1033 566 1061 633 q 942 467 1004 499 q 776 429 881 435 l 776 0 l 532 0 l 525 50 q 301 -14 435 -14 m 329 -78 l 510 -78 l 510 -244 l 329 -244 l 329 -78 z "},"ừ":{"ha":1061,"x_min":56,"x_max":1061,"o":"m 149 1011 l 353 1011 l 475 725 l 283 725 l 149 1011 m 301 -14 q 120 52 185 -14 q 56 243 56 118 l 56 658 l 317 658 l 317 264 q 338 199 317 219 q 404 178 360 178 q 465 192 435 178 q 515 226 496 206 l 515 658 l 776 658 l 776 600 q 855 639 833 606 q 876 744 876 672 l 1061 744 q 1033 566 1061 633 q 942 467 1004 499 q 776 429 881 435 l 776 0 l 532 0 l 525 50 q 301 -14 435 -14 z "},"ử":{"ha":1061,"x_min":56,"x_max":1061,"o":"m 275 836 q 370 855 343 840 q 397 897 397 869 q 314 943 397 943 q 232 932 276 943 l 232 1040 q 392 1060 293 1060 q 536 1021 485 1060 q 588 919 588 982 q 559 830 588 861 q 471 781 531 799 l 471 724 l 275 724 l 275 836 m 301 -14 q 120 52 185 -14 q 56 243 56 118 l 56 658 l 317 658 l 317 264 q 338 199 317 219 q 404 178 360 178 q 465 192 435 178 q 515 226 496 206 l 515 658 l 776 658 l 776 600 q 855 639 833 606 q 876 744 876 672 l 1061 744 q 1033 566 1061 633 q 942 467 1004 499 q 776 429 881 435 l 776 0 l 532 0 l 525 50 q 301 -14 435 -14 z "},"ữ":{"ha":1061,"x_min":56,"x_max":1061,"o":"m 553 731 q 490 738 521 731 q 415 761 460 746 q 351 782 376 775 q 301 789 325 789 q 165 735 219 789 l 165 899 q 222 931 186 918 q 297 944 258 944 q 356 938 328 944 q 426 915 383 931 q 492 894 464 901 q 549 886 519 886 q 623 901 590 886 q 674 942 656 917 l 674 776 q 626 744 660 757 q 553 731 592 731 m 301 -14 q 120 52 185 -14 q 56 243 56 118 l 56 658 l 317 658 l 317 264 q 338 199 317 219 q 404 178 360 178 q 465 192 435 178 q 515 226 496 206 l 515 658 l 776 658 l 776 600 q 855 639 833 606 q 876 744 876 672 l 1061 744 q 1033 566 1061 633 q 942 467 1004 499 q 776 429 881 435 l 776 0 l 532 0 l 525 50 q 301 -14 435 -14 z "},"ű":{"ha":839,"x_min":56,"x_max":776,"o":"m 215 981 l 435 981 l 293 725 l 96 725 l 215 981 m 540 981 l 760 981 l 618 725 l 421 725 l 540 981 m 301 -14 q 120 52 185 -14 q 56 243 56 118 l 56 658 l 317 658 l 317 264 q 338 199 317 219 q 404 178 360 178 q 465 192 435 178 q 515 226 496 206 l 515 658 l 776 658 l 776 0 l 532 0 l 525 50 q 301 -14 435 -14 z "},"ū":{"ha":839,"x_min":56,"x_max":776,"o":"m 188 931 l 643 931 l 643 775 l 188 775 l 188 931 m 301 -14 q 120 52 185 -14 q 56 243 56 118 l 56 658 l 317 658 l 317 264 q 338 199 317 219 q 404 178 360 178 q 465 192 435 178 q 515 226 496 206 l 515 658 l 776 658 l 776 0 l 532 0 l 525 50 q 301 -14 435 -14 z "},"ų":{"ha":839,"x_min":56,"x_max":776,"o":"m 706 0 q 625 -124 625 -61 q 685 -179 625 -179 q 722 -175 703 -179 q 754 -164 742 -171 l 754 -283 q 692 -299 732 -292 q 613 -306 653 -306 q 479 -272 529 -306 q 429 -171 429 -237 q 457 -75 429 -119 q 532 0 485 -31 l 525 50 q 301 -14 435 -14 q 120 52 185 -14 q 56 243 56 118 l 56 658 l 317 658 l 317 264 q 338 199 317 219 q 404 178 360 178 q 465 192 435 178 q 515 226 496 206 l 515 658 l 776 658 l 776 0 l 706 0 z "},"ů":{"ha":839,"x_min":56,"x_max":776,"o":"m 415 725 q 274 776 326 725 q 222 907 222 828 q 274 1038 222 986 q 415 1090 326 1090 q 557 1038 506 1090 q 608 907 608 986 q 557 776 608 828 q 415 725 506 725 m 415 832 q 473 853 453 832 q 493 907 493 874 q 473 960 493 939 q 415 982 453 982 q 358 960 379 982 q 338 907 338 939 q 358 853 338 875 q 415 832 379 832 m 301 -14 q 120 52 185 -14 q 56 243 56 118 l 56 658 l 317 658 l 317 264 q 338 199 317 219 q 404 178 360 178 q 465 192 435 178 q 515 226 496 206 l 515 658 l 776 658 l 776 0 l 532 0 l 525 50 q 301 -14 435 -14 z "},"ũ":{"ha":839,"x_min":56,"x_max":776,"o":"m 551 736 q 489 744 519 736 q 414 767 458 751 q 349 788 375 781 q 300 794 324 794 q 164 740 218 794 l 164 904 q 221 937 185 924 q 296 950 257 950 q 354 943 326 950 q 425 921 382 936 q 490 899 463 907 q 547 892 518 892 q 622 907 589 892 q 672 947 654 922 l 672 782 q 624 749 658 763 q 551 736 590 736 m 301 -14 q 120 52 185 -14 q 56 243 56 118 l 56 658 l 317 658 l 317 264 q 338 199 317 219 q 404 178 360 178 q 465 192 435 178 q 515 226 496 206 l 515 658 l 776 658 l 776 0 l 532 0 l 525 50 q 301 -14 435 -14 z "},"v":{"ha":864,"x_min":35,"x_max":829,"o":"m 35 658 l 307 658 l 432 272 l 557 658 l 829 658 l 569 0 l 294 0 l 35 658 z "},"w":{"ha":1088,"x_min":35,"x_max":1053,"o":"m 35 658 l 288 658 l 365 332 l 442 564 l 442 658 l 633 658 l 725 332 l 800 658 l 1053 658 l 879 0 l 646 0 l 546 299 l 446 0 l 208 0 l 35 658 z "},"ẃ":{"ha":1088,"x_min":35,"x_max":1053,"o":"m 558 1011 l 761 1011 l 628 725 l 436 725 l 558 1011 m 35 658 l 288 658 l 365 332 l 442 564 l 442 658 l 633 658 l 725 332 l 800 658 l 1053 658 l 879 0 l 646 0 l 546 299 l 446 0 l 208 0 l 35 658 z "},"ŵ":{"ha":1088,"x_min":35,"x_max":1053,"o":"m 467 1003 l 625 1003 l 840 725 l 651 725 l 546 875 l 446 725 l 251 725 l 467 1003 m 35 658 l 288 658 l 365 332 l 442 564 l 442 658 l 633 658 l 725 332 l 800 658 l 1053 658 l 879 0 l 646 0 l 546 299 l 446 0 l 208 0 l 35 658 z "},"ẅ":{"ha":1088,"x_min":35,"x_max":1053,"o":"m 306 929 l 488 929 l 488 763 l 306 763 l 306 929 m 606 929 l 788 929 l 788 763 l 606 763 l 606 929 m 35 658 l 288 658 l 365 332 l 442 564 l 442 658 l 633 658 l 725 332 l 800 658 l 1053 658 l 879 0 l 646 0 l 546 299 l 446 0 l 208 0 l 35 658 z "},"ẁ":{"ha":1088,"x_min":35,"x_max":1053,"o":"m 301 1011 l 506 1011 l 628 725 l 436 725 l 301 1011 m 35 658 l 288 658 l 365 332 l 442 564 l 442 658 l 633 658 l 725 332 l 800 658 l 1053 658 l 879 0 l 646 0 l 546 299 l 446 0 l 208 0 l 35 658 z "},"x":{"ha":863,"x_min":35,"x_max":828,"o":"m 289 335 l 44 658 l 328 658 l 431 519 l 535 658 l 817 658 l 574 335 l 828 0 l 542 0 l 431 147 l 319 0 l 35 0 l 289 335 z "},"y":{"ha":892,"x_min":35,"x_max":885,"o":"m 283 -244 q 190 -239 228 -244 q 114 -218 151 -233 l 114 -40 q 199 -54 150 -54 q 279 -40 253 -54 q 332 15 306 -26 l 35 658 l 308 658 l 463 271 l 613 658 l 885 658 l 642 63 q 497 -167 581 -89 q 283 -244 413 -244 z "},"ý":{"ha":892,"x_min":35,"x_max":885,"o":"m 481 1011 l 683 1011 l 550 725 l 358 725 l 481 1011 m 283 -244 q 190 -239 228 -244 q 114 -218 151 -233 l 114 -40 q 199 -54 150 -54 q 279 -40 253 -54 q 332 15 306 -26 l 35 658 l 308 658 l 463 271 l 613 658 l 885 658 l 642 63 q 497 -167 581 -89 q 283 -244 413 -244 z "},"ŷ":{"ha":892,"x_min":35,"x_max":885,"o":"m 383 1003 l 542 1003 l 757 725 l 568 725 l 463 875 l 363 725 l 168 725 l 383 1003 m 283 -244 q 190 -239 228 -244 q 114 -218 151 -233 l 114 -40 q 199 -54 150 -54 q 279 -40 253 -54 q 332 15 306 -26 l 35 658 l 308 658 l 463 271 l 613 658 l 885 658 l 642 63 q 497 -167 581 -89 q 283 -244 413 -244 z "},"ÿ":{"ha":892,"x_min":35,"x_max":885,"o":"m 222 958 l 404 958 l 404 792 l 222 792 l 222 958 m 522 958 l 704 958 l 704 792 l 522 792 l 522 958 m 283 -244 q 190 -239 228 -244 q 114 -218 151 -233 l 114 -40 q 199 -54 150 -54 q 279 -40 253 -54 q 332 15 306 -26 l 35 658 l 308 658 l 463 271 l 613 658 l 885 658 l 642 63 q 497 -167 581 -89 q 283 -244 413 -244 z "},"ẏ":{"ha":892,"x_min":35,"x_max":885,"o":"m 372 929 l 553 929 l 553 763 l 372 763 l 372 929 m 283 -244 q 190 -239 228 -244 q 114 -218 151 -233 l 114 -40 q 199 -54 150 -54 q 279 -40 253 -54 q 332 15 306 -26 l 35 658 l 308 658 l 463 271 l 613 658 l 885 658 l 642 63 q 497 -167 581 -89 q 283 -244 413 -244 z "},"ỵ":{"ha":892,"x_min":35,"x_max":885,"o":"m 283 -244 q 190 -239 228 -244 q 114 -218 151 -233 l 114 -40 q 199 -54 150 -54 q 279 -40 253 -54 q 332 15 306 -26 l 35 658 l 308 658 l 463 271 l 613 658 l 885 658 l 642 63 q 497 -167 581 -89 q 283 -244 413 -244 m 613 -78 l 793 -78 l 793 -244 l 613 -244 l 613 -78 z "},"ỳ":{"ha":892,"x_min":35,"x_max":885,"o":"m 226 1011 l 431 1011 l 553 725 l 361 725 l 226 1011 m 283 -244 q 190 -239 228 -244 q 114 -218 151 -233 l 114 -40 q 199 -54 150 -54 q 279 -40 253 -54 q 332 15 306 -26 l 35 658 l 308 658 l 463 271 l 613 658 l 885 658 l 642 63 q 497 -167 581 -89 q 283 -244 413 -244 z "},"ỷ":{"ha":892,"x_min":35,"x_max":885,"o":"m 363 838 q 458 856 431 842 q 485 899 485 871 q 401 944 485 944 q 319 933 364 944 l 319 1042 q 479 1061 381 1061 q 624 1022 572 1061 q 675 921 675 983 q 647 831 675 863 q 558 782 618 800 l 558 725 l 363 725 l 363 838 m 283 -244 q 190 -239 228 -244 q 114 -218 151 -233 l 114 -40 q 199 -54 150 -54 q 279 -40 253 -54 q 332 15 306 -26 l 35 658 l 308 658 l 463 271 l 613 658 l 885 658 l 642 63 q 497 -167 581 -89 q 283 -244 413 -244 z "},"ỹ":{"ha":892,"x_min":35,"x_max":885,"o":"m 597 736 q 535 744 565 736 q 460 767 504 751 q 395 788 421 781 q 346 794 369 794 q 210 740 264 794 l 210 904 q 267 937 231 924 q 342 950 303 950 q 400 943 372 950 q 471 921 428 936 q 536 899 508 907 q 593 892 564 892 q 667 907 635 892 q 718 947 700 922 l 718 782 q 670 749 704 763 q 597 736 636 736 m 283 -244 q 190 -239 228 -244 q 114 -218 151 -233 l 114 -40 q 199 -54 150 -54 q 279 -40 253 -54 q 332 15 306 -26 l 35 658 l 308 658 l 463 271 l 613 658 l 885 658 l 642 63 q 497 -167 581 -89 q 283 -244 413 -244 z "},"z":{"ha":688,"x_min":35,"x_max":653,"o":"m 35 143 l 311 458 l 44 458 l 44 658 l 643 658 l 643 511 l 375 200 l 653 200 l 653 0 l 35 0 l 35 143 z "},"ź":{"ha":688,"x_min":35,"x_max":653,"o":"m 353 1011 l 556 1011 l 422 725 l 231 725 l 353 1011 m 35 143 l 311 458 l 44 458 l 44 658 l 643 658 l 643 511 l 375 200 l 653 200 l 653 0 l 35 0 l 35 143 z "},"ž":{"ha":688,"x_min":35,"x_max":653,"o":"m 39 1003 l 233 1003 l 333 851 l 439 1003 l 628 1003 l 413 725 l 254 725 l 39 1003 m 35 143 l 311 458 l 44 458 l 44 658 l 643 658 l 643 511 l 375 200 l 653 200 l 653 0 l 35 0 l 35 143 z "},"ż":{"ha":688,"x_min":35,"x_max":653,"o":"m 256 929 l 436 929 l 436 763 l 256 763 l 256 929 m 35 143 l 311 458 l 44 458 l 44 658 l 643 658 l 643 511 l 375 200 l 653 200 l 653 0 l 35 0 l 35 143 z "},"ẓ":{"ha":688,"x_min":35,"x_max":653,"o":"m 35 143 l 311 458 l 44 458 l 44 658 l 643 658 l 643 511 l 375 200 l 653 200 l 653 0 l 35 0 l 35 143 m 239 -78 l 419 -78 l 419 -244 l 239 -244 l 239 -78 z "},"ﬁ":{"ha":807,"x_min":7,"x_max":744,"o":"m 92 465 l 7 465 l 7 658 l 92 658 l 92 697 q 126 831 92 771 q 230 926 161 890 q 394 961 299 961 q 589 932 514 961 l 589 756 q 543 767 572 763 q 489 772 514 772 q 387 751 421 772 q 353 692 353 731 l 353 658 l 744 658 l 744 0 l 483 0 l 483 465 l 353 465 l 353 0 l 92 0 l 92 465 z "},"ﬂ":{"ha":807,"x_min":7,"x_max":744,"o":"m 92 465 l 7 465 l 7 658 l 92 658 l 92 697 q 124 829 92 769 q 219 924 157 889 q 368 958 282 958 q 553 932 469 958 l 744 932 l 744 0 l 483 0 l 483 465 l 353 465 l 353 0 l 92 0 l 92 465 m 486 658 l 486 765 q 436 769 469 769 q 351 692 351 769 l 351 658 l 486 658 z "},"ª":{"ha":463,"x_min":35,"x_max":428,"o":"m 164 528 q 71 557 107 528 q 35 644 35 586 q 189 768 35 768 l 283 768 l 283 774 q 266 803 283 794 q 206 811 249 811 q 81 792 143 811 l 81 882 q 152 901 110 893 q 236 908 194 908 q 376 872 325 908 q 428 760 428 835 l 428 536 l 296 536 l 289 564 q 164 528 244 528 m 217 615 q 283 646 261 615 l 283 686 l 225 686 q 185 678 197 686 q 172 650 172 671 q 217 615 172 615 z "},"º":{"ha":499,"x_min":35,"x_max":464,"o":"m 249 528 q 35 718 35 528 q 249 908 35 908 q 464 718 464 908 q 249 528 464 528 m 249 636 q 297 656 282 636 q 311 718 311 675 q 297 780 311 761 q 249 799 282 799 q 201 780 215 799 q 186 718 186 761 q 201 656 186 675 q 249 636 215 636 z "},"ⁿ":{"ha":482,"x_min":42,"x_max":447,"o":"m 42 900 l 181 900 l 183 874 q 319 907 240 907 q 415 873 382 907 q 447 772 447 839 l 447 536 l 300 536 l 300 751 q 289 785 300 775 q 254 796 278 796 q 219 789 239 796 q 189 771 200 782 l 189 536 l 42 536 l 42 900 z "},"Δ":{"ha":883,"x_min":35,"x_max":849,"o":"m 35 138 l 333 894 l 547 894 l 849 136 l 849 0 l 35 0 l 35 138 m 597 199 l 440 594 l 282 199 l 597 199 z "},"Ω":{"ha":1040,"x_min":35,"x_max":1006,"o":"m 44 200 l 183 200 q 72 331 108 254 q 35 511 35 407 q 92 752 35 650 q 257 910 149 854 q 519 965 365 965 q 783 910 674 965 q 949 752 892 854 q 1006 511 1006 650 q 970 328 1006 404 q 856 200 935 251 l 996 200 l 996 0 l 567 0 l 567 208 q 698 330 657 261 q 739 496 739 399 q 682 677 739 611 q 519 743 625 743 q 358 677 415 743 q 301 496 301 611 q 342 330 301 399 q 472 208 382 261 l 472 0 l 44 0 l 44 200 z "},"μ":{"ha":846,"x_min":63,"x_max":783,"o":"m 63 658 l 324 658 l 324 264 q 345 199 324 219 q 411 178 367 178 q 472 192 442 178 q 522 226 503 206 l 522 658 l 783 658 l 783 0 l 539 0 l 532 50 q 372 -14 463 -14 q 324 -4 346 -14 l 324 -199 l 63 -199 l 63 658 z "},"π":{"ha":960,"x_min":21,"x_max":939,"o":"m 769 -14 q 574 58 638 -14 q 511 271 511 129 l 511 458 l 367 458 l 367 0 l 106 0 l 106 458 l 21 458 l 21 658 l 857 658 l 857 458 l 772 458 l 772 285 q 792 226 772 243 q 857 208 813 208 q 939 222 897 208 l 939 17 q 769 -14 867 -14 z "},"ก":{"ha":878,"x_min":35,"x_max":815,"o":"m 58 236 q 83 339 58 294 q 161 401 108 383 l 35 440 l 35 638 q 207 728 107 692 q 424 764 307 764 q 719 683 622 764 q 815 451 815 603 l 815 0 l 554 0 l 554 443 q 520 544 554 514 q 408 574 486 574 q 324 562 364 574 q 257 531 283 550 l 257 519 l 403 474 l 403 351 q 339 311 358 339 q 319 232 319 283 l 319 0 l 58 0 l 58 236 z "},"ถ":{"ha":878,"x_min":35,"x_max":815,"o":"m 204 0 q 98 40 138 0 q 58 146 58 81 l 58 236 q 83 339 58 294 q 161 401 108 383 l 35 440 l 35 638 q 207 728 107 692 q 424 764 307 764 q 719 683 622 764 q 815 451 815 603 l 815 0 l 554 0 l 554 443 q 520 544 554 514 q 408 574 486 574 q 324 562 364 574 q 257 531 283 550 l 257 519 l 403 474 l 403 351 q 339 315 358 339 q 319 249 319 292 l 319 213 q 363 169 319 169 l 419 169 l 419 0 l 204 0 z "},"ภ":{"ha":919,"x_min":35,"x_max":857,"o":"m 35 169 l 71 169 q 103 180 93 169 q 113 213 113 190 l 113 249 q 132 344 113 307 q 203 401 151 382 l 76 440 l 76 638 q 249 728 149 692 q 465 764 349 764 q 760 683 664 764 q 857 451 857 603 l 857 0 l 596 0 l 596 443 q 562 544 596 514 q 450 574 528 574 q 365 562 406 574 q 299 531 325 550 l 299 519 l 444 474 l 444 351 q 392 315 406 339 q 379 242 379 292 l 379 165 q 336 42 379 83 q 213 0 293 0 l 35 0 l 35 169 z "},"ฤ":{"ha":878,"x_min":35,"x_max":815,"o":"m 554 443 q 520 544 554 514 q 408 574 486 574 q 324 562 364 574 q 257 531 283 550 l 257 519 l 403 474 l 403 351 q 339 315 358 339 q 319 249 319 292 l 319 213 q 363 169 319 169 l 419 169 l 419 0 l 204 0 q 98 40 138 0 q 58 146 58 81 l 58 236 q 83 339 58 294 q 161 401 108 383 l 35 440 l 35 638 q 207 728 107 692 q 424 764 307 764 q 719 683 622 764 q 815 451 815 603 l 815 -222 l 554 -222 l 554 443 z "},"ฦ":{"ha":919,"x_min":35,"x_max":857,"o":"m 596 443 q 562 544 596 514 q 450 574 528 574 q 365 562 406 574 q 299 531 325 550 l 299 519 l 444 474 l 444 351 q 392 315 406 339 q 379 242 379 292 l 379 165 q 336 42 379 83 q 213 0 293 0 l 35 0 l 35 169 l 71 169 q 103 180 93 169 q 113 213 113 190 l 113 249 q 132 344 113 307 q 203 401 151 382 l 76 440 l 76 638 q 249 728 149 692 q 465 764 349 764 q 760 683 664 764 q 857 451 857 603 l 857 -222 l 596 -222 l 596 443 z "},"ฎ":{"ha":919,"x_min":35,"x_max":857,"o":"m 207 -83 q 440 -39 311 -39 q 528 -47 482 -39 q 596 -64 574 -54 l 596 443 q 562 544 596 514 q 450 574 528 574 q 365 562 406 574 q 299 531 325 550 l 299 519 l 444 474 l 444 351 q 392 315 406 339 q 379 242 379 292 l 379 165 q 336 42 379 83 q 213 0 293 0 l 35 0 l 35 169 l 71 169 q 103 180 93 169 q 113 213 113 190 l 113 249 q 132 344 113 307 q 203 401 151 382 l 76 440 l 76 638 q 249 728 149 692 q 465 764 349 764 q 760 683 664 764 q 857 451 857 603 l 857 -269 l 618 -269 q 531 -239 576 -249 q 424 -229 486 -229 q 310 -242 369 -229 q 207 -276 251 -256 l 207 -83 z "},"ฏ":{"ha":919,"x_min":35,"x_max":857,"o":"m 614 -275 q 498 -258 549 -275 q 417 -211 447 -240 q 272 -269 372 -269 l 144 -269 l 157 -82 l 238 -82 q 290 -70 272 -82 q 318 -31 308 -58 l 475 -31 q 497 -71 482 -57 q 538 -85 511 -85 q 581 -69 565 -85 q 596 -28 596 -54 l 596 443 q 562 544 596 514 q 450 574 528 574 q 365 562 406 574 q 299 531 325 550 l 299 519 l 444 474 l 444 351 q 392 315 406 339 q 379 242 379 292 l 379 165 q 336 42 379 83 q 213 0 293 0 l 35 0 l 35 169 l 71 169 q 103 180 93 169 q 113 213 113 190 l 113 249 q 132 344 113 307 q 203 401 151 382 l 76 440 l 76 638 q 249 728 149 692 q 465 764 349 764 q 760 683 664 764 q 857 451 857 603 l 857 -35 q 793 -209 857 -143 q 614 -275 729 -275 z "},"ญ":{"ha":1349,"x_min":35,"x_max":1290,"o":"m 917 -112 q 613 -51 738 -112 l 613 124 q 755 78 664 94 q 915 61 846 61 q 1046 75 1010 61 q 1082 117 1082 89 q 1079 139 1082 128 q 1072 156 1076 150 q 993 134 1039 143 q 897 125 947 125 q 628 199 721 125 q 535 436 535 274 l 535 443 q 505 544 535 515 q 399 574 475 574 q 257 531 317 574 l 257 519 l 403 474 l 403 351 q 339 315 358 339 q 319 249 319 292 l 319 213 q 363 169 319 169 l 419 169 l 419 0 l 204 0 q 98 40 138 0 q 58 146 58 81 l 58 236 q 83 339 58 294 q 161 401 108 383 l 35 440 l 35 638 q 414 764 203 764 q 702 684 611 764 q 793 451 793 604 l 793 439 q 819 338 793 368 q 910 308 846 308 q 997 339 971 308 q 1024 440 1024 369 l 1024 750 l 1285 750 l 1285 458 q 1270 342 1285 392 q 1221 254 1256 292 q 1290 107 1290 206 q 1193 -53 1290 7 q 917 -112 1096 -112 z "},"ข":{"ha":853,"x_min":35,"x_max":790,"o":"m 419 -14 q 151 63 249 -14 q 53 275 53 140 l 53 311 q 69 389 53 356 q 115 463 86 422 q 142 502 133 486 q 150 532 150 518 q 141 560 150 551 q 110 568 132 568 l 35 568 l 56 750 l 299 750 q 399 719 371 750 q 428 624 428 689 q 413 545 428 579 q 367 465 397 511 q 327 397 340 424 q 314 336 314 369 l 314 275 q 419 176 314 176 q 529 282 529 176 l 529 750 l 790 750 l 790 279 q 692 63 790 140 q 419 -14 593 -14 z "},"ฃ":{"ha":857,"x_min":35,"x_max":794,"o":"m 424 -14 q 153 53 249 -14 q 57 251 57 119 l 57 272 q 85 363 57 319 q 164 463 113 406 q 208 513 193 493 q 222 546 222 532 q 200 572 222 572 q 171 557 183 572 l 171 503 l 35 503 l 35 750 l 186 750 l 186 711 q 242 739 208 728 q 314 750 276 750 q 414 717 378 750 q 450 624 450 685 q 430 520 450 563 q 372 429 410 478 q 331 369 344 393 q 318 315 318 344 l 318 279 q 345 203 318 229 q 424 176 372 176 q 533 282 533 176 l 533 750 l 794 750 l 794 279 q 696 63 794 140 q 424 -14 597 -14 z "},"ช":{"ha":853,"x_min":35,"x_max":790,"o":"m 419 -14 q 151 63 249 -14 q 53 275 53 140 l 53 311 q 69 389 53 356 q 115 463 86 422 q 142 502 133 486 q 150 532 150 518 q 141 560 150 551 q 110 568 132 568 l 35 568 l 56 750 l 293 750 q 394 719 365 750 q 422 624 422 689 q 407 544 422 579 q 364 465 392 508 q 326 397 339 424 q 314 336 314 369 l 314 275 q 419 176 314 176 q 529 282 529 176 l 529 351 q 513 408 529 390 q 465 425 497 425 l 442 425 l 458 607 l 467 607 q 515 626 501 607 q 529 693 529 644 l 529 764 l 790 764 l 790 704 q 771 589 790 633 q 701 518 751 544 q 771 449 751 492 q 790 344 790 407 l 790 279 q 692 63 790 140 q 419 -14 593 -14 z "},"ซ":{"ha":857,"x_min":35,"x_max":794,"o":"m 424 -14 q 153 54 250 -14 q 57 251 57 122 l 57 272 q 85 363 57 319 q 164 463 113 406 q 208 513 193 493 q 222 546 222 532 q 200 572 222 572 q 171 557 183 572 l 171 503 l 35 503 l 35 750 l 186 750 l 186 711 q 242 739 208 728 q 314 750 276 750 q 410 715 376 750 q 444 624 444 681 q 425 520 444 563 q 369 425 406 478 q 331 365 344 390 q 318 310 318 339 l 318 275 q 424 176 318 176 q 533 282 533 176 l 533 351 q 517 408 533 390 q 469 425 501 425 l 446 425 l 463 607 l 471 607 q 519 626 506 607 q 533 693 533 644 l 533 764 l 794 764 l 794 704 q 775 589 794 633 q 706 518 756 544 q 775 449 756 492 q 794 344 794 407 l 794 279 q 696 63 794 140 q 424 -14 597 -14 z "},"ค":{"ha":890,"x_min":63,"x_max":828,"o":"m 63 444 q 162 683 63 601 q 446 764 261 764 q 729 683 631 764 q 828 444 828 601 l 828 0 l 567 0 l 567 451 q 536 542 567 510 q 446 574 506 574 q 324 451 324 574 l 324 368 q 369 388 342 381 q 426 394 397 394 l 499 394 l 506 190 l 424 190 q 324 168 363 190 l 324 0 l 63 0 l 63 444 z "},"ฅ":{"ha":890,"x_min":63,"x_max":828,"o":"m 63 540 q 116 703 63 643 q 271 764 169 764 q 367 747 321 764 q 444 693 413 729 q 524 747 476 729 q 624 764 572 764 q 777 706 726 764 q 828 540 828 649 l 828 0 l 567 0 l 567 513 q 558 559 567 544 q 526 574 550 574 q 497 564 508 574 q 476 536 486 554 l 414 536 q 397 564 407 554 q 371 574 388 574 q 324 513 324 574 l 324 368 q 369 388 342 381 q 426 394 397 394 l 499 394 l 506 190 l 424 190 q 324 168 363 190 l 324 0 l 63 0 l 63 540 z "},"ศ":{"ha":935,"x_min":63,"x_max":900,"o":"m 63 444 q 162 683 63 601 q 446 764 261 764 q 582 750 513 764 l 900 750 l 888 560 l 801 560 q 821 502 814 538 q 828 433 828 467 l 828 0 l 567 0 l 567 451 q 536 542 567 510 q 446 574 506 574 q 324 451 324 574 l 324 368 q 369 388 342 381 q 426 394 397 394 l 499 394 l 506 190 l 424 190 q 324 168 363 190 l 324 0 l 63 0 l 63 444 z "},"ด":{"ha":917,"x_min":35,"x_max":854,"o":"m 360 -14 q 122 74 208 -14 q 35 350 35 161 q 140 658 35 553 q 457 764 244 764 q 681 722 592 764 q 812 610 769 679 q 854 456 854 540 l 854 0 l 593 0 l 593 432 q 563 538 593 503 q 451 574 532 574 q 337 521 372 574 q 301 350 301 468 q 330 215 301 254 q 422 176 358 176 q 506 188 476 176 l 506 11 q 360 -14 449 -14 z "},"ต":{"ha":917,"x_min":35,"x_max":854,"o":"m 360 -14 q 122 74 208 -14 q 35 350 35 161 q 103 659 35 554 q 307 764 172 764 q 399 747 361 764 q 465 693 436 729 q 547 745 497 726 q 649 764 597 764 q 806 707 757 764 q 854 550 854 650 l 854 0 l 593 0 l 593 499 q 583 556 593 539 q 547 574 574 574 q 517 562 529 574 q 497 529 504 550 l 419 529 q 399 563 408 553 q 369 574 389 574 q 315 514 329 574 q 301 350 301 454 q 330 215 301 254 q 422 176 358 176 q 506 188 476 176 l 506 11 q 360 -14 449 -14 z "},"ท":{"ha":876,"x_min":63,"x_max":814,"o":"m 63 750 l 304 750 l 314 692 q 422 744 360 725 q 554 764 483 764 q 743 694 672 764 q 814 499 814 624 l 814 0 l 553 0 l 553 471 q 529 548 553 524 q 453 572 506 572 q 379 557 414 572 q 324 519 344 542 l 324 0 l 63 0 l 63 750 z "},"ฑ":{"ha":872,"x_min":35,"x_max":810,"o":"m 92 238 q 113 336 92 290 q 174 442 135 382 q 210 505 199 482 q 222 546 222 528 q 200 572 222 572 q 171 557 183 572 l 171 503 l 35 503 l 35 750 l 186 750 l 186 711 q 304 750 239 750 q 359 740 332 750 q 404 714 386 731 q 478 750 435 736 q 568 764 521 764 q 810 507 810 764 l 810 0 l 549 0 l 549 504 q 537 556 549 540 q 494 572 525 572 q 449 551 472 572 q 437 476 449 508 q 401 399 425 443 q 365 315 376 349 q 353 236 353 282 l 353 0 l 92 0 l 92 238 z "},"น":{"ha":876,"x_min":63,"x_max":814,"o":"m 322 -14 q 133 56 204 -14 q 63 251 63 126 l 63 750 l 324 750 l 324 279 q 347 202 324 226 q 424 178 371 178 q 497 193 463 178 q 553 231 532 208 l 553 750 l 814 750 l 814 0 l 572 0 l 563 58 q 455 6 517 25 q 322 -14 393 -14 z "},"ม":{"ha":876,"x_min":63,"x_max":814,"o":"m 549 -14 q 314 58 411 -14 l 304 0 l 63 0 l 63 750 l 324 750 l 324 231 q 379 193 344 208 q 453 178 414 178 q 529 202 506 178 q 553 279 553 226 l 553 750 l 814 750 l 814 251 q 741 56 814 126 q 549 -14 668 -14 z "},"ฌ":{"ha":1326,"x_min":35,"x_max":1264,"o":"m 1008 -14 q 885 5 939 -14 q 783 58 831 24 l 774 0 l 535 0 l 535 443 q 505 544 535 515 q 399 574 475 574 q 257 531 317 574 l 257 519 l 403 474 l 403 351 q 339 315 358 339 q 319 249 319 292 l 319 213 q 363 169 319 169 l 419 169 l 419 0 l 204 0 q 98 40 138 0 q 58 146 58 81 l 58 236 q 83 339 58 294 q 161 401 108 383 l 35 440 l 35 638 q 414 764 203 764 q 702 684 611 764 q 793 451 793 604 l 793 231 q 846 192 814 207 q 913 178 878 178 q 983 201 963 178 q 1003 279 1003 225 l 1003 750 l 1264 750 l 1264 251 q 1195 56 1264 126 q 1008 -14 1126 -14 z "},"ณ":{"ha":1329,"x_min":35,"x_max":1267,"o":"m 790 -14 q 603 56 672 -14 q 535 251 535 126 l 535 443 q 505 544 535 515 q 399 574 475 574 q 257 531 317 574 l 257 519 l 403 474 l 403 351 q 339 315 358 339 q 319 249 319 292 l 319 213 q 363 169 319 169 l 419 169 l 419 0 l 204 0 q 98 40 138 0 q 58 146 58 81 l 58 236 q 83 339 58 294 q 161 401 108 383 l 35 440 l 35 638 q 414 764 203 764 q 702 684 611 764 q 793 451 793 604 l 793 279 q 815 201 794 225 q 885 178 836 178 q 952 192 919 178 q 1006 231 985 207 l 1006 750 l 1267 750 l 1267 0 l 1025 0 l 1015 58 q 914 5 968 24 q 790 -14 860 -14 z "},"ฒ":{"ha":1374,"x_min":35,"x_max":1311,"o":"m 360 -14 q 122 74 208 -14 q 35 350 35 161 q 103 659 35 554 q 304 764 171 764 q 394 747 357 764 q 460 693 431 729 q 540 745 492 726 q 640 764 589 764 q 840 550 840 764 l 840 231 q 893 192 861 207 q 960 178 925 178 q 1030 201 1010 178 q 1050 279 1050 225 l 1050 750 l 1311 750 l 1311 251 q 1242 56 1311 126 q 1056 -14 1174 -14 q 932 5 986 -14 q 831 58 878 24 l 821 0 l 582 0 l 582 499 q 574 556 582 539 q 539 574 565 574 q 492 529 506 574 l 414 529 q 394 564 403 554 q 367 574 386 574 q 314 515 326 574 q 301 350 301 457 q 330 215 301 254 q 422 176 358 176 q 506 188 476 176 l 506 11 q 360 -14 449 -14 z "},"ฆ":{"ha":871,"x_min":35,"x_max":808,"o":"m 543 -14 q 308 58 406 -14 l 299 0 l 57 0 l 57 272 q 85 363 57 319 q 164 463 113 406 q 208 513 193 493 q 222 546 222 532 q 200 572 222 572 q 171 557 183 572 l 171 503 l 35 503 l 35 750 l 186 750 l 186 711 q 242 739 208 728 q 314 750 276 750 q 414 717 378 750 q 450 624 450 685 q 430 519 450 563 q 372 419 410 475 q 331 356 344 382 q 318 300 318 329 l 318 231 q 374 193 339 208 q 447 178 408 178 q 524 202 500 178 q 547 279 547 226 l 547 750 l 808 750 l 808 251 q 735 56 808 126 q 543 -14 663 -14 z "},"ธ":{"ha":764,"x_min":35,"x_max":729,"o":"m 389 -14 q 201 3 292 -14 q 47 49 110 21 l 47 311 l 274 311 l 274 185 q 319 174 290 178 q 375 169 349 169 q 462 185 435 169 q 489 239 489 201 q 451 291 489 274 q 314 332 414 308 l 258 344 q 90 416 146 372 q 35 544 35 460 q 123 707 35 650 q 394 764 211 764 q 564 754 485 764 q 688 729 643 744 l 688 540 q 574 569 643 558 q 442 579 504 579 q 331 573 368 579 q 294 542 294 567 q 325 511 294 522 q 428 483 356 500 q 518 463 479 474 q 679 383 629 433 q 729 235 729 333 q 640 50 729 114 q 389 -14 551 -14 z "},"ร":{"ha":699,"x_min":35,"x_max":664,"o":"m 331 -14 q 167 -2 246 -14 q 44 29 89 10 l 44 228 q 160 190 96 204 q 279 176 224 176 q 372 185 347 176 q 397 218 397 194 q 374 256 397 242 q 276 296 350 269 l 228 314 q 81 400 126 351 q 35 532 35 449 q 119 701 35 638 q 368 764 204 764 q 506 754 435 764 q 622 731 578 744 l 622 535 q 522 563 579 553 q 421 574 465 574 q 331 565 361 574 q 301 528 301 556 q 321 497 301 508 q 390 468 340 485 q 464 442 425 457 q 589 381 547 410 q 647 313 631 351 q 664 213 664 275 q 577 46 664 106 q 331 -14 490 -14 z "},"จ":{"ha":801,"x_min":35,"x_max":767,"o":"m 390 -14 q 297 -6 343 -14 q 225 14 250 3 l 143 235 l 35 235 l 44 439 l 288 439 l 385 176 q 500 381 500 196 q 480 494 500 453 q 414 555 460 536 q 288 574 368 574 q 44 538 174 574 l 44 715 q 194 751 113 738 q 354 764 276 764 q 669 667 572 764 q 767 379 767 571 q 714 165 767 254 q 575 31 661 76 q 390 -14 489 -14 z "},"ว":{"ha":746,"x_min":35,"x_max":711,"o":"m 308 -14 q 35 36 143 -14 l 35 226 q 138 190 82 203 q 244 176 193 176 q 397 225 349 176 q 444 375 444 274 q 397 524 444 475 q 246 574 349 574 q 137 563 192 574 q 36 529 82 551 l 36 714 q 310 764 158 764 q 611 669 511 764 q 711 375 711 574 q 610 81 711 176 q 308 -14 510 -14 z "},"ง":{"ha":854,"x_min":35,"x_max":819,"o":"m 421 -14 q 322 -7 374 -14 q 235 13 269 0 l 35 511 l 290 511 l 425 176 q 553 396 553 192 q 522 515 553 483 q 414 546 490 546 l 361 546 l 361 750 l 467 750 q 728 660 638 750 q 819 397 819 571 q 713 88 819 190 q 421 -14 606 -14 z "},"ฐ":{"ha":864,"x_min":35,"x_max":829,"o":"m 390 -14 q 297 -6 343 -14 q 225 14 250 3 l 143 235 l 35 235 l 44 439 l 288 439 l 385 176 q 500 381 500 196 q 480 494 500 453 q 414 555 460 536 q 288 574 368 574 q 44 538 174 574 l 44 715 q 194 751 113 738 q 354 764 276 764 q 500 750 428 764 l 829 750 l 817 560 l 729 560 q 767 379 767 481 q 714 165 767 254 q 575 31 661 76 q 390 -14 489 -14 m 504 -301 q 388 -283 440 -301 q 304 -235 336 -264 q 160 -296 257 -296 l 44 -296 l 57 -118 l 138 -118 q 192 -104 172 -118 q 218 -61 211 -90 l 382 -61 q 458 -121 396 -121 q 512 -106 493 -121 q 531 -64 531 -92 l 531 -36 l 735 -36 l 735 -61 q 676 -236 735 -171 q 504 -301 618 -301 z "},"ฉ":{"ha":843,"x_min":35,"x_max":781,"o":"m 289 -14 q 108 52 174 -14 q 42 243 42 118 l 42 417 l 303 417 l 303 283 q 325 204 303 231 q 397 178 347 178 q 467 192 436 178 q 519 232 499 207 l 519 411 q 501 508 519 474 q 439 558 483 543 q 314 574 394 574 q 175 563 257 574 q 35 535 93 551 l 35 713 q 198 751 106 738 q 381 764 290 764 q 686 676 592 764 q 781 410 781 589 l 781 0 l 539 0 l 529 58 q 289 -14 431 -14 z "},"ล":{"ha":840,"x_min":35,"x_max":778,"o":"m 290 -14 q 105 45 175 -14 q 35 228 35 104 q 112 409 35 346 q 328 472 189 472 l 517 472 l 517 492 q 478 553 517 533 q 363 574 440 574 q 106 535 233 574 l 106 715 q 251 751 167 738 q 414 764 335 764 q 685 687 593 764 q 778 456 778 610 l 778 0 l 517 0 l 517 294 l 388 294 q 316 280 339 294 q 293 226 293 265 q 313 174 293 189 q 375 160 332 160 q 446 168 415 160 l 446 7 q 290 -14 390 -14 z "},"ส":{"ha":867,"x_min":35,"x_max":846,"o":"m 290 -14 q 105 45 175 -14 q 35 228 35 104 q 112 409 35 346 q 328 472 189 472 l 517 472 l 517 492 q 478 553 517 533 q 363 574 440 574 q 106 535 233 574 l 106 715 q 251 751 167 738 q 414 764 335 764 q 550 750 483 764 l 846 750 l 833 560 l 754 560 q 772 505 765 539 q 778 438 778 471 l 778 0 l 517 0 l 517 294 l 388 294 q 316 280 339 294 q 293 226 293 265 q 313 174 293 189 q 375 160 332 160 q 446 168 415 160 l 446 7 q 290 -14 390 -14 z "},"บ":{"ha":894,"x_min":63,"x_max":832,"o":"m 447 -14 q 166 71 269 -14 q 63 319 63 156 l 63 750 l 324 750 l 324 308 q 353 208 324 239 q 447 176 382 176 q 542 208 513 176 q 571 308 571 239 l 571 750 l 832 750 l 832 319 q 728 71 832 156 q 447 -14 625 -14 z "},"ป":{"ha":894,"x_min":63,"x_max":832,"o":"m 447 -14 q 166 71 269 -14 q 63 319 63 156 l 63 750 l 324 750 l 324 308 q 353 208 324 239 q 447 176 382 176 q 542 208 513 176 q 571 308 571 239 l 571 972 l 832 972 l 832 319 q 728 71 832 156 q 447 -14 625 -14 z "},"ษ":{"ha":915,"x_min":63,"x_max":915,"o":"m 447 -14 q 166 71 269 -14 q 63 319 63 156 l 63 750 l 324 750 l 324 308 q 353 208 324 239 q 447 176 382 176 q 542 208 513 176 q 571 308 571 239 l 571 369 l 450 369 l 450 574 l 571 574 l 571 750 l 832 750 l 832 574 l 915 574 l 899 369 l 832 369 l 832 319 q 728 71 832 156 q 447 -14 625 -14 z "},"ย":{"ha":883,"x_min":42,"x_max":821,"o":"m 433 -14 q 144 51 247 -14 q 42 239 42 115 q 62 325 42 286 q 119 389 82 364 q 65 449 86 410 q 44 539 44 488 q 118 707 44 650 q 321 764 192 764 q 468 742 407 764 l 468 564 q 386 574 429 574 q 330 563 349 574 q 311 522 311 551 q 329 481 311 492 q 385 469 347 469 l 454 469 l 463 303 l 383 303 q 326 288 344 303 q 308 239 308 272 q 336 192 308 207 q 429 176 364 176 q 560 279 560 176 l 560 750 l 821 750 l 821 289 q 721 61 821 136 q 433 -14 621 -14 z "},"ผ":{"ha":903,"x_min":63,"x_max":840,"o":"m 63 615 q 93 713 63 675 q 181 750 124 750 l 397 750 l 407 575 l 340 575 q 292 524 292 575 l 292 317 l 410 521 l 494 521 l 611 317 l 611 750 l 840 750 l 840 0 l 613 0 l 451 293 l 290 0 l 63 0 l 63 615 z "},"ฝ":{"ha":903,"x_min":63,"x_max":840,"o":"m 63 615 q 93 713 63 675 q 181 750 124 750 l 397 750 l 407 575 l 340 575 q 292 524 292 575 l 292 317 l 410 521 l 494 521 l 611 317 l 611 972 l 840 972 l 840 0 l 613 0 l 451 293 l 290 0 l 63 0 l 63 615 z "},"ฟ":{"ha":1026,"x_min":21,"x_max":1036,"o":"m 21 750 l 254 750 l 340 347 l 411 606 l 411 750 l 593 750 l 690 347 l 804 972 l 1036 972 l 826 0 l 610 0 l 517 338 l 415 0 l 199 0 l 21 750 z "},"พ":{"ha":1026,"x_min":21,"x_max":1006,"o":"m 21 750 l 254 750 l 340 347 l 411 606 l 411 750 l 593 750 l 690 347 l 774 750 l 1006 750 l 826 0 l 610 0 l 517 338 l 415 0 l 199 0 l 21 750 z "},"ห":{"ha":861,"x_min":63,"x_max":800,"o":"m 63 750 l 324 750 l 324 547 l 447 547 q 518 571 497 547 q 539 643 539 594 l 539 750 l 800 750 l 800 626 q 711 449 800 490 q 797 285 797 407 l 797 0 l 536 0 l 536 247 q 515 321 536 299 q 444 343 494 343 l 324 343 l 324 0 l 63 0 l 63 750 z "},"ฬ":{"ha":1115,"x_min":63,"x_max":1081,"o":"m 63 750 l 296 750 l 382 333 l 460 550 l 460 694 l 628 694 l 732 333 l 778 597 q 783 651 783 625 q 770 693 783 681 q 724 706 757 706 l 682 706 l 708 858 l 764 858 q 824 874 807 858 q 850 935 840 890 l 858 972 l 1081 972 l 1067 904 q 1030 818 1056 850 q 961 774 1004 786 q 1011 671 1011 743 q 1003 607 1011 643 l 868 0 l 651 0 l 558 289 l 457 0 l 240 0 l 63 750 z "},"อ":{"ha":832,"x_min":42,"x_max":797,"o":"m 382 -14 q 194 3 286 -14 q 42 49 103 21 l 42 447 l 392 447 l 401 276 l 300 276 l 300 188 q 379 176 335 176 q 498 220 465 176 q 531 371 531 264 q 509 494 531 450 q 441 556 488 538 q 315 574 394 574 q 183 564 254 574 q 50 535 113 554 l 50 715 q 209 751 119 739 q 378 764 299 764 q 695 665 593 764 q 797 371 797 567 q 697 82 797 178 q 382 -14 597 -14 z "},"ฮ":{"ha":888,"x_min":42,"x_max":853,"o":"m 382 -14 q 194 3 286 -14 q 42 49 103 21 l 42 447 l 392 447 l 401 276 l 300 276 l 300 188 q 379 176 335 176 q 498 220 465 176 q 531 371 531 264 q 509 494 531 450 q 441 556 488 538 q 315 574 394 574 q 183 564 254 574 q 50 535 113 554 l 50 715 q 209 751 119 739 q 378 764 299 764 q 524 750 451 764 l 853 750 l 840 560 l 756 560 q 797 371 797 492 q 697 82 797 178 q 382 -14 597 -14 z "},"า":{"ha":622,"x_min":0,"x_max":560,"o":"m 299 446 q 272 544 299 515 q 179 574 246 574 q 0 536 93 574 l 0 714 q 108 750 43 736 q 238 764 174 764 q 482 690 404 764 q 560 465 560 617 l 560 0 l 299 0 l 299 446 z "},"ำ":{"ha":622,"x_min":-385,"x_max":560,"o":"m -194 797 q -330 848 -275 797 q -385 976 -385 899 q -330 1105 -385 1054 q -194 1156 -275 1156 q -60 1105 -114 1156 q -6 976 -6 1054 q -60 848 -6 899 q -194 797 -114 797 m -194 924 q -158 940 -174 924 q -142 976 -142 956 q -158 1013 -142 997 q -194 1029 -174 1029 q -233 1013 -217 1029 q -249 976 -249 997 q -233 940 -249 956 q -194 924 -217 924 m 299 446 q 272 544 299 515 q 179 574 246 574 q 0 536 93 574 l 0 714 q 108 750 43 736 q 238 764 174 764 q 482 690 404 764 q 560 465 560 617 l 560 0 l 299 0 l 299 446 z "},"ๅ":{"ha":622,"x_min":0,"x_max":560,"o":"m 299 446 q 272 544 299 515 q 179 574 246 574 q 0 536 93 574 l 0 714 q 108 750 43 736 q 238 764 174 764 q 482 690 404 764 q 560 465 560 617 l 560 -222 l 299 -222 l 299 446 z "},"ะ":{"ha":451,"x_min":35,"x_max":417,"o":"m 35 665 l 232 665 l 232 599 l 417 599 l 408 421 l 35 421 l 35 665 m 35 306 l 232 306 l 232 239 l 417 239 l 408 61 l 35 61 l 35 306 z "},"เ":{"ha":458,"x_min":63,"x_max":424,"o":"m 208 0 q 102 40 142 0 q 63 146 63 81 l 63 750 l 324 750 l 324 213 q 367 169 324 169 l 424 169 l 424 0 l 208 0 z "},"แ":{"ha":838,"x_min":63,"x_max":803,"o":"m 208 0 q 102 40 142 0 q 63 146 63 81 l 63 750 l 324 750 l 324 213 q 367 169 324 169 l 410 169 l 410 0 l 208 0 m 601 0 q 495 40 535 0 q 456 146 456 81 l 456 750 l 717 750 l 717 213 q 760 169 717 169 l 803 169 l 803 0 l 601 0 z "},"ไ":{"ha":446,"x_min":-28,"x_max":453,"o":"m 222 0 q 116 40 156 0 q 76 146 76 81 l 76 625 q 94 724 76 678 q 140 794 111 771 l -28 794 l -28 964 l 453 964 l 453 813 q 364 745 390 796 q 338 613 338 694 l 338 213 q 381 169 338 169 l 438 169 l 438 0 l 222 0 z "},"ใ":{"ha":436,"x_min":-35,"x_max":443,"o":"m 186 0 q 80 40 119 0 q 40 146 40 81 l 40 449 q 64 550 40 507 q 128 642 88 593 q 165 691 153 672 q 176 728 176 710 q 158 765 176 751 q 106 778 140 778 q -35 738 31 778 l -35 910 q 207 968 65 968 q 382 924 321 968 q 443 793 443 879 q 425 707 443 744 q 372 622 407 669 q 319 534 336 571 q 301 450 301 497 l 301 213 q 344 169 301 169 l 401 169 l 401 0 l 186 0 z "},"โ":{"ha":461,"x_min":-28,"x_max":468,"o":"m 246 0 q 140 40 179 0 q 100 146 100 81 l 100 636 q 69 752 100 710 q -28 813 38 794 l -28 964 l 468 964 l 468 794 l 299 794 q 361 646 361 749 l 361 213 q 404 169 361 169 l 461 169 l 461 0 l 246 0 z "},"ℊ":{"ha":843,"x_min":35,"x_max":781,"o":"m 340 -244 q 241 -240 304 -244 q 151 -231 178 -236 l 151 -44 q 224 -57 179 -51 q 300 -62 268 -62 q 468 -44 417 -62 q 519 22 519 -25 l 519 38 q 440 5 486 18 q 350 -8 394 -8 q 35 315 35 -8 q 76 510 35 429 q 189 631 117 590 q 353 672 261 672 q 458 654 408 672 q 542 607 508 636 l 554 658 l 781 658 l 781 67 q 681 -163 781 -82 q 340 -244 581 -244 m 417 181 q 519 215 481 181 l 519 443 q 422 483 476 483 q 329 444 357 483 q 301 317 301 406 q 328 209 301 238 q 417 181 356 181 z "},"⁄":{"ha":278,"x_min":-215,"x_max":493,"o":"m 226 919 l 493 919 l 53 0 l -215 0 l 226 919 z "},"½":{"ha":965,"x_min":35,"x_max":931,"o":"m 115 733 l 35 718 l 35 856 l 301 908 l 301 514 l 115 514 l 115 733 m 576 894 l 824 894 l 356 0 l 110 0 l 576 894 m 575 72 q 612 113 593 97 q 667 157 631 129 q 724 203 713 192 q 736 232 736 215 q 722 258 736 250 q 678 265 708 265 q 582 242 638 265 l 582 367 q 659 386 611 378 q 751 394 707 394 q 881 361 835 394 q 928 274 928 328 q 915 216 928 239 q 872 165 903 193 l 846 143 q 824 124 832 132 l 931 124 l 931 0 l 575 0 l 575 72 z "},"⅓":{"ha":974,"x_min":35,"x_max":939,"o":"m 115 733 l 35 718 l 35 856 l 301 908 l 301 514 l 115 514 l 115 733 m 576 894 l 824 894 l 356 0 l 110 0 l 576 894 m 738 -12 q 651 -6 703 -12 q 578 8 599 0 l 578 111 q 688 89 628 89 q 739 96 724 89 q 754 118 754 103 q 741 140 754 133 q 700 147 728 147 l 636 147 l 643 235 l 697 235 q 735 242 724 235 q 747 264 747 249 q 685 289 747 289 q 583 267 631 289 l 583 371 q 653 386 607 379 q 738 393 700 393 q 884 361 836 393 q 932 276 932 329 q 890 190 932 219 q 939 110 939 172 q 738 -12 939 -12 z "},"⅔":{"ha":1015,"x_min":35,"x_max":981,"o":"m 35 586 q 72 627 53 611 q 126 671 90 643 q 184 717 172 706 q 196 746 196 729 q 182 772 196 764 q 138 779 168 779 q 42 756 97 779 l 42 881 q 119 900 71 892 q 211 908 167 908 q 341 875 294 908 q 388 788 388 842 q 375 730 388 753 q 332 679 363 707 l 306 657 q 283 638 292 646 l 390 638 l 390 514 l 35 514 l 35 586 m 618 894 l 865 894 l 397 0 l 151 0 l 618 894 m 779 -14 q 692 -8 744 -14 q 619 7 640 -1 l 619 110 q 729 88 669 88 q 781 94 765 88 q 796 117 796 101 q 783 139 796 132 q 742 146 769 146 l 678 146 l 685 233 l 739 233 q 777 240 765 233 q 789 263 789 247 q 726 288 789 288 q 625 265 672 288 l 625 369 q 695 385 649 378 q 779 392 742 392 q 926 360 878 392 q 974 275 974 328 q 932 189 974 218 q 981 108 981 171 q 779 -14 981 -14 z "},"¼":{"ha":947,"x_min":35,"x_max":913,"o":"m 115 733 l 35 718 l 35 856 l 301 908 l 301 514 l 115 514 l 115 733 m 576 894 l 824 894 l 356 0 l 110 0 l 576 894 m 696 58 l 518 58 l 518 168 l 697 394 l 872 394 l 872 175 l 913 175 l 913 58 l 872 58 l 872 0 l 696 0 l 696 58 m 743 175 l 743 272 l 668 175 l 743 175 z "},"¾":{"ha":961,"x_min":35,"x_max":926,"o":"m 194 503 q 108 509 160 503 q 35 524 56 515 l 35 626 q 144 604 85 604 q 196 611 181 604 q 211 633 211 618 q 198 656 211 649 q 157 663 185 663 l 93 663 l 100 750 l 154 750 q 192 757 181 750 q 204 779 204 764 q 142 804 204 804 q 40 782 88 804 l 40 886 q 110 901 64 894 q 194 908 157 908 q 341 876 293 908 q 389 792 389 844 q 347 706 389 735 q 396 625 396 688 q 194 503 396 503 m 590 894 l 838 894 l 369 0 l 124 0 l 590 894 m 710 58 l 532 58 l 532 168 l 711 394 l 886 394 l 886 175 l 926 175 l 926 58 l 886 58 l 886 0 l 710 0 l 710 58 m 757 175 l 757 272 l 682 175 l 757 175 z "},"⅛":{"ha":969,"x_min":35,"x_max":935,"o":"m 115 733 l 35 718 l 35 856 l 301 908 l 301 514 l 115 514 l 115 733 m 576 894 l 824 894 l 356 0 l 110 0 l 576 894 m 738 -14 q 594 17 647 -14 q 540 107 540 49 q 553 158 540 135 q 590 194 567 182 q 550 272 550 221 q 599 362 550 332 q 738 392 649 392 q 876 362 826 392 q 925 272 925 332 q 885 192 925 221 q 935 107 935 164 q 881 17 935 49 q 738 -14 828 -14 m 751 228 q 776 244 769 235 q 783 269 783 253 q 738 303 783 303 q 692 269 692 303 q 719 235 692 240 l 751 228 m 738 74 q 792 110 792 74 q 783 131 792 124 q 754 144 775 139 l 718 153 q 692 139 700 147 q 683 113 683 131 q 738 74 683 74 z "},"⅜":{"ha":979,"x_min":35,"x_max":944,"o":"m 194 503 q 108 509 160 503 q 35 524 56 515 l 35 626 q 144 604 85 604 q 196 611 181 604 q 211 633 211 618 q 198 656 211 649 q 157 663 185 663 l 93 663 l 100 750 l 154 750 q 192 757 181 750 q 204 779 204 764 q 142 804 204 804 q 40 782 88 804 l 40 886 q 110 901 64 894 q 194 908 157 908 q 341 876 293 908 q 389 792 389 844 q 347 706 389 735 q 396 625 396 688 q 194 503 396 503 m 586 894 l 833 894 l 365 0 l 119 0 l 586 894 m 747 -14 q 603 17 657 -14 q 550 107 550 49 q 563 158 550 135 q 600 194 576 182 q 560 272 560 221 q 609 362 560 332 q 747 392 658 392 q 885 362 836 392 q 935 272 935 332 q 894 192 935 221 q 944 107 944 164 q 891 17 944 49 q 747 -14 838 -14 m 761 228 q 786 244 779 235 q 793 269 793 253 q 747 303 793 303 q 701 269 701 303 q 729 235 701 240 l 761 228 m 747 74 q 801 110 801 74 q 793 131 801 124 q 764 144 785 139 l 728 153 q 701 139 710 147 q 693 113 693 131 q 747 74 693 74 z "},"⅝":{"ha":969,"x_min":35,"x_max":935,"o":"m 182 503 q 98 508 139 503 q 35 524 57 513 l 35 629 q 84 615 54 619 q 139 610 114 610 q 192 618 175 610 q 208 644 208 626 q 196 669 208 663 q 151 676 183 676 l 36 676 l 36 744 l 46 894 l 361 894 l 356 792 l 196 792 l 194 764 l 239 764 q 351 735 315 764 q 386 643 386 706 q 335 540 386 578 q 182 503 285 503 m 576 894 l 824 894 l 356 0 l 110 0 l 576 894 m 738 -14 q 594 17 647 -14 q 540 107 540 49 q 553 158 540 135 q 590 194 567 182 q 550 272 550 221 q 599 362 550 332 q 738 392 649 392 q 876 362 826 392 q 925 272 925 332 q 885 192 925 221 q 935 107 935 164 q 881 17 935 49 q 738 -14 828 -14 m 751 228 q 776 244 769 235 q 783 269 783 253 q 738 303 783 303 q 692 269 692 303 q 719 235 692 240 l 751 228 m 738 74 q 792 110 792 74 q 783 131 792 124 q 754 144 775 139 l 718 153 q 692 139 700 147 q 683 113 683 131 q 738 74 683 74 z "},"⅞":{"ha":956,"x_min":35,"x_max":921,"o":"m 200 765 l 35 765 l 35 894 l 397 894 l 397 800 l 272 514 l 90 514 l 200 765 m 563 894 l 810 894 l 342 0 l 96 0 l 563 894 m 724 -14 q 580 17 633 -14 q 526 107 526 49 q 540 158 526 135 q 576 194 553 182 q 536 272 536 221 q 585 362 536 332 q 724 392 635 392 q 862 362 813 392 q 911 272 911 332 q 871 192 911 221 q 921 107 921 164 q 867 17 921 49 q 724 -14 814 -14 m 738 228 q 763 244 756 235 q 769 269 769 253 q 724 303 769 303 q 678 269 678 303 q 706 235 678 240 l 738 228 m 724 74 q 778 110 778 74 q 769 131 778 124 q 740 144 761 139 l 704 153 q 678 139 686 147 q 669 113 669 131 q 724 74 669 74 z "},"₀":{"ha":514,"x_min":35,"x_max":479,"o":"m 257 -178 q 90 -126 144 -178 q 35 22 35 -75 q 257 228 35 228 q 479 22 479 228 q 424 -126 479 -75 q 257 -178 369 -178 m 257 -58 q 303 -40 290 -58 q 317 22 317 -21 q 303 88 317 68 q 257 108 290 108 q 210 88 224 108 q 197 22 197 68 q 210 -40 197 -21 q 257 -58 224 -58 z "},"₁":{"ha":308,"x_min":35,"x_max":301,"o":"m 115 53 l 35 38 l 35 175 l 301 228 l 301 -167 l 115 -167 l 115 53 z "},"₂":{"ha":425,"x_min":35,"x_max":390,"o":"m 35 -94 q 72 -53 53 -69 q 126 -10 90 -37 q 184 37 172 25 q 196 65 196 49 q 182 91 196 83 q 138 99 168 99 q 42 75 97 99 l 42 200 q 119 219 71 211 q 211 228 167 228 q 341 194 294 228 q 388 107 388 161 q 375 49 388 72 q 332 -1 363 26 l 306 -24 q 283 -43 292 -35 l 390 -43 l 390 -167 l 35 -167 l 35 -94 z "},"₃":{"ha":431,"x_min":35,"x_max":396,"o":"m 194 -178 q 108 -172 160 -178 q 35 -157 56 -165 l 35 -54 q 144 -76 85 -76 q 196 -69 181 -76 q 211 -47 211 -62 q 198 -25 211 -32 q 157 -18 185 -18 l 93 -18 l 100 69 l 154 69 q 192 76 181 69 q 204 99 204 83 q 142 124 204 124 q 40 101 88 124 l 40 206 q 110 221 64 214 q 194 228 157 228 q 341 196 293 228 q 389 111 389 164 q 347 25 389 54 q 396 -56 396 7 q 194 -178 396 -178 z "},"₄":{"ha":408,"x_min":7,"x_max":401,"o":"m 185 -108 l 7 -108 l 7 1 l 186 228 l 361 228 l 361 8 l 401 8 l 401 -108 l 361 -108 l 361 -167 l 185 -167 l 185 -108 m 232 8 l 232 106 l 157 8 l 232 8 z "},"₅":{"ha":421,"x_min":35,"x_max":386,"o":"m 182 -178 q 98 -173 139 -178 q 35 -157 57 -168 l 35 -51 q 84 -66 54 -61 q 139 -71 114 -71 q 192 -62 175 -71 q 208 -36 208 -54 q 196 -11 208 -18 q 151 -4 183 -4 l 36 -4 l 36 64 l 46 214 l 361 214 l 356 111 l 196 111 l 194 83 l 239 83 q 351 54 315 83 q 386 -37 386 25 q 335 -140 386 -103 q 182 -178 285 -178 z "},"₆":{"ha":443,"x_min":35,"x_max":408,"o":"m 222 -178 q 85 -137 136 -178 q 35 -18 35 -96 l 35 56 q 89 181 35 133 q 242 228 143 228 q 312 224 276 228 q 368 211 347 219 l 368 111 q 260 129 331 129 q 194 115 218 129 q 171 81 171 101 l 171 76 q 210 94 186 88 q 257 100 233 100 q 372 67 336 100 q 408 -37 408 33 q 361 -142 408 -106 q 222 -178 314 -178 m 222 -85 q 260 -74 249 -85 q 272 -40 272 -62 q 262 -7 272 -18 q 224 4 251 4 q 171 -12 197 4 l 171 -35 q 183 -73 171 -61 q 222 -85 196 -85 z "},"₇":{"ha":404,"x_min":21,"x_max":383,"o":"m 186 85 l 21 85 l 21 214 l 383 214 l 383 119 l 258 -167 l 76 -167 l 186 85 z "},"₈":{"ha":464,"x_min":35,"x_max":429,"o":"m 232 -178 q 88 -147 142 -178 q 35 -57 35 -115 q 48 -6 35 -29 q 85 31 61 18 q 44 108 44 57 q 94 198 44 168 q 232 228 143 228 q 370 198 321 228 q 419 108 419 168 q 379 28 419 57 q 429 -57 429 0 q 376 -147 429 -115 q 232 -178 322 -178 m 246 64 q 271 80 264 71 q 278 106 278 89 q 232 139 278 139 q 186 106 186 139 q 214 71 186 76 l 246 64 m 232 -90 q 286 -54 286 -90 q 278 -33 286 -40 q 249 -19 269 -25 l 213 -11 q 186 -25 194 -17 q 178 -51 178 -33 q 232 -90 178 -90 z "},"₉":{"ha":443,"x_min":35,"x_max":408,"o":"m 200 -178 q 130 -174 165 -178 q 74 -161 94 -169 l 74 -62 q 183 -79 115 -79 q 248 -65 224 -79 q 272 -32 272 -51 l 272 -26 q 189 -50 240 -50 q 72 -16 110 -50 q 35 88 35 18 q 83 191 35 154 q 222 228 131 228 q 360 187 311 228 q 408 67 408 146 l 408 -7 q 354 -131 408 -85 q 200 -178 300 -178 m 218 44 q 272 63 246 44 l 272 83 q 260 122 272 110 q 221 135 247 135 q 169 89 169 135 q 181 56 169 67 q 218 44 192 44 z "}}}
